<?xml version="1.0" standalone="no"?>
<!DOCTYPE svg PUBLIC "-//W3C//DTD SVG 1.1//EN" "http://www.w3.org/Graphics/SVG/1.1/DTD/svg11.dtd" >
<svg xmlns="http://www.w3.org/2000/svg" xmlns:xlink="http://www.w3.org/1999/xlink" version="1.1">
<metadata>
Created by FontForge 20170731 at Fri Sep  7 16:45:05 2018
 By Aleksey,,,
Copyright 2018 The Krub Project Authors (https://github.com/cadsondemak/Krub)
</metadata>
<defs>
<font id="Krub-Regular" horiz-adv-x="0" >
  <font-face 
    font-family="Krub"
    font-weight="400"
    font-stretch="normal"
    units-per-em="1000"
    panose-1="0 0 5 0 0 0 0 0 0 0"
    ascent="800"
    descent="-200"
    x-height="550"
    cap-height="700"
    bbox="-655 -498 1117 1201"
    underline-thickness="50"
    underline-position="-150"
    unicode-range="U+000D-FB02"
  />
<missing-glyph horiz-adv-x="400" 
 />
    <glyph glyph-name="fi" unicode="fi" horiz-adv-x="623" 
d="M326 771q24 -11 24 -32q0 -11 -3.5 -20.5t-8.5 -9.5q-30 15 -69 15q-42 0 -64 -26t-22 -75v-73h124v-52h-124v-498h-68v498h-103v52h103v74q0 72 38.5 115t102.5 43q46 0 70 -11zM445 550h68v-550h-68v550zM430 696v9q0 45 45 45h8q45 0 45 -45v-9q0 -45 -45 -45h-8
q-45 0 -45 45z" />
    <glyph glyph-name="fl" unicode="fl" horiz-adv-x="603" 
d="M326 771q24 -11 24 -32q0 -11 -3.5 -20.5t-8.5 -9.5q-30 15 -69 15q-42 0 -64 -26t-22 -75v-73h124v-52h-124v-498h-68v498h-103v52h103v74q0 72 38.5 115t102.5 43q46 0 70 -11zM435 791h68v-791h-68v791z" />
    <glyph glyph-name="uni0E240E45" unicode="&#xe24;&#xe45;" horiz-adv-x="945" 
d="M470 383q0 76 -44.5 114t-127.5 38q-48 0 -89.5 -15.5t-66 -37t-24.5 -39.5q0 -13 12.5 -25.5t29 -21t26.5 -8.5q13 0 33 8q18 6 25 6q6 0 15 -12.5t12.5 -24.5t-3.5 -12q-62 0 -86.5 -32t-24.5 -100v-103q0 -38 16 -57.5t43 -19.5q26 0 39 13.5t13 35.5t-13 34.5
t-35 12.5q-15 0 -39 -6q-3 6 -3 13q0 15 12.5 25t36.5 10q39 0 64 -23t25 -66t-29.5 -70t-74.5 -27q-52 0 -86 32.5t-34 91.5v104q0 47 10.5 79t32.5 53q-29 12 -54.5 36t-25.5 51q0 32 32 66t87.5 57t123.5 23q59 0 107.5 -17.5t80.5 -51.5q72 69 179 69q89 0 144.5 -51
t55.5 -140v-611h-65v611q0 66 -36 101.5t-99 35.5q-89 0 -146 -64q16 -38 16 -85v-603h-65v603z" />
    <glyph glyph-name="uni0E260E45" unicode="&#xe26;&#xe45;" horiz-adv-x="955" 
d="M485 366q0 97 -44.5 133t-126.5 36q-50 0 -92.5 -14t-67.5 -34.5t-25 -38.5q0 -12 13 -26t29 -23.5t23 -9.5q6 0 16.5 4t13.5 5q22 10 31 10q7 0 16 -11.5t12.5 -23t-4.5 -11.5q-44 0 -65.5 -27.5t-21.5 -71.5q0 -24 3 -51t4 -35q8 -56 8 -88q0 -46 -26 -71.5t-74 -25.5
q-40 0 -65.5 25t-25.5 63q0 37 22 58t50 21q17 0 27.5 -9.5t10.5 -24.5h-19q-22 0 -33.5 -12t-11.5 -33q0 -17 12 -29.5t33 -12.5t32.5 14t11.5 36q0 30 -6 60.5t-7 35.5q-1 7 -6 33t-5 48q0 56 30 86q-34 11 -63 39.5t-29 54.5q0 28 33 61.5t90 56.5t126 23q124 0 185 -66
q71 66 176 66q89 0 144.5 -51t55.5 -140v-611h-65v611q0 66 -36 101.5t-99 35.5q-87 0 -144 -62q19 -44 19 -104v-586h-65v586z" />
    <glyph glyph-name=".notdef" horiz-adv-x="400" 
 />
    <glyph glyph-name=".null" 
 />
    <glyph glyph-name="nonmarkingreturn" unicode="&#xd;" horiz-adv-x="258" 
 />
    <glyph glyph-name="NULL" 
 />
    <glyph glyph-name="NULL" 
 />
    <glyph glyph-name="space" unicode=" " horiz-adv-x="258" 
 />
    <glyph glyph-name="exclam" unicode="!" horiz-adv-x="246" 
d="M80 700h86l-15 -494h-56zM74 45v9q0 45 45 45h8q45 0 45 -45v-9q0 -45 -45 -45h-8q-45 0 -45 45z" />
    <glyph glyph-name="quotedbl" unicode="&#x22;" horiz-adv-x="324" 
d="M62 737h71l-10 -232h-51zM191 737h71l-10 -232h-51z" />
    <glyph glyph-name="numbersign" unicode="#" horiz-adv-x="540" 
d="M416 433l-27 -168h100v-50h-108l-34 -215h-53l34 215h-150l-34 -215h-53l34 215h-100v50h108l27 168h-109v50h117l35 217h53l-35 -217h150l35 217h53l-35 -217h91v-50h-99zM363 433h-150l-27 -168h150z" />
    <glyph glyph-name="dollar" unicode="$" horiz-adv-x="609" 
d="M497.5 59q-57.5 -55 -156.5 -66v-113h-62v110q-67 2 -121.5 24t-86.5 58t-32 79q0 20 14.5 32.5t38.5 13.5q15 -67 63 -104t124 -41v292q-84 23 -131.5 48t-68 57.5t-20.5 79.5q0 82 58.5 130t161.5 51v99h62v-102q76 -10 126 -53.5t69 -113.5q-13 -13 -40 -13
q-28 0 -41 27q-16 33 -46 56.5t-68 33.5v-252q87 -26 132 -51.5t63.5 -58t18.5 -83.5q0 -85 -57.5 -140zM144.5 480.5q13.5 -19.5 45 -36t89.5 -33.5v239q-73 -3 -110.5 -33.5t-37.5 -87.5q0 -29 13.5 -48.5zM443 102.5q38 36.5 38 90.5q0 48 -31.5 78t-108.5 55v-270
q64 10 102 46.5z" />
    <glyph glyph-name="percent" unicode="%" horiz-adv-x="860" 
d="M601 710h62l-404 -720h-62zM131 408q-41 46 -41 122t41 123t106 47q67 0 108.5 -47t41.5 -123q0 -77 -41.5 -122.5t-108.5 -45.5q-65 0 -106 46zM306 444.5q23 30.5 23 86.5q0 117 -92 117q-43 0 -66 -29t-23 -85q0 -57 23 -88.5t66 -31.5q46 0 69 30.5zM514 46
q-41 46 -41 122t41 123t106 47q67 0 108.5 -47t41.5 -123q0 -77 -41.5 -122.5t-108.5 -45.5q-65 0 -106 46zM689 82.5q23 30.5 23 86.5q0 117 -92 117q-43 0 -66 -29t-23 -85q0 -57 23 -88.5t66 -31.5q46 0 69 30.5z" />
    <glyph glyph-name="ampersand" unicode="&#x26;" horiz-adv-x="687" 
d="M555.5 55.5q25.5 -9.5 61.5 -10.5v-27q0 -28 -42 -28q-28 0 -57.5 15.5t-65.5 52.5q-87 -68 -200 -68q-56 0 -104.5 20.5t-78 61.5t-29.5 99q0 69 34 117.5t116 99.5q-32 49 -47.5 88.5t-15.5 79.5q0 45 21 80.5t57 54.5t80 19q63 0 106 -38.5t43 -101.5
q0 -57 -38.5 -101t-122.5 -96q35 -50 87.5 -117t90.5 -111q32 43 51 97t21 106q34 0 45 -9t11 -39q0 -44 -21.5 -99.5t-62.5 -101.5q35 -34 60.5 -43.5zM214.5 633q-25.5 -24 -25.5 -75q0 -31 13.5 -64.5t39.5 -75.5q69 40 99 76t30 80q0 36 -23.5 59.5t-65.5 23.5
t-67.5 -24zM126.5 99.5q21.5 -28.5 56 -43t72.5 -14.5q91 0 157 60q-47 54 -100.5 121t-89.5 118q-65 -42 -91 -78.5t-26 -95.5q0 -39 21.5 -67.5z" />
    <glyph glyph-name="quotesingle" unicode="'" horiz-adv-x="223" 
d="M76 737h71l-10 -232h-51z" />
    <glyph glyph-name="parenleft" unicode="(" horiz-adv-x="390" 
d="M121.5 134.5q-41.5 127.5 -41.5 245.5q0 117 41.5 243.5t119.5 230.5h74q-85 -109 -124.5 -230.5t-39.5 -243.5q0 -123 39 -245t125 -231h-74q-78 103 -119.5 230.5z" />
    <glyph glyph-name="parenright" unicode=")" horiz-adv-x="390" 
d="M75 -96q86 109 125 231t39 245q0 122 -39.5 243.5t-124.5 230.5h74q78 -104 119.5 -230.5t41.5 -243.5q0 -118 -41.5 -245.5t-119.5 -230.5h-74z" />
    <glyph glyph-name="asterisk" unicode="*" horiz-adv-x="618" 
d="M164 563l120 138l-183 38l23 66l168 -65l-17 180h69l-14 -180l168 65l23 -66l-183 -38l120 -138l-58 -37l-89 157l-89 -157z" />
    <glyph glyph-name="plus" unicode="+" horiz-adv-x="600" 
d="M268 294h-218v60h218v224h64v-224h218v-60h-218v-224h-64v224z" />
    <glyph glyph-name="comma" unicode="," horiz-adv-x="308" 
d="M191 86.5q12 -12.5 12 -34.5v-11q0 -35 -12 -70.5t-30 -63.5q-26 -40 -44 -40q-16 0 -28 10q27 33 42 61.5t20 61.5h-5q-19 0 -30 12t-11 32v11q0 20 11.5 32t30.5 12h12q20 0 32 -12.5z" />
    <glyph glyph-name="hyphen" unicode="-" horiz-adv-x="480" 
d="M60 337h360v-60h-360v60z" />
    <glyph glyph-name="period" unicode="." horiz-adv-x="308" 
d="M105 45v9q0 45 45 45h8q45 0 45 -45v-9q0 -45 -45 -45h-8q-45 0 -45 45z" />
    <glyph glyph-name="slash" unicode="/" horiz-adv-x="334" 
d="M280 811h64l-290 -866h-64z" />
    <glyph glyph-name="zero" unicode="0" horiz-adv-x="620" 
d="M116.5 79.5q-66.5 91.5 -66.5 258.5q0 177 66.5 274.5t193.5 97.5t193.5 -97.5t66.5 -274.5q0 -167 -66.5 -258.5t-193.5 -91.5t-193.5 91.5zM453.5 125q48.5 75 48.5 213q0 150 -48.5 230t-143.5 80q-96 0 -144 -80t-48 -230q0 -139 48 -213.5t144 -74.5q95 0 143.5 75z
" />
    <glyph glyph-name="one" unicode="1" horiz-adv-x="459" 
d="M382 55v-55h-304v55h122v562q-26 -22 -59.5 -38.5t-58.5 -16.5q-18 0 -27.5 9.5t-9.5 22.5q0 10 5 18q40 4 85 26.5t85 61.5h45v-645h117z" />
    <glyph glyph-name="two" unicode="2" horiz-adv-x="537" 
d="M400 294.5q-79 -104.5 -234 -235.5h305v-59h-419v36q129 105 206.5 183.5t115 146t37.5 133.5q0 70 -36.5 106.5t-103.5 36.5q-71 0 -110 -37.5t-47 -121.5q-29 0 -40 8t-11 28q0 50 24.5 91.5t72 65.5t111.5 24q93 0 147 -49.5t58 -150.5q3 -101 -76 -205.5z" />
    <glyph glyph-name="three" unicode="3" horiz-adv-x="550" 
d="M451.5 308.5q33.5 -39.5 33.5 -108.5q0 -98 -64 -153.5t-171 -55.5q-67 0 -117 17t-76.5 43t-26.5 53q0 19 11.5 30.5t28.5 11.5q30 -46 69.5 -71.5t113.5 -25.5q80 0 123.5 40t43.5 110q0 67 -40 100t-106 33l-32 -1q-22 -2 -35 -2q-14 0 -26 17t-12 31q0 9 7 9h89
q66 0 102 35t36 104q0 57 -38.5 87t-111.5 30q-60 0 -98.5 -26.5t-68.5 -81.5q-17 0 -28.5 10t-11.5 29q0 27 27.5 57t75.5 50t106 20q95 0 154 -46.5t59 -130.5q0 -63 -28 -103.5t-71 -57.5q49 -14 82.5 -53.5z" />
    <glyph glyph-name="four" unicode="4" horiz-adv-x="522" 
d="M331 173h-311v36q95 134 140 244.5t55 246.5q12 3 23 3q42 0 42 -53q0 -86 -51.5 -203t-121.5 -215h224v220h64v-220h101v-59h-101v-173h-64v173z" />
    <glyph glyph-name="five" unicode="5" horiz-adv-x="556" 
d="M406.5 425q50.5 -28 79 -78.5t28.5 -116.5q0 -71 -28 -125.5t-80 -84t-121 -29.5q-59 0 -107 18.5t-75 47t-27 57.5q0 33 38 41q45 -106 171 -106q79 0 121.5 49.5t42.5 127.5q0 85 -42.5 126.5t-118.5 41.5q-50 0 -86 -17.5t-66 -56.5l-49 7l24 373h345v-58h-288
l-15 -234q56 45 139 45q64 0 114.5 -28z" />
    <glyph glyph-name="six" unicode="6" horiz-adv-x="577" 
d="M408 420.5q50 -28.5 77.5 -81.5t27.5 -123q0 -63 -27 -114t-78 -80t-119 -29q-77 0 -131 38.5t-81 103t-27 143.5q0 115 45.5 213.5t121 156t159.5 57.5q50 0 50 -56q-115 0 -193.5 -71.5t-105.5 -189.5q30 25 75 43t90 18q66 0 116 -28.5zM407 98q41 46 41 118
q0 88 -41.5 131t-114.5 43q-53 0 -99 -24.5t-77 -62.5q-1 -9 -1 -25q0 -97 44 -161.5t132 -64.5q75 0 116 46z" />
    <glyph glyph-name="seven" unicode="7" horiz-adv-x="482" 
d="M456 700v-34q-110 -186 -153.5 -318.5t-51.5 -275.5l-4 -72h-32q-43 0 -42 44l1 35q4 132 58.5 279.5t147.5 283.5h-289q-42 0 -42 37q0 9 3 21h404z" />
    <glyph glyph-name="eight" unicode="8" horiz-adv-x="564" 
d="M482 282.5q31 -47.5 31 -109.5q0 -87 -62.5 -134.5t-168.5 -47.5q-105 0 -167.5 47.5t-62.5 134.5q0 64 32 112t114 76q-63 27 -94 67.5t-31 96.5q0 83 57.5 131.5t151.5 48.5q95 0 151.5 -48.5t56.5 -131.5q0 -57 -28.5 -96.5t-90.5 -67.5q80 -31 111 -78.5z
M176.5 441.5q39.5 -35.5 109.5 -56.5q78 24 109 57t31 86q0 56 -39 88t-105 32q-65 0 -105 -32t-40 -88q0 -51 39.5 -86.5zM402 82.5q46 33.5 46 90.5q0 39 -15 65.5t-50 48t-97 42.5q-88 -29 -128.5 -63.5t-40.5 -92.5q0 -57 45.5 -90.5t119.5 -33.5t120 33.5z" />
    <glyph glyph-name="nine" unicode="9" horiz-adv-x="577" 
d="M457 619q56 -81 56 -209q0 -115 -45.5 -210.5t-121 -151t-159.5 -55.5q-50 0 -50 56q115 0 193.5 68.5t105.5 183.5q-28 -23 -71 -39t-87 -16q-69 0 -120.5 27.5t-79.5 78t-28 117.5q0 65 29.5 118t80.5 83t114 30q127 0 183 -81zM374.5 326.5q42.5 21.5 72.5 58.5
q1 8 1 25q0 102 -40 166.5t-136 64.5q-75 0 -116 -49.5t-41 -122.5q0 -83 42 -123.5t121 -40.5q54 0 96.5 21.5z" />
    <glyph glyph-name="colon" unicode=":" horiz-adv-x="324" 
d="M105 407v9q0 45 45 45h8q45 0 45 -45v-9q0 -45 -45 -45h-8q-45 0 -45 45zM105 45v9q0 45 45 45h8q45 0 45 -45v-9q0 -45 -45 -45h-8q-45 0 -45 45z" />
    <glyph glyph-name="semicolon" unicode=";" horiz-adv-x="324" 
d="M191 86.5q12 -12.5 12 -34.5v-11q0 -35 -12 -70.5t-30 -63.5q-26 -40 -44 -40q-16 0 -28 10q27 33 42 61.5t20 61.5h-5q-19 0 -30 12t-11 32v11q0 20 11.5 32t30.5 12h12q20 0 32 -12.5zM105 407v9q0 45 45 45h8q45 0 45 -45v-9q0 -45 -45 -45h-8q-45 0 -45 45z" />
    <glyph glyph-name="less" unicode="&#x3c;" horiz-adv-x="600" 
d="M550 538l-426 -234l426 -236v-75l-500 279v64l500 277v-75z" />
    <glyph glyph-name="equal" unicode="=" horiz-adv-x="600" 
d="M70 465h460v-62h-460v62zM70 261h460v-62h-460v62z" />
    <glyph glyph-name="greater" unicode="&#x3e;" horiz-adv-x="600" 
d="M550 336v-64l-500 -279v75l426 236l-426 234v75z" />
    <glyph glyph-name="question" unicode="?" horiz-adv-x="475" 
d="M185 229q0 42 24 75t71 77t70.5 76t23.5 73q0 55 -35.5 86t-98.5 31q-60 0 -95.5 -33.5t-52.5 -84.5l-59 29q17 67 74.5 109t134.5 42q55 0 100 -21.5t72 -62.5t27 -96q0 -41 -14.5 -73t-35.5 -55t-55 -53q-43 -39 -64 -66.5t-21 -66.5v-26h-66v40zM171 45v9q0 45 45 45
h8q45 0 45 -45v-9q0 -45 -45 -45h-8q-45 0 -45 45z" />
    <glyph glyph-name="at" unicode="@" horiz-adv-x="834" 
d="M556 267q-5 -25 -5 -40q0 -33 29 -33q33 0 65 29t52.5 78t20.5 107q0 79 -37 138t-102 91t-146 32q-90 0 -160 -41.5t-108.5 -114t-38.5 -163.5q0 -97 40.5 -170t113 -112.5t165.5 -39.5q68 0 116 16t97 46q19 -15 19 -30q0 -20 -32.5 -38.5t-86 -30t-113.5 -11.5
q-111 0 -195.5 44t-131 128t-46.5 200q0 102 46 185.5t128 131.5t186 48q100 0 177 -39t120 -109.5t43 -162.5q0 -77 -28.5 -137t-74 -93t-94.5 -33q-28 0 -48 16t-24 44q-14 -27 -42 -43.5t-72 -16.5q-65 0 -103 43.5t-38 122.5q0 103 48 166.5t129 63.5t112 -64l8 48h54z
M457.5 215q27.5 27 42 70t14.5 90q0 59 -24 89t-66 30q-55 0 -83 -53t-28 -133q0 -120 81 -120q36 0 63.5 27z" />
    <glyph glyph-name="A" unicode="A" horiz-adv-x="620" 
d="M480 203h-340q-24 -79 -51 -203h-74q52 214 113 380.5t145 319.5h75q83 -152 144 -318.5t113 -381.5h-74q-27 124 -51 203zM463 263q-61 194 -153 364q-92 -170 -153 -364h306z" />
    <glyph glyph-name="B" unicode="B" horiz-adv-x="615" 
d="M537 300q35 -46 35 -106q0 -93 -64 -143.5t-182 -50.5h-240v700h230q104 0 164 -49.5t60 -134.5q0 -53 -25.5 -95t-67.5 -60q55 -15 90 -61zM427.5 607q-40.5 33 -111.5 33h-158v-255h155q155 0 155 131q0 58 -40.5 91zM457 91.5q43 31.5 43 102.5q0 70 -44.5 102
t-141.5 32h-156v-268h158q98 0 141 31.5z" />
    <glyph glyph-name="C" unicode="C" horiz-adv-x="596" 
d="M130.5 84q-78.5 94 -78.5 266q0 173 78 266.5t222 93.5q58 0 108 -19.5t86 -57.5q-6 -19 -17 -29t-25 -10t-26 9q-54 42 -128 42q-110 0 -167 -75t-57 -220q0 -144 57 -219t167 -75q47 0 84.5 13t74.5 43q13 -1 22 -10.5t9 -23.5q0 -23 -26.5 -43t-70 -32.5t-91.5 -12.5
q-143 0 -221.5 94z" />
    <glyph glyph-name="D" unicode="D" horiz-adv-x="672" 
d="M531.5 609.5q83.5 -90.5 83.5 -259.5q0 -108 -38.5 -187t-111 -121t-172.5 -42h-207v700h207q155 0 238.5 -90.5zM478 133.5q63 73.5 63 215.5q0 147 -61.5 219t-186.5 72h-135v-580h135q122 0 185 73.5z" />
    <glyph glyph-name="E" unicode="E" horiz-adv-x="560" 
d="M505 60q0 -36 -10.5 -48t-41.5 -12h-367v700h418v-60h-346v-252h298v-60h-298v-268h347z" />
    <glyph glyph-name="F" unicode="F" horiz-adv-x="530" 
d="M158 640v-247h297v-60h-297v-333h-72v700h412v-60h-340z" />
    <glyph glyph-name="G" unicode="G" horiz-adv-x="666" 
d="M604 373v-300q-37 -38 -98.5 -60.5t-128.5 -22.5q-155 0 -235 91.5t-80 268.5q0 173 81.5 266.5t233.5 93.5q71 0 132 -26.5t92 -70.5q-20 -35 -44 -35q-16 0 -33 14q-34 29 -69 42t-79 13q-118 0 -179 -75.5t-61 -221.5q0 -150 59.5 -223.5t180.5 -73.5q50 0 93 13
t63 35v210h-141q-20 0 -28.5 14t-8.5 48h250z" />
    <glyph glyph-name="H" unicode="H" horiz-adv-x="680" 
d="M594 700v-700h-72v330h-364v-330h-72v700h72v-310h364v310h72z" />
    <glyph glyph-name="I" unicode="I" horiz-adv-x="350" 
d="M139 700h72v-700h-72v700z" />
    <glyph glyph-name="J" unicode="J" horiz-adv-x="427" 
d="M77.5 -1.5q-35.5 8.5 -53.5 18.5q0 27 7.5 40t19.5 13q4 0 34 -9t64 -9q118 0 118 131v517h72v-517q0 -90 -51.5 -141.5t-140.5 -51.5q-34 0 -69.5 8.5z" />
    <glyph glyph-name="K" unicode="K" horiz-adv-x="610" 
d="M585 3q-20 -11 -43 -11q-18 0 -28.5 6.5t-21.5 23.5l-152 246q-23 37 -48.5 49.5t-80.5 12.5h-39v-330h-72v700h72v-308h59q18 0 27 -1l236 309h83l-255 -329q42 -23 80 -82z" />
    <glyph glyph-name="L" unicode="L" horiz-adv-x="513" 
d="M498 60v-60h-412v700h72v-640h340z" />
    <glyph glyph-name="M" unicode="M" horiz-adv-x="829" 
d="M681 0q-9 314 -57 599q-36 -82 -71 -182.5t-112 -346.5h-52q-68 216 -106.5 325.5t-77.5 200.5q-48 -273 -57 -596h-72q5 188 24.5 370t50.5 330h80q60 -129 101 -236t83 -245q42 138 83 244.5t100 236.5h80q31 -148 50.5 -330t24.5 -370h-72z" />
    <glyph glyph-name="N" unicode="N" horiz-adv-x="690" 
d="M602 64q2 -28 2 -37q0 -27 -26 -27h-50v54q0 58 -39 111l-331 436v-601h-72v700h58q13 0 20.5 -3.5t17.5 -16.5l346 -455v475h72v-563q0 -31 2 -73z" />
    <glyph glyph-name="O" unicode="O" horiz-adv-x="680" 
d="M123.5 84q-75.5 94 -75.5 270q0 172 75.5 264t216.5 92t216.5 -92t75.5 -264q0 -176 -75.5 -270t-216.5 -94t-216.5 94zM503 129.5q55 75.5 55 224.5q0 292 -218 292t-218 -292q0 -149 55 -224.5t163 -75.5t163 75.5z" />
    <glyph glyph-name="P" unicode="P" horiz-adv-x="615" 
d="M501.5 643.5q70.5 -56.5 70.5 -166.5q0 -112 -70.5 -169t-207.5 -57h-136v-251h-72v700h208q137 0 207.5 -56.5zM450.5 352.5q49.5 39.5 49.5 124.5q0 84 -49.5 122.5t-156.5 38.5h-136v-325h136q107 0 156.5 39.5z" />
    <glyph glyph-name="Q" unicode="Q" horiz-adv-x="680" 
d="M592.5 144q-39.5 -85 -114.5 -124q16 -21 62 -77q-10 -11 -24.5 -18t-30.5 -7q-26 0 -45 29l-32 49q-31 -6 -68 -6q-141 0 -216.5 94t-75.5 270q0 172 75.5 264t216.5 92t216.5 -92t75.5 -264q0 -125 -39.5 -210zM371 56l-57 93h76q23 -38 49 -74q119 59 119 279
q0 292 -218 292t-218 -292q0 -149 55 -224.5t163 -75.5q11 0 31 2z" />
    <glyph glyph-name="R" unicode="R" horiz-adv-x="629" 
d="M585 3q-20 -11 -43 -11q-18 0 -29.5 7t-20.5 23l-114 196q-24 42 -58.5 59.5t-93.5 17.5h-68v-295h-72v700h227q121 0 190 -53.5t69 -148.5q0 -75 -50 -129.5t-130 -67.5q29 -24 52 -61zM308 357q90 0 139.5 37t49.5 104q0 69 -46.5 104.5t-137.5 35.5h-155v-281h150z
" />
    <glyph glyph-name="S" unicode="S" horiz-adv-x="642" 
d="M195 11.5q-58 21.5 -92 58.5t-34 81q0 20 14.5 32.5t38.5 13.5q16 -71 68 -108t134 -37q84 0 135.5 39t51.5 102q0 37 -18.5 63t-60.5 46.5t-116 39.5q-86 23 -135 48.5t-70.5 58t-21.5 80.5q0 84 62 132.5t171 48.5q95 0 158.5 -44.5t85.5 -125.5q-13 -13 -40 -13
q-28 0 -41 27q-22 44 -66.5 70t-96.5 26q-79 0 -120 -31t-41 -90q0 -30 15 -50.5t50 -37.5t99 -35q107 -30 161.5 -57t76.5 -61t22 -89q0 -63 -32 -110.5t-91.5 -73t-139.5 -25.5q-69 0 -127 21.5z" />
    <glyph glyph-name="T" unicode="T" horiz-adv-x="534" 
d="M523 676q0 -17 -9 -26.5t-27 -9.5h-184v-640h-72v640h-216v60h504q4 -18 4 -24z" />
    <glyph glyph-name="U" unicode="U" horiz-adv-x="708" 
d="M152.5 54.5q-66.5 64.5 -66.5 196.5v449h72v-459q0 -97 48 -143t150 -46q103 0 150 45.5t47 143.5v459h72v-449q0 -134 -65 -197.5t-204 -63.5q-137 0 -203.5 64.5z" />
    <glyph glyph-name="V" unicode="V" horiz-adv-x="638" 
d="M608 700q-32 -185 -93.5 -356.5t-157.5 -343.5h-75q-97 174 -159 345.5t-93 354.5h76q51 -324 213 -621q162 297 213 621h76z" />
    <glyph glyph-name="W" unicode="W" horiz-adv-x="856" 
d="M841 700q-21 -141 -59 -292t-116 -408h-82q-69 232 -99.5 344t-51.5 207q-24 -108 -57 -229.5t-94 -321.5h-82q-78 242 -119.5 398.5t-65.5 301.5h72q19 -125 52.5 -257.5t101.5 -347.5q40 124 75.5 250.5t93.5 354.5h42q87 -316 115.5 -415t57.5 -189q65 212 97.5 345
t50.5 259h68z" />
    <glyph glyph-name="X" unicode="X" horiz-adv-x="582" 
d="M481 0q-16 96 -63 168.5t-127 153.5q-80 -81 -127 -153.5t-63 -168.5h-77q15 82 47.5 147.5t73.5 115.5t99 107q-85 85 -135 158.5t-70 171.5h75q18 -84 61.5 -147.5t115.5 -135.5q72 72 115.5 135.5t61.5 147.5h75q-20 -98 -70 -171.5t-135 -158.5q58 -57 99 -107
t73.5 -115.5t47.5 -147.5h-77z" />
    <glyph glyph-name="Y" unicode="Y" horiz-adv-x="590" 
d="M570 700l-239 -406v-294h-72v294l-239 406h78l198 -339l197 339h77z" />
    <glyph glyph-name="Z" unicode="Z" horiz-adv-x="580" 
d="M528 60v-60h-474v60l387 580h-389v60h468v-64l-382 -576h390z" />
    <glyph glyph-name="bracketleft" unicode="[" horiz-adv-x="389" 
d="M102 842h213v-50h-143v-827h143v-50h-213v927z" />
    <glyph glyph-name="backslash" unicode="\" horiz-adv-x="334" 
d="M280 -55l-290 866h64l290 -866h-64z" />
    <glyph glyph-name="bracketright" unicode="]" horiz-adv-x="389" 
d="M74 -85v50h143v827h-143v50h213v-927h-213z" />
    <glyph glyph-name="asciicircum" unicode="^" horiz-adv-x="657" 
d="M298 791h59l238 -467h-72l-198 387l-191 -387h-72z" />
    <glyph glyph-name="underscore" unicode="_" horiz-adv-x="684" 
d="M0 -102h684v-60h-684v60z" />
    <glyph glyph-name="grave" unicode="`" horiz-adv-x="243" 
d="M-4 783h83l101 -151h-66z" />
    <glyph glyph-name="a" unicode="a" horiz-adv-x="558" 
d="M483.5 64.5q7.5 -26.5 26.5 -47.5q-10 -10 -23.5 -16t-25.5 -6q-20 0 -33.5 23t-17.5 63q-31 -42 -83 -66.5t-109 -24.5q-76 0 -122 39.5t-46 103.5q0 94 91.5 147t266.5 61v32q0 66 -33.5 98.5t-101.5 32.5q-44 0 -81.5 -18.5t-80.5 -61.5q-6 -6 -15 -6q-10 0 -22 8.5
t-23 24.5q45 53 102.5 81t122.5 28q93 0 146.5 -50t53.5 -137v-236q0 -46 7.5 -72.5zM325 76q48 30 83 85v124q-288 -12 -288 -151q0 -88 103 -88q54 0 102 30z" />
    <glyph glyph-name="b" unicode="b" horiz-adv-x="610" 
d="M509.5 488q60.5 -72 60.5 -204q0 -138 -63 -216t-174 -78q-106 0 -166 63q-9 -53 -35 -53q-30 0 -50 12q19 42 19 120v659h70v-282q73 51 167 51q111 0 171.5 -72zM456.5 109.5q43.5 61.5 43.5 174.5q0 106 -42 163t-120 57q-92 0 -167 -57v-325q59 -74 162 -74
q80 0 123.5 61.5z" />
    <glyph glyph-name="c" unicode="c" horiz-adv-x="551" 
d="M107.5 66q-67.5 76 -67.5 212q0 86 30.5 149.5t87.5 98t134 34.5q92 0 151.5 -46.5t69.5 -126.5q-9 -4 -24.5 -8t-25.5 -4t-14.5 5.5t-9.5 23.5q-11 47 -50 73.5t-97 26.5q-54 0 -95.5 -28t-64 -79.5t-22.5 -118.5q0 -106 50.5 -169t135.5 -63q65 0 111 30.5t69 89.5
q14 0 23.5 -12t9.5 -28q0 -35 -29.5 -66.5t-79 -50.5t-104.5 -19q-121 0 -188.5 76z" />
    <glyph glyph-name="d" unicode="d" horiz-adv-x="598" 
d="M511 63q4 -33 10 -55q-25 -12 -46 -12q-27 0 -34 68q-33 -40 -72 -57t-96 -17q-109 0 -171 75.5t-62 207.5q0 136 66.5 211.5t185.5 75.5q37 0 78.5 -13.5t68.5 -33.5v278h68v-663q0 -32 4 -65zM368 67q39 21 71 65v315q-24 25 -65.5 42t-81.5 17q-88 0 -135 -60
t-47 -173q0 -110 43 -168.5t125 -58.5q51 0 90 21z" />
    <glyph glyph-name="e" unicode="e" horiz-adv-x="560" 
d="M518 268h-398q2 -104 46.5 -162t123.5 -58q54 0 91.5 21t62.5 67q7 13 21 13q16 0 44 -19q-22 -65 -81 -102.5t-138 -37.5q-73 0 -127.5 34.5t-83.5 99t-29 152.5q0 133 66 208.5t181 75.5q105 0 164 -65t59 -181q0 -23 -2 -46zM450 322q0 180 -156 180q-76 0 -120 -46
t-52 -134h328z" />
    <glyph glyph-name="f" unicode="f" horiz-adv-x="335" 
d="M326 771q24 -11 24 -32q0 -11 -3.5 -20.5t-8.5 -9.5q-30 15 -69 15q-42 0 -64 -26t-22 -75v-73h124v-52h-124v-498h-68v498h-103v52h103v74q0 72 38.5 115t102.5 43q46 0 70 -11z" />
    <glyph glyph-name="g" unicode="g" horiz-adv-x="585" 
d="M556.5 569.5q8.5 -9.5 8.5 -30.5q0 -6 -2 -24q-74 0 -103 -20q40 -48 40 -119q0 -192 -221 -192q-68 0 -99.5 -9.5t-31.5 -29.5q0 -45 161 -45q113 0 175 -38t62 -108q0 -75 -66.5 -115.5t-190.5 -40.5q-117 0 -178 36t-61 106q0 40 27.5 71t76.5 46v3q-30 8 -48 29.5
t-18 51.5q0 25 20 44.5t54 26.5q-43 24 -66.5 63.5t-23.5 88.5q0 196 226 196q71 0 121 -31q25 23 54.5 36.5t56.5 13.5q18 0 26.5 -9.5zM395.5 270.5q33.5 30.5 33.5 101.5q0 70 -34 102t-110 32q-74 0 -108.5 -32.5t-34.5 -101.5q0 -132 143 -132q77 0 110.5 30.5z
M164.5 15q-43.5 -23 -43.5 -67q0 -46 43 -70t125 -24q92 0 139 23.5t47 70.5q0 48 -42.5 69t-139.5 21q-85 0 -128.5 -23z" />
    <glyph glyph-name="h" unicode="h" horiz-adv-x="630" 
d="M489 510.5q50 -49.5 50 -134.5v-376h-68v369q0 65 -32 100t-92 35q-46 0 -97 -20.5t-91 -54.5v-429h-68v791h68v-297q44 32 94 49t100 17q86 0 136 -49.5z" />
    <glyph glyph-name="i" unicode="i" horiz-adv-x="288" 
d="M110 550h68v-550h-68v550zM95 696v9q0 45 45 45h8q45 0 45 -45v-9q0 -45 -45 -45h-8q-45 0 -45 45z" />
    <glyph glyph-name="j" unicode="j" horiz-adv-x="270" 
d="M-10.5 -186q-24.5 6 -35.5 17q-9 9 -9 22q0 12 5 21t11 9q32 -17 76 -17q30 0 46.5 18t16.5 54v612h68v-603q0 -68 -35 -103.5t-99 -35.5q-20 0 -44.5 6zM85 696v9q0 45 45 45h8q45 0 45 -45v-9q0 -45 -45 -45h-8q-45 0 -45 45z" />
    <glyph glyph-name="k" unicode="k" horiz-adv-x="547" 
d="M529 0q-17 0 -39 -2q-18 -2 -22 -2q-19 0 -29 16l-129 208q-29 47 -105 44l-46 -2v-262h-68v791h68v-467l39 1q21 1 36 8.5t27 23.5l150 193h84l-178 -218q-2 -2 -9 -10.5t-18 -14.5q49 -13 71 -48z" />
    <glyph glyph-name="l" unicode="l" horiz-adv-x="268" 
d="M100 791h68v-791h-68v791z" />
    <glyph glyph-name="m" unicode="m" horiz-adv-x="912" 
d="M776.5 514q44.5 -46 44.5 -119v-395h-69v392q0 58 -26 86t-79 28q-85 0 -158 -78q2 -16 2 -24v-404h-68v402q0 47 -28.5 75.5t-75.5 28.5q-43 0 -81.5 -19t-77.5 -61v-426h-68v363q0 148 -12 176q32 15 51 15q29 0 29 -58v-4q38 36 78.5 52t92.5 16q47 0 84 -21.5
t57 -58.5q43 42 87.5 61t101.5 19q71 0 115.5 -46z" />
    <glyph glyph-name="n" unicode="n" horiz-adv-x="610" 
d="M521.5 45.5q1.5 -21.5 7.5 -38.5q-24 -12 -52 -12q-15 0 -20 21.5t-5 85.5v271q0 70 -26 101.5t-84 31.5q-90 0 -184 -89v-417h-68v363q0 148 -12 176q32 15 51 15q29 0 29 -58v-9q46 38 92.5 55.5t98.5 17.5q86 0 128.5 -46.5t42.5 -141.5v-244q0 -61 1.5 -82.5z" />
    <glyph glyph-name="o" unicode="o" horiz-adv-x="548" 
d="M99 62q-59 72 -59 214q0 284 234 284t234 -284q0 -142 -59 -214t-175 -72t-175 72zM398.5 101.5q39.5 55.5 39.5 174.5q0 118 -39.5 173t-124.5 55t-124.5 -55t-39.5 -173q0 -119 39.5 -174.5t124.5 -55.5t124.5 55.5z" />
    <glyph glyph-name="p" unicode="p" horiz-adv-x="598" 
d="M499 486.5q59 -73.5 59 -210.5q0 -87 -30.5 -151.5t-88 -99.5t-134.5 -35q-38 0 -76.5 7.5t-68.5 19.5v-237h-68v583q0 148 -12 176q32 15 51 15q29 0 29 -58v-4q33 33 76.5 50.5t91.5 17.5q112 0 171 -73.5zM438.5 106q47.5 60 47.5 170q0 228 -158 228q-46 0 -89.5 -21
t-78.5 -60v-347q62 -30 145 -30q86 0 133.5 60z" />
    <glyph glyph-name="q" unicode="q" horiz-adv-x="608" 
d="M503.5 551q9.5 -3 22.5 -12q-7 -19 -13 -73.5t-6 -103.5v-582h-68v252q-44 -25 -77.5 -33.5t-86.5 -8.5q-110 0 -172.5 76.5t-62.5 211.5q0 131 63 206.5t173 75.5q54 0 92.5 -13.5t75.5 -46.5q9 54 36 54q14 0 23.5 -3zM372 53.5q35 11.5 67 36.5v340q-62 77 -158 77
q-82 0 -126 -59t-44 -170q0 -119 45 -177.5t136 -58.5q45 0 80 11.5z" />
    <glyph glyph-name="r" unicode="r" horiz-adv-x="400" 
d="M359.5 545.5q18.5 -11.5 18.5 -34.5q0 -16 -11 -29q-24 13 -66 13q-67 0 -107.5 -53t-40.5 -139v-303h-68v550h68v-99q23 46 65 76t88 30q35 0 53.5 -11.5z" />
    <glyph glyph-name="s" unicode="s" horiz-adv-x="485" 
d="M152 5q-48 15 -80 40t-32 53q0 13 8.5 23.5t21.5 14.5q36 -47 78 -68.5t101 -21.5q63 0 95.5 29t32.5 77q0 32 -19.5 52t-48 30t-78.5 23q-58 15 -93.5 29t-60 42.5t-24.5 76.5q0 51 27 86t69 52t86 17q63 0 114.5 -25t80.5 -73q-24 -25 -41 -25q-13 0 -25 14
q-24 28 -55.5 41.5t-76.5 13.5q-51 0 -81 -24t-30 -74q0 -29 18 -47t45 -27.5t74 -21.5q60 -14 97.5 -29t63.5 -46.5t26 -84.5q0 -74 -54.5 -118t-145.5 -44q-45 0 -93 15z" />
    <glyph glyph-name="t" unicode="t" horiz-adv-x="374" 
d="M353.5 52.5q4.5 -9.5 4.5 -19.5q0 -19 -16 -27q-32 -16 -83 -16q-65 0 -104 35.5t-39 95.5v375h-104v54h104v150h68v-150h144v-54h-144v-362q0 -84 72 -84q46 0 86 17q7 -5 11.5 -14.5z" />
    <glyph glyph-name="u" unicode="u" horiz-adv-x="610" 
d="M532 7q-21 -12 -43 -12q-21 0 -30.5 17.5t-10.5 63.5q-28 -39 -79 -62.5t-110 -23.5q-169 0 -169 185v375h68v-368q0 -73 27 -105.5t86 -32.5q53 0 99.5 27t77.5 76v403h69v-437q0 -58 15 -106z" />
    <glyph glyph-name="v" unicode="v" horiz-adv-x="485" 
d="M469 550q-12 -154 -59 -287.5t-135 -262.5h-65q-88 129 -135 262.5t-59 287.5h68q14 -145 51.5 -257.5t107.5 -218.5q70 106 107 218.5t51 257.5h68z" />
    <glyph glyph-name="w" unicode="w" horiz-adv-x="760" 
d="M722 550q-40 -304 -152 -550h-62q-52 114 -82.5 208t-47.5 196q-18 -104 -49 -198.5t-83 -205.5h-64q-53 113 -88.5 244t-60.5 306h70q17 -146 43.5 -255.5t69.5 -203.5q96 197 130 459h66q36 -271 129 -461q87 208 103 461h78z" />
    <glyph glyph-name="x" unicode="x" horiz-adv-x="484" 
d="M377 191q35 -40 60.5 -88.5t30.5 -102.5h-74q-6 64 -44.5 119t-107.5 122q-69 -67 -107.5 -122t-44.5 -119h-74q5 54 30.5 102.5t60.5 88.5t90 94q-77 74 -119.5 134t-49.5 131h74q6 -57 42 -109.5t98 -112.5q62 60 98 112.5t42 109.5h74q-7 -71 -49.5 -131t-119.5 -134
q55 -54 90 -94z" />
    <glyph glyph-name="y" unicode="y" horiz-adv-x="485" 
d="M474 550l-213 -592q-28 -79 -70.5 -115.5t-107.5 -36.5q-38 0 -60 11.5t-22 30.5q0 20 17 32q10 -7 30.5 -12t40.5 -5q41 0 70.5 36t50.5 110l-196 541h72l159 -443l157 443h72z" />
    <glyph glyph-name="z" unicode="z" horiz-adv-x="500" 
d="M470 58v-58h-440v48l340 444h-314v58h406v-47l-340 -445h348z" />
    <glyph glyph-name="braceleft" unicode="{" horiz-adv-x="364" 
d="M147.5 -57q-33.5 34 -33.5 92v213q0 37 -15 59.5t-51 29.5v37q36 7 51 30t15 60v213q0 58 33.5 91.5t82.5 33.5h48v-50h-35q-64 0 -64 -72v-206q0 -54 -18.5 -80.5t-57.5 -36.5v-3q39 -9 57.5 -36t18.5 -80v-206q0 -72 64 -72h35v-51h-48q-49 0 -82.5 34z" />
    <glyph glyph-name="bar" unicode="|" horiz-adv-x="243" 
d="M92 802h59v-814h-59v814z" />
    <glyph glyph-name="braceright" unicode="}" horiz-adv-x="364" 
d="M86 -91v51h35q64 0 64 72v206q0 53 18.5 80t57.5 36v3q-39 10 -57.5 36.5t-18.5 80.5v206q0 72 -64 72h-35v50h48q49 0 82.5 -33.5t33.5 -91.5v-213q0 -37 15 -60t51 -30v-37q-36 -7 -51 -29.5t-15 -59.5v-213q0 -58 -33.5 -92t-82.5 -34h-48z" />
    <glyph glyph-name="asciitilde" unicode="~" horiz-adv-x="600" 
d="M50 261q54 95 148 95q32 0 56 -10.5t55 -31.5q29 -20 51 -29.5t51 -9.5q38 0 58.5 20t36.5 61l44 -36q-11 -47 -47.5 -77t-94.5 -30q-32 0 -56 10.5t-58 32.5q-31 19 -51.5 28.5t-46.5 9.5q-33 0 -57 -21.5t-44 -59.5z" />
    <glyph glyph-name="uni00A0" unicode="&#xa0;" horiz-adv-x="258" 
 />
    <glyph glyph-name="exclamdown" unicode="&#xa1;" horiz-adv-x="243" 
d="M172 515v-9q0 -45 -45 -45h-8q-45 0 -45 45v9q0 45 45 45h8q45 0 45 -45zM166 -140h-86l15 494h56z" />
    <glyph glyph-name="cent" unicode="&#xa2;" horiz-adv-x="547" 
d="M499.5 154q9.5 -12 9.5 -28q0 -35 -29.5 -66.5t-79 -50.5t-104.5 -19q-44 0 -83 11l-27 -81h-60l34 103q-58 34 -89 99t-31 156q0 86 30.5 149.5t87.5 98t134 34.5q24 0 45 -3l27 81h59l-31 -95q51 -20 82.5 -60.5t38.5 -95.5q-9 -4 -24.5 -8t-25.5 -4t-14.5 5.5
t-9.5 23.5q-13 57 -66 83l-142 -430q31 -11 65 -11q65 0 111 30.5t69 89.5q14 0 23.5 -12zM128.5 166.5q18.5 -49.5 52.5 -79.5l138 415q-18 2 -27 2q-54 0 -95.5 -28t-64 -79.5t-22.5 -118.5q0 -62 18.5 -111.5z" />
    <glyph glyph-name="sterling" unicode="&#xa3;" horiz-adv-x="609" 
d="M518 161q-12 -80 -62.5 -125.5t-121.5 -45.5q-61 0 -103.5 15t-85.5 48q-46 -44 -129 -63v69q63 17 92.5 55.5t29.5 104.5q0 34 -11 98h-113v58h103q-6 34 -11 69.5t-5 62.5q0 61 26 107t72.5 71t105.5 25q84 0 140 -44t71 -126q-22 -17 -45 -17q-19 0 -28 27
q-16 49 -48 75.5t-90 26.5q-69 0 -103.5 -38.5t-34.5 -109.5q0 -48 15 -129h172v-58h-161q11 -64 11 -99q0 -73 -26 -120q32 -23 71 -36.5t75 -13.5q51 0 84 27t48 98z" />
    <glyph glyph-name="currency" unicode="&#xa4;" horiz-adv-x="609" 
d="M33 122l59 59q-59 67 -59 172q0 98 59 170l-59 59l40 42l62 -61q36 30 79 45.5t90 15.5q95 0 170 -61l60 61l42 -42l-59 -59q59 -72 59 -170q0 -105 -59 -172l59 -59l-42 -41l-60 59q-77 -59 -170 -59q-96 0 -169 59l-62 -59zM408 172.5q46 26.5 72 73.5t26 107t-26 107
t-72 73.5t-104 26.5t-103.5 -26.5t-71.5 -73.5t-26 -107t26 -107t71.5 -73.5t103.5 -26.5t104 26.5z" />
    <glyph glyph-name="yen" unicode="&#xa5;" horiz-adv-x="590" 
d="M379 376h133v-56h-166l-15 -26v-70h181v-56h-181v-168h-72v168h-181v56h181v70l-15 26h-166v56h133l-191 324h78l198 -339l197 339h77z" />
    <glyph glyph-name="brokenbar" unicode="&#xa6;" horiz-adv-x="243" 
d="M92 802h59v-307h-59v307zM92 295h59v-307h-59v307z" />
    <glyph glyph-name="section" unicode="&#xa7;" horiz-adv-x="480" 
d="M340.5 324.5q-18.5 29.5 -59.5 48.5l-133 62q-87 41 -87 122q0 45 24 79.5t63.5 52.5t86.5 18q80 0 129 -39.5t54 -102.5l-64 -9q-10 93 -119 93t-109 -92q0 -27 13.5 -45t44.5 -32l142 -66q48 -22 73 -65t25 -95h-65q0 41 -18.5 70.5zM115 -48.5q-49 39.5 -54 102.5
l64 9q10 -93 119 -93t109 92q0 27 -13.5 45t-44.5 32l-142 66q-48 22 -73 65t-25 95h65q0 -41 18.5 -70.5t59.5 -48.5l133 -62q87 -41 87 -122q0 -45 -24 -79.5t-63.5 -52.5t-86.5 -18q-80 0 -129 39.5z" />
    <glyph glyph-name="dieresis" unicode="&#xa8;" horiz-adv-x="302" 
d="M0 684v9q0 45 45 45h8q45 0 45 -45v-9q0 -45 -45 -45h-8q-45 0 -45 45zM204 684v9q0 45 45 45h8q45 0 45 -45v-9q0 -45 -45 -45h-8q-45 0 -45 45z" />
    <glyph glyph-name="copyright" unicode="&#xa9;" horiz-adv-x="774" 
d="M201 36q-82 46 -128 128t-46 186t46 186t128 128t186 46t186 -46t128 -128t46 -186t-46 -186t-128 -128t-186 -46t-186 46zM543 78.5q69 39.5 108 110.5t39 161t-39 161t-108 110.5t-156 39.5t-156 -39.5t-107.5 -110.5t-38.5 -161t38.5 -161t107.5 -110.5t156 -39.5
t156 39.5zM296 159.5q-45 27.5 -70 77t-25 114.5q0 98 53 157t141 59q134 0 172 -125l-50 -19q-13 46 -41.5 70.5t-79.5 24.5q-69 0 -103.5 -45t-34.5 -122q0 -73 37.5 -121.5t103.5 -48.5q83 0 115 79l50 -19q-47 -109 -165 -109q-58 0 -103 27.5z" />
    <glyph glyph-name="ordfeminine" unicode="&#xaa;" horiz-adv-x="380" 
d="M334.5 403.5q1.5 -15.5 5.5 -33.5q-12 -10 -29 -10q-31 0 -33 56q-21 -27 -49.5 -42t-73.5 -15q-48 0 -78.5 25t-30.5 67q0 52 31.5 79.5t80.5 36.5t120 10v7q0 83 -81 83q-29 0 -46.5 -9t-37.5 -25q-10 -9 -15.5 -11.5t-13.5 -2.5q-12 0 -20 7.5t-10 19.5q24 33 60 49.5
t89 16.5q52 0 91 -33t39 -96v-137q0 -27 1.5 -42.5zM230 423q33 20 48 48v64q-54 -1 -90.5 -5.5t-61.5 -22.5t-25 -54q0 -27 15.5 -38.5t45.5 -11.5q35 0 68 20z" />
    <glyph glyph-name="guillemotleft" unicode="&#xab;" horiz-adv-x="500" 
d="M225 288l128 164h62l-119 -164l119 -171h-62zM70 288l128 164h62l-119 -164l119 -171h-62z" />
    <glyph glyph-name="logicalnot" unicode="&#xac;" horiz-adv-x="600" 
d="M478 307h-428v60h490v-250h-62v190z" />
    <glyph glyph-name="uni00AD" unicode="&#xad;" horiz-adv-x="380" 
d="M40 337h300v-60h-300v60z" />
    <glyph glyph-name="registered" unicode="&#xae;" horiz-adv-x="774" 
d="M568.5 661q82.5 -49 130.5 -131.5t48 -179.5t-48 -179.5t-130.5 -131.5t-181.5 -49q-98 0 -180.5 49t-131 131.5t-48.5 179.5t48.5 179.5t131 131.5t180.5 49q99 0 181.5 -49zM541.5 80.5q69.5 41.5 109 112.5t39.5 157t-39.5 157t-109 112.5t-154.5 41.5
q-84 0 -153 -41.5t-109 -113t-40 -156.5t40 -156.5t109 -113t153 -41.5q85 0 154.5 41.5zM529.5 340.5q-26.5 -30.5 -70.5 -39.5l94 -156h-62l-87 152h-92v-152h-57v398h163q138 0 138 -123q0 -49 -26.5 -79.5zM474 363.5q23 19.5 23 57.5q0 75 -92 75h-93v-152h89
q50 0 73 19.5z" />
    <glyph glyph-name="macron" unicode="&#xaf;" horiz-adv-x="243" 
d="M-42 714h326v-60h-326v60z" />
    <glyph glyph-name="degree" unicode="&#xb0;" horiz-adv-x="438" 
d="M137.5 503q-36.5 22 -57.5 58.5t-21 80.5q0 43 21 80t57.5 58.5t81.5 21.5t81.5 -21.5t57.5 -58.5t21 -80q0 -44 -21 -80.5t-57.5 -58.5t-81.5 -22t-81.5 22zM297.5 560.5q30.5 32.5 30.5 81.5t-30.5 81t-78.5 32t-79 -32.5t-31 -80.5q0 -49 31 -81.5t79 -32.5t78.5 32.5
z" />
    <glyph glyph-name="plusminus" unicode="&#xb1;" horiz-adv-x="600" 
d="M270 348h-230v59h230v222h61v-222h229v-59h-229v-223h-61v223zM40 59h520v-59h-520v59z" />
    <glyph glyph-name="uni00B2" unicode="&#xb2;" horiz-adv-x="333" 
d="M310 332v-50h-288v42q76 51 123 87t78.5 79t31.5 90q0 39 -23 59.5t-65 20.5q-43 0 -68.5 -22t-29.5 -66q-20 0 -31 8t-11 20q0 29 17.5 54.5t49.5 40.5t71 15q67 0 105.5 -34t38.5 -101q0 -68 -53 -124t-143 -119h197z" />
    <glyph glyph-name="uni00B3" unicode="&#xb3;" horiz-adv-x="351" 
d="M310 471.5q20 -25.5 20 -65.5q0 -59 -41.5 -93.5t-114.5 -34.5q-40 0 -74 10.5t-54 27.5t-20 34q0 13 8 20t20 7q27 -27 52.5 -40t70.5 -13q48 0 73 21.5t25 60.5q0 35 -23.5 54.5t-63.5 19.5q-11 0 -22.5 -1t-20.5 -1q-11 0 -17.5 14.5t-6.5 27.5q0 7 6 7h53q43 0 62 20
t19 51q0 67 -80 67q-40 0 -64 -15t-44 -49q-10 0 -20 8.5t-10 21.5q0 21 17.5 39t48.5 29t70 11q62 0 99 -29.5t37 -82.5q0 -29 -13.5 -53t-43.5 -37q32 -11 52 -36.5z" />
    <glyph glyph-name="acute" unicode="&#xb4;" horiz-adv-x="243" 
d="M174 783h85l-131 -151h-66z" />
    <glyph glyph-name="paragraph" unicode="&#xb6;" horiz-adv-x="550" 
d="M243 328q-62 0 -113 28t-80.5 75.5t-29.5 103.5q0 103 62.5 159t178.5 56h289v-49h-77v-701h-60v701h-110v-701h-60v328z" />
    <glyph glyph-name="periodcentered" unicode="&#xb7;" horiz-adv-x="308" 
d="M105 283v9q0 45 45 45h8q45 0 45 -45v-9q0 -45 -45 -45h-8q-45 0 -45 45z" />
    <glyph glyph-name="cedilla" unicode="&#xb8;" horiz-adv-x="243" 
d="M194 -76q26 -21 26 -60q0 -44 -35 -68.5t-86 -24.5q-45 0 -69 11t-24 31q0 6 3 14q41 -11 84 -11q30 0 47 12.5t17 33.5q0 15 -13.5 26.5t-37.5 11.5q-19 0 -40 -7l-17 32l57 75h58l-45 -55h7q42 0 68 -21z" />
    <glyph glyph-name="uni00B9" unicode="&#xb9;" horiz-adv-x="379" 
d="M302 330v-48h-226v48h90v312q-40 -36 -72 -36q-18 0 -26.5 10.5t-8.5 28.5q30 3 63 21t57 44h39v-380h84z" />
    <glyph glyph-name="ordmasculine" unicode="&#xba;" horiz-adv-x="380" 
d="M76 405.5q-40 48.5 -40 127.5q0 80 40 128.5t115 48.5q74 0 113.5 -48.5t39.5 -128.5q0 -79 -39.5 -127.5t-113.5 -48.5q-75 0 -115 48.5zM263.5 433.5q24.5 31.5 24.5 99.5q0 132 -97 132q-99 0 -99 -132q0 -131 99 -131q48 0 72.5 31.5z" />
    <glyph glyph-name="guillemotright" unicode="&#xbb;" horiz-adv-x="500" 
d="M85 117l119 171l-119 164h62l128 -164l-128 -171h-62zM240 117l119 171l-119 164h62l128 -164l-128 -171h-62z" />
    <glyph glyph-name="onequarter" unicode="&#xbc;" horiz-adv-x="1016" 
d="M302 330v-48h-226v48h90v312q-40 -36 -72 -36q-18 0 -26.5 10.5t-8.5 28.5q30 3 63 21t57 44h39v-380h84zM632 700h52l-308 -700h-52zM985 98h-60v-98h-52v98h-211v24q57 81 88 150.5t37 150.5q5 2 16 2q14 0 24 -8t10 -25q0 -53 -30 -122t-71 -124h137v129h52v-129h60
v-48z" />
    <glyph glyph-name="onehalf" unicode="&#xbd;" horiz-adv-x="962" 
d="M302 330v-48h-226v48h90v312q-40 -36 -72 -36q-18 0 -26.5 10.5t-8.5 28.5q30 3 63 21t57 44h39v-380h84zM632 700h52l-308 -700h-52zM939 51v-50h-288v42q76 51 123 87t78.5 79t31.5 90q0 39 -23 59.5t-65 20.5q-43 0 -68.5 -22t-29.5 -66q-20 0 -31 8t-11 20
q0 29 17.5 54.5t49.5 40.5t71 15q67 0 105.5 -34t38.5 -101q0 -68 -53 -124t-143 -119h197z" />
    <glyph glyph-name="threequarters" unicode="&#xbe;" horiz-adv-x="988" 
d="M310 471.5q20 -25.5 20 -65.5q0 -59 -41.5 -93.5t-114.5 -34.5q-40 0 -74 10.5t-54 27.5t-20 34q0 13 8 20t20 7q27 -27 52.5 -40t70.5 -13q48 0 73 21.5t25 60.5q0 35 -23.5 54.5t-63.5 19.5q-11 0 -22.5 -1t-20.5 -1q-11 0 -17.5 14.5t-6.5 27.5q0 7 6 7h53q43 0 62 20
t19 51q0 67 -80 67q-40 0 -64 -15t-44 -49q-10 0 -20 8.5t-10 21.5q0 21 17.5 39t48.5 29t70 11q62 0 99 -29.5t37 -82.5q0 -29 -13.5 -53t-43.5 -37q32 -11 52 -36.5zM604 700h52l-308 -700h-52zM957 98h-60v-98h-52v98h-211v24q57 81 88 150.5t37 150.5q5 2 16 2
q14 0 24 -8t10 -25q0 -53 -30 -122t-71 -124h137v129h52v-129h60v-48z" />
    <glyph glyph-name="questiondown" unicode="&#xbf;" horiz-adv-x="475" 
d="M304 507v-9q0 -45 -45 -45h-8q-45 0 -45 45v9q0 45 45 45h8q45 0 45 -45zM290 323q0 -42 -24 -75t-71 -77t-70.5 -76t-23.5 -73q0 -55 35.5 -86t98.5 -31q60 0 95.5 33.5t52.5 84.5l59 -29q-17 -67 -74.5 -109t-134.5 -42q-55 0 -100 21.5t-72 62.5t-27 96q0 41 14.5 73
t35.5 55t55 53q43 39 64 66.5t21 66.5v26h66v-40z" />
    <glyph glyph-name="Agrave" unicode="&#xc0;" horiz-adv-x="620" 
d="M480 203h-340q-24 -79 -51 -203h-74q52 214 113 380.5t145 319.5h75q83 -152 144 -318.5t113 -381.5h-74q-27 124 -51 203zM463 263q-61 194 -153 364q-92 -170 -153 -364h306zM192 893h83l101 -151h-66z" />
    <glyph glyph-name="Aacute" unicode="&#xc1;" horiz-adv-x="620" 
d="M480 203h-340q-24 -79 -51 -203h-74q52 214 113 380.5t145 319.5h75q83 -152 144 -318.5t113 -381.5h-74q-27 124 -51 203zM463 263q-61 194 -153 364q-92 -170 -153 -364h306zM357 893h85l-131 -151h-66z" />
    <glyph glyph-name="Acircumflex" unicode="&#xc2;" horiz-adv-x="620" 
d="M480 203h-340q-24 -79 -51 -203h-74q52 214 113 380.5t145 319.5h75q83 -152 144 -318.5t113 -381.5h-74q-27 124 -51 203zM463 263q-61 194 -153 364q-92 -170 -153 -364h306zM274 875h73l111 -133h-64l-83 83l-85 -83h-64z" />
    <glyph glyph-name="Atilde" unicode="&#xc3;" horiz-adv-x="620" 
d="M480 203h-340q-24 -79 -51 -203h-74q52 214 113 380.5t145 319.5h75q83 -152 144 -318.5t113 -381.5h-74q-27 124 -51 203zM463 263q-61 194 -153 364q-92 -170 -153 -364h306zM161 772q0 36 24.5 56t62.5 20q22 0 38.5 -6.5t36.5 -18.5q15 -10 26 -14.5t24 -4.5
q41 0 48 47q19 0 29.5 -8.5t10.5 -21.5q0 -29 -23 -50t-62 -21q-23 0 -40 6.5t-38 18.5q-16 10 -28 14.5t-26 4.5q-39 0 -47 -46q-36 0 -36 24z" />
    <glyph glyph-name="Adieresis" unicode="&#xc4;" horiz-adv-x="620" 
d="M480 203h-340q-24 -79 -51 -203h-74q52 214 113 380.5t145 319.5h75q83 -152 144 -318.5t113 -381.5h-74q-27 124 -51 203zM463 263q-61 194 -153 364q-92 -170 -153 -364h306zM160 794v9q0 45 45 45h8q45 0 45 -45v-9q0 -45 -45 -45h-8q-45 0 -45 45zM364 794v9
q0 45 45 45h8q45 0 45 -45v-9q0 -45 -45 -45h-8q-45 0 -45 45z" />
    <glyph glyph-name="Aring" unicode="&#xc5;" horiz-adv-x="620" 
d="M480 203h-340q-24 -79 -51 -203h-74q52 214 113 380.5t145 319.5h75q83 -152 144 -318.5t113 -381.5h-74q-27 124 -51 203zM463 263q-61 194 -153 364q-92 -170 -153 -364h306zM232 769q-32 31 -32 78t32 78.5t78 31.5t78 -31.5t32 -78.5t-32 -78t-78 -31t-78 31z
M354 803q18 18 18 44q0 28 -17.5 45t-44.5 17t-45 -17t-18 -45q0 -26 18 -44t45 -18q26 0 44 18z" />
    <glyph glyph-name="AE" unicode="&#xc6;" horiz-adv-x="930" 
d="M535 640v-237h297v-60h-297v-283h335q0 -36 -10.5 -48t-41.5 -12h-348v206h-318q-45 -110 -63 -206h-74q38 188 144 373.5t266 326.5h450v-60h-340zM470 266v374h-9q-82 -69 -155 -166.5t-126 -207.5h290z" />
    <glyph glyph-name="Ccedilla" unicode="&#xc7;" horiz-adv-x="596" 
d="M531 101.5q9 -9.5 9 -23.5q0 -31 -47.5 -56.5t-113.5 -30.5l-38 -46h7q42 0 68 -21t26 -60q0 -44 -35 -68.5t-86 -24.5q-45 0 -69 11t-24 31q0 6 3 14q41 -11 84 -11q30 0 47 12.5t17 33.5q0 15 -13.5 26.5t-37.5 11.5q-19 0 -40 -7l-17 32l50 66q-129 11 -199 104
t-70 255q0 173 78 266.5t222 93.5q58 0 108 -19.5t86 -57.5q-6 -19 -17 -29t-25 -10t-26 9q-54 42 -128 42q-110 0 -167 -75t-57 -220q0 -144 57 -219t167 -75q47 0 84.5 13t74.5 43q13 -1 22 -10.5z" />
    <glyph glyph-name="Egrave" unicode="&#xc8;" horiz-adv-x="560" 
d="M505 60q0 -36 -10.5 -48t-41.5 -12h-367v700h418v-60h-346v-252h298v-60h-298v-268h347zM162 893h83l101 -151h-66z" />
    <glyph glyph-name="Eacute" unicode="&#xc9;" horiz-adv-x="560" 
d="M505 60q0 -36 -10.5 -48t-41.5 -12h-367v700h418v-60h-346v-252h298v-60h-298v-268h347zM327 893h85l-131 -151h-66z" />
    <glyph glyph-name="Ecircumflex" unicode="&#xca;" horiz-adv-x="560" 
d="M505 60q0 -36 -10.5 -48t-41.5 -12h-367v700h418v-60h-346v-252h298v-60h-298v-268h347zM244 875h73l111 -133h-64l-83 83l-85 -83h-64z" />
    <glyph glyph-name="Edieresis" unicode="&#xcb;" horiz-adv-x="560" 
d="M505 60q0 -36 -10.5 -48t-41.5 -12h-367v700h418v-60h-346v-252h298v-60h-298v-268h347zM130 794v9q0 45 45 45h8q45 0 45 -45v-9q0 -45 -45 -45h-8q-45 0 -45 45zM334 794v9q0 45 45 45h8q45 0 45 -45v-9q0 -45 -45 -45h-8q-45 0 -45 45z" />
    <glyph glyph-name="Igrave" unicode="&#xcc;" horiz-adv-x="350" 
d="M139 700h72v-700h-72v700zM57 893h83l101 -151h-66z" />
    <glyph glyph-name="Iacute" unicode="&#xcd;" horiz-adv-x="350" 
d="M139 700h72v-700h-72v700zM222 893h85l-131 -151h-66z" />
    <glyph glyph-name="Icircumflex" unicode="&#xce;" horiz-adv-x="350" 
d="M139 700h72v-700h-72v700zM139 875h73l111 -133h-64l-83 83l-85 -83h-64z" />
    <glyph glyph-name="Idieresis" unicode="&#xcf;" horiz-adv-x="350" 
d="M139 700h72v-700h-72v700zM25 794v9q0 45 45 45h8q45 0 45 -45v-9q0 -45 -45 -45h-8q-45 0 -45 45zM229 794v9q0 45 45 45h8q45 0 45 -45v-9q0 -45 -45 -45h-8q-45 0 -45 45z" />
    <glyph glyph-name="Eth" unicode="&#xd0;" horiz-adv-x="672" 
d="M531.5 609.5q83.5 -90.5 83.5 -259.5q0 -108 -38.5 -187t-111 -121t-172.5 -42h-207v327h-85v57h85v316h207q155 0 238.5 -90.5zM478 133.5q63 73.5 63 215.5q0 147 -61.5 219t-186.5 72h-135v-256h188v-57h-188v-267h135q122 0 185 73.5z" />
    <glyph glyph-name="Ntilde" unicode="&#xd1;" horiz-adv-x="690" 
d="M602 64q2 -28 2 -37q0 -27 -26 -27h-50v54q0 58 -39 111l-331 436v-601h-72v700h58q13 0 20.5 -3.5t17.5 -16.5l346 -455v475h72v-563q0 -31 2 -73zM195 772q0 36 24.5 56t62.5 20q22 0 38.5 -6.5t36.5 -18.5q15 -10 26 -14.5t24 -4.5q41 0 48 47q19 0 29.5 -8.5
t10.5 -21.5q0 -29 -23 -50t-62 -21q-23 0 -40 6.5t-38 18.5q-16 10 -28 14.5t-26 4.5q-39 0 -47 -46q-36 0 -36 24z" />
    <glyph glyph-name="Ograve" unicode="&#xd2;" horiz-adv-x="680" 
d="M123.5 84q-75.5 94 -75.5 270q0 172 75.5 264t216.5 92t216.5 -92t75.5 -264q0 -176 -75.5 -270t-216.5 -94t-216.5 94zM503 129.5q55 75.5 55 224.5q0 292 -218 292t-218 -292q0 -149 55 -224.5t163 -75.5t163 75.5zM222 893h83l101 -151h-66z" />
    <glyph glyph-name="Oacute" unicode="&#xd3;" horiz-adv-x="680" 
d="M123.5 84q-75.5 94 -75.5 270q0 172 75.5 264t216.5 92t216.5 -92t75.5 -264q0 -176 -75.5 -270t-216.5 -94t-216.5 94zM503 129.5q55 75.5 55 224.5q0 292 -218 292t-218 -292q0 -149 55 -224.5t163 -75.5t163 75.5zM387 893h85l-131 -151h-66z" />
    <glyph glyph-name="Ocircumflex" unicode="&#xd4;" horiz-adv-x="680" 
d="M123.5 84q-75.5 94 -75.5 270q0 172 75.5 264t216.5 92t216.5 -92t75.5 -264q0 -176 -75.5 -270t-216.5 -94t-216.5 94zM503 129.5q55 75.5 55 224.5q0 292 -218 292t-218 -292q0 -149 55 -224.5t163 -75.5t163 75.5zM304 875h73l111 -133h-64l-83 83l-85 -83h-64z" />
    <glyph glyph-name="Otilde" unicode="&#xd5;" horiz-adv-x="680" 
d="M123.5 84q-75.5 94 -75.5 270q0 172 75.5 264t216.5 92t216.5 -92t75.5 -264q0 -176 -75.5 -270t-216.5 -94t-216.5 94zM503 129.5q55 75.5 55 224.5q0 292 -218 292t-218 -292q0 -149 55 -224.5t163 -75.5t163 75.5zM191 772q0 36 24.5 56t62.5 20q22 0 38.5 -6.5
t36.5 -18.5q15 -10 26 -14.5t24 -4.5q41 0 48 47q19 0 29.5 -8.5t10.5 -21.5q0 -29 -23 -50t-62 -21q-23 0 -40 6.5t-38 18.5q-16 10 -28 14.5t-26 4.5q-39 0 -47 -46q-36 0 -36 24z" />
    <glyph glyph-name="Odieresis" unicode="&#xd6;" horiz-adv-x="680" 
d="M123.5 84q-75.5 94 -75.5 270q0 172 75.5 264t216.5 92t216.5 -92t75.5 -264q0 -176 -75.5 -270t-216.5 -94t-216.5 94zM503 129.5q55 75.5 55 224.5q0 292 -218 292t-218 -292q0 -149 55 -224.5t163 -75.5t163 75.5zM190 794v9q0 45 45 45h8q45 0 45 -45v-9
q0 -45 -45 -45h-8q-45 0 -45 45zM394 794v9q0 45 45 45h8q45 0 45 -45v-9q0 -45 -45 -45h-8q-45 0 -45 45z" />
    <glyph glyph-name="multiply" unicode="&#xd7;" horiz-adv-x="600" 
d="M102 168l156 156l-156 156l42 42l156 -156l156 156l42 -42l-156 -156l156 -156l-42 -42l-156 156l-156 -156z" />
    <glyph glyph-name="Oslash" unicode="&#xd8;" horiz-adv-x="680" 
d="M632 354q0 -176 -75.5 -270t-216.5 -94q-109 0 -181 58l-34 -48h-72l65 92q-70 93 -70 262q0 172 75.5 264t216.5 92q108 0 177 -54l32 45h72l-61 -87q72 -92 72 -260zM162 154l316 446q-52 46 -138 46q-218 0 -218 -292q0 -127 40 -200zM503 129.5q55 75.5 55 224.5
q0 127 -42 199l-317 -448q52 -51 141 -51q108 0 163 75.5z" />
    <glyph glyph-name="Ugrave" unicode="&#xd9;" horiz-adv-x="708" 
d="M152.5 54.5q-66.5 64.5 -66.5 196.5v449h72v-459q0 -97 48 -143t150 -46q103 0 150 45.5t47 143.5v459h72v-449q0 -134 -65 -197.5t-204 -63.5q-137 0 -203.5 64.5zM236 893h83l101 -151h-66z" />
    <glyph glyph-name="Uacute" unicode="&#xda;" horiz-adv-x="708" 
d="M152.5 54.5q-66.5 64.5 -66.5 196.5v449h72v-459q0 -97 48 -143t150 -46q103 0 150 45.5t47 143.5v459h72v-449q0 -134 -65 -197.5t-204 -63.5q-137 0 -203.5 64.5zM401 893h85l-131 -151h-66z" />
    <glyph glyph-name="Ucircumflex" unicode="&#xdb;" horiz-adv-x="708" 
d="M152.5 54.5q-66.5 64.5 -66.5 196.5v449h72v-459q0 -97 48 -143t150 -46q103 0 150 45.5t47 143.5v459h72v-449q0 -134 -65 -197.5t-204 -63.5q-137 0 -203.5 64.5zM318 875h73l111 -133h-64l-83 83l-85 -83h-64z" />
    <glyph glyph-name="Udieresis" unicode="&#xdc;" horiz-adv-x="708" 
d="M152.5 54.5q-66.5 64.5 -66.5 196.5v449h72v-459q0 -97 48 -143t150 -46q103 0 150 45.5t47 143.5v459h72v-449q0 -134 -65 -197.5t-204 -63.5q-137 0 -203.5 64.5zM204 794v9q0 45 45 45h8q45 0 45 -45v-9q0 -45 -45 -45h-8q-45 0 -45 45zM408 794v9q0 45 45 45h8
q45 0 45 -45v-9q0 -45 -45 -45h-8q-45 0 -45 45z" />
    <glyph glyph-name="Yacute" unicode="&#xdd;" horiz-adv-x="590" 
d="M570 700l-239 -406v-294h-72v294l-239 406h78l198 -339l197 339h77zM342 893h85l-131 -151h-66z" />
    <glyph glyph-name="Thorn" unicode="&#xde;" horiz-adv-x="641" 
d="M525 534q63 -64 63 -171t-63 -171t-198 -64h-146v-128h-72v700h72v-102h146q135 0 198 -64zM514 363q0 175 -187 175h-146v-350h146q187 0 187 175z" />
    <glyph glyph-name="germandbls" unicode="&#xdf;" horiz-adv-x="617" 
d="M518 306q35 -45 35 -107q0 -103 -58.5 -158t-152.5 -55q-58 0 -103 17t-45 50q0 11 5 19t15 11q31 -23 60.5 -32t71.5 -9q67 0 104.5 36.5t37.5 112.5q0 63 -38.5 102t-109.5 39q-8 0 -28 -2l-24 -1q-14 0 -23.5 16.5t-9.5 31.5q0 9 7 9h69q34 0 63.5 18t47.5 51.5
t18 77.5q0 66 -39.5 105t-109.5 39q-74 0 -116.5 -39.5t-42.5 -115.5v-522h-68v522q0 66 30.5 113t82.5 71.5t116 24.5q63 0 112 -27.5t75.5 -73.5t26.5 -100q0 -63 -27.5 -104t-74.5 -61q58 -14 93 -59z" />
    <glyph glyph-name="agrave" unicode="&#xe0;" horiz-adv-x="558" 
d="M483.5 64.5q7.5 -26.5 26.5 -47.5q-10 -10 -23.5 -16t-25.5 -6q-20 0 -33.5 23t-17.5 63q-31 -42 -83 -66.5t-109 -24.5q-76 0 -122 39.5t-46 103.5q0 94 91.5 147t266.5 61v32q0 66 -33.5 98.5t-101.5 32.5q-44 0 -81.5 -18.5t-80.5 -61.5q-6 -6 -15 -6q-10 0 -22 8.5
t-23 24.5q45 53 102.5 81t122.5 28q93 0 146.5 -50t53.5 -137v-236q0 -46 7.5 -72.5zM325 76q48 30 83 85v124q-288 -12 -288 -151q0 -88 103 -88q54 0 102 30zM159 783h83l101 -151h-66z" />
    <glyph glyph-name="aacute" unicode="&#xe1;" horiz-adv-x="558" 
d="M483.5 64.5q7.5 -26.5 26.5 -47.5q-10 -10 -23.5 -16t-25.5 -6q-20 0 -33.5 23t-17.5 63q-31 -42 -83 -66.5t-109 -24.5q-76 0 -122 39.5t-46 103.5q0 94 91.5 147t266.5 61v32q0 66 -33.5 98.5t-101.5 32.5q-44 0 -81.5 -18.5t-80.5 -61.5q-6 -6 -15 -6q-10 0 -22 8.5
t-23 24.5q45 53 102.5 81t122.5 28q93 0 146.5 -50t53.5 -137v-236q0 -46 7.5 -72.5zM325 76q48 30 83 85v124q-288 -12 -288 -151q0 -88 103 -88q54 0 102 30zM324 783h85l-131 -151h-66z" />
    <glyph glyph-name="acircumflex" unicode="&#xe2;" horiz-adv-x="558" 
d="M483.5 64.5q7.5 -26.5 26.5 -47.5q-10 -10 -23.5 -16t-25.5 -6q-20 0 -33.5 23t-17.5 63q-31 -42 -83 -66.5t-109 -24.5q-76 0 -122 39.5t-46 103.5q0 94 91.5 147t266.5 61v32q0 66 -33.5 98.5t-101.5 32.5q-44 0 -81.5 -18.5t-80.5 -61.5q-6 -6 -15 -6q-10 0 -22 8.5
t-23 24.5q45 53 102.5 81t122.5 28q93 0 146.5 -50t53.5 -137v-236q0 -46 7.5 -72.5zM325 76q48 30 83 85v124q-288 -12 -288 -151q0 -88 103 -88q54 0 102 30zM241 765h73l111 -133h-64l-83 83l-85 -83h-64z" />
    <glyph glyph-name="atilde" unicode="&#xe3;" horiz-adv-x="558" 
d="M483.5 64.5q7.5 -26.5 26.5 -47.5q-10 -10 -23.5 -16t-25.5 -6q-20 0 -33.5 23t-17.5 63q-31 -42 -83 -66.5t-109 -24.5q-76 0 -122 39.5t-46 103.5q0 94 91.5 147t266.5 61v32q0 66 -33.5 98.5t-101.5 32.5q-44 0 -81.5 -18.5t-80.5 -61.5q-6 -6 -15 -6q-10 0 -22 8.5
t-23 24.5q45 53 102.5 81t122.5 28q93 0 146.5 -50t53.5 -137v-236q0 -46 7.5 -72.5zM325 76q48 30 83 85v124q-288 -12 -288 -151q0 -88 103 -88q54 0 102 30zM128 662q0 36 24.5 56t62.5 20q22 0 38.5 -6.5t36.5 -18.5q15 -10 26 -14.5t24 -4.5q41 0 48 47q19 0 29.5 -8.5
t10.5 -21.5q0 -29 -23 -50t-62 -21q-23 0 -40 6.5t-38 18.5q-16 10 -28 14.5t-26 4.5q-39 0 -47 -46q-36 0 -36 24z" />
    <glyph glyph-name="adieresis" unicode="&#xe4;" horiz-adv-x="558" 
d="M483.5 64.5q7.5 -26.5 26.5 -47.5q-10 -10 -23.5 -16t-25.5 -6q-20 0 -33.5 23t-17.5 63q-31 -42 -83 -66.5t-109 -24.5q-76 0 -122 39.5t-46 103.5q0 94 91.5 147t266.5 61v32q0 66 -33.5 98.5t-101.5 32.5q-44 0 -81.5 -18.5t-80.5 -61.5q-6 -6 -15 -6q-10 0 -22 8.5
t-23 24.5q45 53 102.5 81t122.5 28q93 0 146.5 -50t53.5 -137v-236q0 -46 7.5 -72.5zM325 76q48 30 83 85v124q-288 -12 -288 -151q0 -88 103 -88q54 0 102 30zM127 684v9q0 45 45 45h8q45 0 45 -45v-9q0 -45 -45 -45h-8q-45 0 -45 45zM331 684v9q0 45 45 45h8q45 0 45 -45
v-9q0 -45 -45 -45h-8q-45 0 -45 45z" />
    <glyph glyph-name="aring" unicode="&#xe5;" horiz-adv-x="558" 
d="M483.5 64.5q7.5 -26.5 26.5 -47.5q-10 -10 -23.5 -16t-25.5 -6q-20 0 -33.5 23t-17.5 63q-31 -42 -83 -66.5t-109 -24.5q-76 0 -122 39.5t-46 103.5q0 94 91.5 147t266.5 61v32q0 66 -33.5 98.5t-101.5 32.5q-44 0 -81.5 -18.5t-80.5 -61.5q-6 -6 -15 -6q-10 0 -22 8.5
t-23 24.5q45 53 102.5 81t122.5 28q93 0 146.5 -50t53.5 -137v-236q0 -46 7.5 -72.5zM325 76q48 30 83 85v124q-288 -12 -288 -151q0 -88 103 -88q54 0 102 30zM199 659q-32 31 -32 78t32 78.5t78 31.5t78 -31.5t32 -78.5t-32 -78t-78 -31t-78 31zM321 693q18 18 18 44
q0 28 -17.5 45t-44.5 17t-45 -17t-18 -45q0 -26 18 -44t45 -18q26 0 44 18z" />
    <glyph glyph-name="ae" unicode="&#xe6;" horiz-adv-x="918" 
d="M874 268h-396q2 -111 45 -166.5t125 -55.5q63 0 98 21.5t56 66.5q6 14 20 14t45 -20q-19 -66 -75 -103t-144 -37q-70 0 -122.5 29t-81.5 86q-41 -56 -98.5 -85.5t-127.5 -29.5q-72 0 -120 38.5t-48 105.5q0 99 92 148.5t266 51.5v41q0 65 -33 98t-102 33
q-52 0 -87.5 -20.5t-74.5 -59.5q-6 -6 -15 -6q-10 0 -22 9t-23 24q42 50 98.5 79.5t126.5 29.5q65 0 111.5 -25t69.5 -72q32 48 83 72.5t113 24.5q110 0 167.5 -60t57.5 -179q0 -32 -4 -53zM808 322q0 84 -37.5 134t-120.5 50q-75 0 -118.5 -47.5t-51.5 -136.5h328z
M338.5 80q54.5 36 79.5 95q-10 43 -10 100q-151 -6 -219.5 -41t-68.5 -101q0 -89 103 -89q61 0 115.5 36z" />
    <glyph glyph-name="ccedilla" unicode="&#xe7;" horiz-adv-x="551" 
d="M499.5 154q9.5 -12 9.5 -28q0 -33 -27 -63t-72 -50t-97 -23l-37 -45h7q42 0 68 -21t26 -60q0 -44 -35 -68.5t-86 -24.5q-45 0 -69 11t-24 31q0 6 3 14q41 -11 84 -11q30 0 47 12.5t17 33.5q0 15 -13.5 26.5t-37.5 11.5q-19 0 -40 -7l-17 32l51 67q-103 12 -160 87
t-57 199q0 86 30.5 149.5t87.5 98t134 34.5q92 0 151.5 -46.5t69.5 -126.5q-9 -4 -24.5 -8t-25.5 -4t-14.5 5.5t-9.5 23.5q-11 47 -50 73.5t-97 26.5q-54 0 -95.5 -28t-64 -79.5t-22.5 -118.5q0 -106 50.5 -169t135.5 -63q65 0 111 30.5t69 89.5q14 0 23.5 -12z" />
    <glyph glyph-name="egrave" unicode="&#xe8;" horiz-adv-x="560" 
d="M518 268h-398q2 -104 46.5 -162t123.5 -58q54 0 91.5 21t62.5 67q7 13 21 13q16 0 44 -19q-22 -65 -81 -102.5t-138 -37.5q-73 0 -127.5 34.5t-83.5 99t-29 152.5q0 133 66 208.5t181 75.5q105 0 164 -65t59 -181q0 -23 -2 -46zM450 322q0 180 -156 180q-76 0 -120 -46
t-52 -134h328zM168 783h83l101 -151h-66z" />
    <glyph glyph-name="eacute" unicode="&#xe9;" horiz-adv-x="560" 
d="M518 268h-398q2 -104 46.5 -162t123.5 -58q54 0 91.5 21t62.5 67q7 13 21 13q16 0 44 -19q-22 -65 -81 -102.5t-138 -37.5q-73 0 -127.5 34.5t-83.5 99t-29 152.5q0 133 66 208.5t181 75.5q105 0 164 -65t59 -181q0 -23 -2 -46zM450 322q0 180 -156 180q-76 0 -120 -46
t-52 -134h328zM333 783h85l-131 -151h-66z" />
    <glyph glyph-name="ecircumflex" unicode="&#xea;" horiz-adv-x="560" 
d="M518 268h-398q2 -104 46.5 -162t123.5 -58q54 0 91.5 21t62.5 67q7 13 21 13q16 0 44 -19q-22 -65 -81 -102.5t-138 -37.5q-73 0 -127.5 34.5t-83.5 99t-29 152.5q0 133 66 208.5t181 75.5q105 0 164 -65t59 -181q0 -23 -2 -46zM450 322q0 180 -156 180q-76 0 -120 -46
t-52 -134h328zM250 765h73l111 -133h-64l-83 83l-85 -83h-64z" />
    <glyph glyph-name="edieresis" unicode="&#xeb;" horiz-adv-x="560" 
d="M518 268h-398q2 -104 46.5 -162t123.5 -58q54 0 91.5 21t62.5 67q7 13 21 13q16 0 44 -19q-22 -65 -81 -102.5t-138 -37.5q-73 0 -127.5 34.5t-83.5 99t-29 152.5q0 133 66 208.5t181 75.5q105 0 164 -65t59 -181q0 -23 -2 -46zM450 322q0 180 -156 180q-76 0 -120 -46
t-52 -134h328zM136 684v9q0 45 45 45h8q45 0 45 -45v-9q0 -45 -45 -45h-8q-45 0 -45 45zM340 684v9q0 45 45 45h8q45 0 45 -45v-9q0 -45 -45 -45h-8q-45 0 -45 45z" />
    <glyph glyph-name="igrave" unicode="&#xec;" horiz-adv-x="288" 
d="M110 550h68v-550h-68v550zM26 783h83l101 -151h-66z" />
    <glyph glyph-name="iacute" unicode="&#xed;" horiz-adv-x="288" 
d="M110 550h68v-550h-68v550zM191 783h85l-131 -151h-66z" />
    <glyph glyph-name="icircumflex" unicode="&#xee;" horiz-adv-x="288" 
d="M110 550h68v-550h-68v550zM108 765h73l111 -133h-64l-83 83l-85 -83h-64z" />
    <glyph glyph-name="idieresis" unicode="&#xef;" horiz-adv-x="288" 
d="M110 550h68v-550h-68v550zM-6 684v9q0 45 45 45h8q45 0 45 -45v-9q0 -45 -45 -45h-8q-45 0 -45 45zM198 684v9q0 45 45 45h8q45 0 45 -45v-9q0 -45 -45 -45h-8q-45 0 -45 45z" />
    <glyph glyph-name="eth" unicode="&#xf0;" horiz-adv-x="547" 
d="M470.5 500.5q36.5 -99.5 36.5 -225.5q0 -124 -55 -205.5t-178 -81.5q-124 0 -179 81.5t-55 205.5q0 74 22.5 138t75 105.5t136.5 41.5q62 0 101 -22q-32 60 -83 111l-89 -54l-34 51l76 46q-33 28 -73 55l46 47q48 -33 87 -66l111 67l33 -52l-97 -59q82 -84 118.5 -183.5z
M398.5 101.5q38.5 59.5 38.5 173.5q0 108 -39 169.5t-124 61.5q-86 0 -125 -61t-39 -170q0 -114 38.5 -173.5t125.5 -59.5q86 0 124.5 59.5z" />
    <glyph glyph-name="ntilde" unicode="&#xf1;" horiz-adv-x="610" 
d="M521.5 45.5q1.5 -21.5 7.5 -38.5q-24 -12 -52 -12q-15 0 -20 21.5t-5 85.5v271q0 70 -26 101.5t-84 31.5q-90 0 -184 -89v-417h-68v363q0 148 -12 176q32 15 51 15q29 0 29 -58v-9q46 38 92.5 55.5t98.5 17.5q86 0 128.5 -46.5t42.5 -141.5v-244q0 -61 1.5 -82.5z
M156 662q0 36 24.5 56t62.5 20q22 0 38.5 -6.5t36.5 -18.5q15 -10 26 -14.5t24 -4.5q41 0 48 47q19 0 29.5 -8.5t10.5 -21.5q0 -29 -23 -50t-62 -21q-23 0 -40 6.5t-38 18.5q-16 10 -28 14.5t-26 4.5q-39 0 -47 -46q-36 0 -36 24z" />
    <glyph glyph-name="ograve" unicode="&#xf2;" horiz-adv-x="548" 
d="M99 62q-59 72 -59 214q0 284 234 284t234 -284q0 -142 -59 -214t-175 -72t-175 72zM398.5 101.5q39.5 55.5 39.5 174.5q0 118 -39.5 173t-124.5 55t-124.5 -55t-39.5 -173q0 -119 39.5 -174.5t124.5 -55.5t124.5 55.5zM156 783h83l101 -151h-66z" />
    <glyph glyph-name="oacute" unicode="&#xf3;" horiz-adv-x="548" 
d="M99 62q-59 72 -59 214q0 284 234 284t234 -284q0 -142 -59 -214t-175 -72t-175 72zM398.5 101.5q39.5 55.5 39.5 174.5q0 118 -39.5 173t-124.5 55t-124.5 -55t-39.5 -173q0 -119 39.5 -174.5t124.5 -55.5t124.5 55.5zM321 783h85l-131 -151h-66z" />
    <glyph glyph-name="ocircumflex" unicode="&#xf4;" horiz-adv-x="548" 
d="M99 62q-59 72 -59 214q0 284 234 284t234 -284q0 -142 -59 -214t-175 -72t-175 72zM398.5 101.5q39.5 55.5 39.5 174.5q0 118 -39.5 173t-124.5 55t-124.5 -55t-39.5 -173q0 -119 39.5 -174.5t124.5 -55.5t124.5 55.5zM238 765h73l111 -133h-64l-83 83l-85 -83h-64z" />
    <glyph glyph-name="otilde" unicode="&#xf5;" horiz-adv-x="548" 
d="M99 62q-59 72 -59 214q0 284 234 284t234 -284q0 -142 -59 -214t-175 -72t-175 72zM398.5 101.5q39.5 55.5 39.5 174.5q0 118 -39.5 173t-124.5 55t-124.5 -55t-39.5 -173q0 -119 39.5 -174.5t124.5 -55.5t124.5 55.5zM125 662q0 36 24.5 56t62.5 20q22 0 38.5 -6.5
t36.5 -18.5q15 -10 26 -14.5t24 -4.5q41 0 48 47q19 0 29.5 -8.5t10.5 -21.5q0 -29 -23 -50t-62 -21q-23 0 -40 6.5t-38 18.5q-16 10 -28 14.5t-26 4.5q-39 0 -47 -46q-36 0 -36 24z" />
    <glyph glyph-name="odieresis" unicode="&#xf6;" horiz-adv-x="548" 
d="M99 62q-59 72 -59 214q0 284 234 284t234 -284q0 -142 -59 -214t-175 -72t-175 72zM398.5 101.5q39.5 55.5 39.5 174.5q0 118 -39.5 173t-124.5 55t-124.5 -55t-39.5 -173q0 -119 39.5 -174.5t124.5 -55.5t124.5 55.5zM124 684v9q0 45 45 45h8q45 0 45 -45v-9
q0 -45 -45 -45h-8q-45 0 -45 45zM328 684v9q0 45 45 45h8q45 0 45 -45v-9q0 -45 -45 -45h-8q-45 0 -45 45z" />
    <glyph glyph-name="divide" unicode="&#xf7;" horiz-adv-x="600" 
d="M252 489.5q-16 15.5 -16 37.5q0 20 16 36t37 16q22 0 38 -16t16 -36q0 -22 -16 -37.5t-38 -15.5q-21 0 -37 15.5zM70 354h460v-60h-460v60zM252 89q-16 16 -16 36q0 22 16 38t37 16q22 0 38 -16t16 -38q0 -20 -16 -36t-38 -16q-21 0 -37 16z" />
    <glyph glyph-name="oslash" unicode="&#xf8;" horiz-adv-x="548" 
d="M460 475q48 -70 48 -199q0 -142 -59 -214t-175 -72q-93 0 -151 47l-29 -37h-64l58 76q-48 71 -48 200q0 284 234 284q94 0 152 -47l28 37h64zM132 133l255 330q-40 41 -113 41q-85 0 -124.5 -55t-39.5 -173q0 -90 22 -143zM416 417l-255 -330q40 -41 113 -41
q85 0 124.5 55.5t39.5 174.5q0 90 -22 141z" />
    <glyph glyph-name="ugrave" unicode="&#xf9;" horiz-adv-x="609" 
d="M532 7q-21 -12 -43 -12q-21 0 -30.5 17.5t-10.5 63.5q-28 -39 -79 -62.5t-110 -23.5q-169 0 -169 185v375h68v-368q0 -73 27 -105.5t86 -32.5q53 0 99.5 27t77.5 76v403h69v-437q0 -58 15 -106zM187 783h83l101 -151h-66z" />
    <glyph glyph-name="uacute" unicode="&#xfa;" horiz-adv-x="609" 
d="M532 7q-21 -12 -43 -12q-21 0 -30.5 17.5t-10.5 63.5q-28 -39 -79 -62.5t-110 -23.5q-169 0 -169 185v375h68v-368q0 -73 27 -105.5t86 -32.5q53 0 99.5 27t77.5 76v403h69v-437q0 -58 15 -106zM352 783h85l-131 -151h-66z" />
    <glyph glyph-name="ucircumflex" unicode="&#xfb;" horiz-adv-x="609" 
d="M532 7q-21 -12 -43 -12q-21 0 -30.5 17.5t-10.5 63.5q-28 -39 -79 -62.5t-110 -23.5q-169 0 -169 185v375h68v-368q0 -73 27 -105.5t86 -32.5q53 0 99.5 27t77.5 76v403h69v-437q0 -58 15 -106zM269 765h73l111 -133h-64l-83 83l-85 -83h-64z" />
    <glyph glyph-name="udieresis" unicode="&#xfc;" horiz-adv-x="609" 
d="M532 7q-21 -12 -43 -12q-21 0 -30.5 17.5t-10.5 63.5q-28 -39 -79 -62.5t-110 -23.5q-169 0 -169 185v375h68v-368q0 -73 27 -105.5t86 -32.5q53 0 99.5 27t77.5 76v403h69v-437q0 -58 15 -106zM155 684v9q0 45 45 45h8q45 0 45 -45v-9q0 -45 -45 -45h-8q-45 0 -45 45z
M359 684v9q0 45 45 45h8q45 0 45 -45v-9q0 -45 -45 -45h-8q-45 0 -45 45z" />
    <glyph glyph-name="yacute" unicode="&#xfd;" horiz-adv-x="485" 
d="M474 550l-213 -592q-28 -79 -70.5 -115.5t-107.5 -36.5q-38 0 -60 11.5t-22 30.5q0 20 17 32q10 -7 30.5 -12t40.5 -5q41 0 70.5 36t50.5 110l-196 541h72l159 -443l157 443h72zM290 783h85l-131 -151h-66z" />
    <glyph glyph-name="thorn" unicode="&#xfe;" horiz-adv-x="609" 
d="M494 494.5q64 -65.5 64 -209.5q0 -93 -32 -160t-89.5 -102t-131.5 -35q-78 0 -143 26v-234h-70v1011h70v-292q64 61 161 61q107 0 171 -65.5zM437.5 106.5q48.5 62.5 48.5 178.5q0 115 -41 167t-122 52q-92 0 -161 -74v-356q60 -30 143 -30q84 0 132.5 62.5z" />
    <glyph glyph-name="ydieresis" unicode="&#xff;" horiz-adv-x="485" 
d="M474 550l-213 -592q-28 -79 -70.5 -115.5t-107.5 -36.5q-38 0 -60 11.5t-22 30.5q0 20 17 32q10 -7 30.5 -12t40.5 -5q41 0 70.5 36t50.5 110l-196 541h72l159 -443l157 443h72zM93 684v9q0 45 45 45h8q45 0 45 -45v-9q0 -45 -45 -45h-8q-45 0 -45 45zM297 684v9
q0 45 45 45h8q45 0 45 -45v-9q0 -45 -45 -45h-8q-45 0 -45 45z" />
    <glyph glyph-name="Amacron" unicode="&#x100;" horiz-adv-x="620" 
d="M480 203h-340q-24 -79 -51 -203h-74q52 214 113 380.5t145 319.5h75q83 -152 144 -318.5t113 -381.5h-74q-27 124 -51 203zM463 263q-61 194 -153 364q-92 -170 -153 -364h306zM147 824h326v-60h-326v60z" />
    <glyph glyph-name="amacron" unicode="&#x101;" horiz-adv-x="558" 
d="M483.5 64.5q7.5 -26.5 26.5 -47.5q-10 -10 -23.5 -16t-25.5 -6q-20 0 -33.5 23t-17.5 63q-31 -42 -83 -66.5t-109 -24.5q-76 0 -122 39.5t-46 103.5q0 94 91.5 147t266.5 61v32q0 66 -33.5 98.5t-101.5 32.5q-44 0 -81.5 -18.5t-80.5 -61.5q-6 -6 -15 -6q-10 0 -22 8.5
t-23 24.5q45 53 102.5 81t122.5 28q93 0 146.5 -50t53.5 -137v-236q0 -46 7.5 -72.5zM325 76q48 30 83 85v124q-288 -12 -288 -151q0 -88 103 -88q54 0 102 30zM114 714h326v-60h-326v60z" />
    <glyph glyph-name="Abreve" unicode="&#x102;" horiz-adv-x="620" 
d="M480 203h-340q-24 -79 -51 -203h-74q52 214 113 380.5t145 319.5h75q83 -152 144 -318.5t113 -381.5h-74q-27 124 -51 203zM463 263q-61 194 -153 364q-92 -170 -153 -364h306zM226 756.5q-35 15.5 -52 40t-17 50.5q0 16 12 26.5t34 10.5q6 -43 32 -68t75 -25
q48 0 74.5 26.5t33.5 71.5q21 0 33.5 -11t12.5 -30q0 -29 -18.5 -53t-53.5 -39t-82 -15q-49 0 -84 15.5z" />
    <glyph glyph-name="abreve" unicode="&#x103;" horiz-adv-x="558" 
d="M483.5 64.5q7.5 -26.5 26.5 -47.5q-10 -10 -23.5 -16t-25.5 -6q-20 0 -33.5 23t-17.5 63q-31 -42 -83 -66.5t-109 -24.5q-76 0 -122 39.5t-46 103.5q0 94 91.5 147t266.5 61v32q0 66 -33.5 98.5t-101.5 32.5q-44 0 -81.5 -18.5t-80.5 -61.5q-6 -6 -15 -6q-10 0 -22 8.5
t-23 24.5q45 53 102.5 81t122.5 28q93 0 146.5 -50t53.5 -137v-236q0 -46 7.5 -72.5zM325 76q48 30 83 85v124q-288 -12 -288 -151q0 -88 103 -88q54 0 102 30zM193 646.5q-35 15.5 -52 40t-17 50.5q0 16 12 26.5t34 10.5q6 -43 32 -68t75 -25q48 0 74.5 26.5t33.5 71.5
q21 0 33.5 -11t12.5 -30q0 -29 -18.5 -53t-53.5 -39t-82 -15q-49 0 -84 15.5z" />
    <glyph glyph-name="Aogonek" unicode="&#x104;" horiz-adv-x="620" 
d="M480 203h-340q-24 -79 -51 -203h-74q52 214 113 380.5t145 319.5h75q83 -152 144 -318.5t113 -381.5h-74q-27 124 -51 203zM463 263q-61 194 -153 364q-92 -170 -153 -364h306zM499.5 -185.5q-28.5 24.5 -28.5 63.5q0 43 24.5 71.5t68.5 50.5h41q-35 -23 -54 -52.5
t-19 -61.5q0 -25 14 -38.5t39 -13.5q30 0 53 10q6 -9 6 -20q0 -14 -18 -24t-51 -10q-47 0 -75.5 24.5z" />
    <glyph glyph-name="aogonek" unicode="&#x105;" horiz-adv-x="558" 
d="M541 -166q0 -14 -18 -24t-51 -10q-47 0 -75.5 24.5t-28.5 63.5t19.5 65.5t55.5 46.5q-27 18 -33 81q-31 -42 -83 -66.5t-109 -24.5q-76 0 -122 39.5t-46 103.5q0 94 91.5 147t266.5 61v32q0 66 -33.5 98.5t-101.5 32.5q-44 0 -81.5 -18.5t-80.5 -61.5q-6 -6 -15 -6
q-10 0 -22 8.5t-23 24.5q45 53 102.5 81t122.5 28q93 0 146.5 -50t53.5 -137v-236q0 -46 7.5 -72.5t26.5 -47.5l-8 -7l-2 -2h-2q-33 -23 -51 -52t-18 -60q0 -25 14 -38.5t39 -13.5q30 0 53 10q6 -9 6 -20zM325 76q48 30 83 85v124q-288 -12 -288 -151q0 -88 103 -88
q54 0 102 30z" />
    <glyph glyph-name="Cacute" unicode="&#x106;" horiz-adv-x="596" 
d="M130.5 84q-78.5 94 -78.5 266q0 173 78 266.5t222 93.5q58 0 108 -19.5t86 -57.5q-6 -19 -17 -29t-25 -10t-26 9q-54 42 -128 42q-110 0 -167 -75t-57 -220q0 -144 57 -219t167 -75q47 0 84.5 13t74.5 43q13 -1 22 -10.5t9 -23.5q0 -23 -26.5 -43t-70 -32.5t-91.5 -12.5
q-143 0 -221.5 94zM399 893h85l-131 -151h-66z" />
    <glyph glyph-name="cacute" unicode="&#x107;" horiz-adv-x="551" 
d="M107.5 66q-67.5 76 -67.5 212q0 86 30.5 149.5t87.5 98t134 34.5q92 0 151.5 -46.5t69.5 -126.5q-9 -4 -24.5 -8t-25.5 -4t-14.5 5.5t-9.5 23.5q-11 47 -50 73.5t-97 26.5q-54 0 -95.5 -28t-64 -79.5t-22.5 -118.5q0 -106 50.5 -169t135.5 -63q65 0 111 30.5t69 89.5
q14 0 23.5 -12t9.5 -28q0 -35 -29.5 -66.5t-79 -50.5t-104.5 -19q-121 0 -188.5 76zM334 783h85l-131 -151h-66z" />
    <glyph glyph-name="Ccircumflex" unicode="&#x108;" horiz-adv-x="596" 
d="M130.5 84q-78.5 94 -78.5 266q0 173 78 266.5t222 93.5q58 0 108 -19.5t86 -57.5q-6 -19 -17 -29t-25 -10t-26 9q-54 42 -128 42q-110 0 -167 -75t-57 -220q0 -144 57 -219t167 -75q47 0 84.5 13t74.5 43q13 -1 22 -10.5t9 -23.5q0 -23 -26.5 -43t-70 -32.5t-91.5 -12.5
q-143 0 -221.5 94zM316 875h73l111 -133h-64l-83 83l-85 -83h-64z" />
    <glyph glyph-name="ccircumflex" unicode="&#x109;" horiz-adv-x="551" 
d="M107.5 66q-67.5 76 -67.5 212q0 86 30.5 149.5t87.5 98t134 34.5q92 0 151.5 -46.5t69.5 -126.5q-9 -4 -24.5 -8t-25.5 -4t-14.5 5.5t-9.5 23.5q-11 47 -50 73.5t-97 26.5q-54 0 -95.5 -28t-64 -79.5t-22.5 -118.5q0 -106 50.5 -169t135.5 -63q65 0 111 30.5t69 89.5
q14 0 23.5 -12t9.5 -28q0 -35 -29.5 -66.5t-79 -50.5t-104.5 -19q-121 0 -188.5 76zM251 765h73l111 -133h-64l-83 83l-85 -83h-64z" />
    <glyph glyph-name="Cdotaccent" unicode="&#x10a;" horiz-adv-x="596" 
d="M130.5 84q-78.5 94 -78.5 266q0 173 78 266.5t222 93.5q58 0 108 -19.5t86 -57.5q-6 -19 -17 -29t-25 -10t-26 9q-54 42 -128 42q-110 0 -167 -75t-57 -220q0 -144 57 -219t167 -75q47 0 84.5 13t74.5 43q13 -1 22 -10.5t9 -23.5q0 -23 -26.5 -43t-70 -32.5t-91.5 -12.5
q-143 0 -221.5 94zM303 806v9q0 45 45 45h8q45 0 45 -45v-9q0 -45 -45 -45h-8q-45 0 -45 45z" />
    <glyph glyph-name="cdotaccent" unicode="&#x10b;" horiz-adv-x="551" 
d="M107.5 66q-67.5 76 -67.5 212q0 86 30.5 149.5t87.5 98t134 34.5q92 0 151.5 -46.5t69.5 -126.5q-9 -4 -24.5 -8t-25.5 -4t-14.5 5.5t-9.5 23.5q-11 47 -50 73.5t-97 26.5q-54 0 -95.5 -28t-64 -79.5t-22.5 -118.5q0 -106 50.5 -169t135.5 -63q65 0 111 30.5t69 89.5
q14 0 23.5 -12t9.5 -28q0 -35 -29.5 -66.5t-79 -50.5t-104.5 -19q-121 0 -188.5 76zM238 696v9q0 45 45 45h8q45 0 45 -45v-9q0 -45 -45 -45h-8q-45 0 -45 45z" />
    <glyph glyph-name="Ccaron" unicode="&#x10c;" horiz-adv-x="596" 
d="M130.5 84q-78.5 94 -78.5 266q0 173 78 266.5t222 93.5q58 0 108 -19.5t86 -57.5q-6 -19 -17 -29t-25 -10t-26 9q-54 42 -128 42q-110 0 -167 -75t-57 -220q0 -144 57 -219t167 -75q47 0 84.5 13t74.5 43q13 -1 22 -10.5t9 -23.5q0 -23 -26.5 -43t-70 -32.5t-91.5 -12.5
q-143 0 -221.5 94zM209 885h54l90 -86l88 86h54l-106 -131h-73z" />
    <glyph glyph-name="ccaron" unicode="&#x10d;" horiz-adv-x="551" 
d="M107.5 66q-67.5 76 -67.5 212q0 86 30.5 149.5t87.5 98t134 34.5q92 0 151.5 -46.5t69.5 -126.5q-9 -4 -24.5 -8t-25.5 -4t-14.5 5.5t-9.5 23.5q-11 47 -50 73.5t-97 26.5q-54 0 -95.5 -28t-64 -79.5t-22.5 -118.5q0 -106 50.5 -169t135.5 -63q65 0 111 30.5t69 89.5
q14 0 23.5 -12t9.5 -28q0 -35 -29.5 -66.5t-79 -50.5t-104.5 -19q-121 0 -188.5 76zM144 775h54l90 -86l88 86h54l-106 -131h-73z" />
    <glyph glyph-name="Dcaron" unicode="&#x10e;" horiz-adv-x="672" 
d="M531.5 609.5q83.5 -90.5 83.5 -259.5q0 -108 -38.5 -187t-111 -121t-172.5 -42h-207v700h207q155 0 238.5 -90.5zM478 133.5q63 73.5 63 215.5q0 147 -61.5 219t-186.5 72h-135v-580h135q122 0 185 73.5zM193 885h54l90 -86l88 86h54l-106 -131h-73z" />
    <glyph glyph-name="dcaron" unicode="&#x10f;" horiz-adv-x="686" 
d="M511 63q4 -33 10 -55q-25 -12 -46 -12q-27 0 -34 68q-33 -40 -72 -57t-96 -17q-109 0 -171 75.5t-62 207.5q0 136 66.5 211.5t185.5 75.5q37 0 78.5 -13.5t68.5 -33.5v278h68v-663q0 -32 4 -65zM368 67q39 21 71 65v315q-24 25 -65.5 42t-81.5 17q-88 0 -135 -60
t-47 -173q0 -110 43 -168.5t125 -58.5q51 0 90 21zM557 504q53 45 53 90q0 43 -35 72q0 19 12.5 31.5t33.5 12.5q24 0 39 -17t15 -51q0 -64 -44 -119q-11 -14 -24.5 -24t-25.5 -10q-11 0 -24 15z" />
    <glyph glyph-name="Dcroat" unicode="&#x110;" horiz-adv-x="672" 
d="M531.5 609.5q83.5 -90.5 83.5 -259.5q0 -108 -38.5 -187t-111 -121t-172.5 -42h-207v327h-85v57h85v316h207q155 0 238.5 -90.5zM478 133.5q63 73.5 63 215.5q0 147 -61.5 219t-186.5 72h-135v-256h188v-57h-188v-267h135q122 0 185 73.5z" />
    <glyph glyph-name="dcroat" unicode="&#x111;" horiz-adv-x="602" 
d="M507 650v-522q0 -32 4 -65t10 -55q-25 -12 -46 -12q-27 0 -34 68q-33 -40 -72 -57t-96 -17q-109 0 -171 75.5t-62 207.5q0 136 66.5 211.5t185.5 75.5q37 0 78.5 -13.5t68.5 -33.5v137h-148v50h148v91h68v-91h95v-50h-95zM368 67q39 21 71 65v315q-24 25 -65.5 42
t-81.5 17q-88 0 -135 -60t-47 -173q0 -110 43 -168.5t125 -58.5q51 0 90 21z" />
    <glyph glyph-name="Emacron" unicode="&#x112;" horiz-adv-x="560" 
d="M505 60q0 -36 -10.5 -48t-41.5 -12h-367v700h418v-60h-346v-252h298v-60h-298v-268h347zM117 824h326v-60h-326v60z" />
    <glyph glyph-name="emacron" unicode="&#x113;" horiz-adv-x="560" 
d="M518 268h-398q2 -104 46.5 -162t123.5 -58q54 0 91.5 21t62.5 67q7 13 21 13q16 0 44 -19q-22 -65 -81 -102.5t-138 -37.5q-73 0 -127.5 34.5t-83.5 99t-29 152.5q0 133 66 208.5t181 75.5q105 0 164 -65t59 -181q0 -23 -2 -46zM450 322q0 180 -156 180q-76 0 -120 -46
t-52 -134h328zM123 714h326v-60h-326v60z" />
    <glyph glyph-name="Ebreve" unicode="&#x114;" horiz-adv-x="560" 
d="M505 60q0 -36 -10.5 -48t-41.5 -12h-367v700h418v-60h-346v-252h298v-60h-298v-268h347zM196 756.5q-35 15.5 -52 40t-17 50.5q0 16 12 26.5t34 10.5q6 -43 32 -68t75 -25q48 0 74.5 26.5t33.5 71.5q21 0 33.5 -11t12.5 -30q0 -29 -18.5 -53t-53.5 -39t-82 -15
q-49 0 -84 15.5z" />
    <glyph glyph-name="ebreve" unicode="&#x115;" horiz-adv-x="560" 
d="M518 268h-398q2 -104 46.5 -162t123.5 -58q54 0 91.5 21t62.5 67q7 13 21 13q16 0 44 -19q-22 -65 -81 -102.5t-138 -37.5q-73 0 -127.5 34.5t-83.5 99t-29 152.5q0 133 66 208.5t181 75.5q105 0 164 -65t59 -181q0 -23 -2 -46zM450 322q0 180 -156 180q-76 0 -120 -46
t-52 -134h328zM202 646.5q-35 15.5 -52 40t-17 50.5q0 16 12 26.5t34 10.5q6 -43 32 -68t75 -25q48 0 74.5 26.5t33.5 71.5q21 0 33.5 -11t12.5 -30q0 -29 -18.5 -53t-53.5 -39t-82 -15q-49 0 -84 15.5z" />
    <glyph glyph-name="Edotaccent" unicode="&#x116;" horiz-adv-x="560" 
d="M505 60q0 -36 -10.5 -48t-41.5 -12h-367v700h418v-60h-346v-252h298v-60h-298v-268h347zM231 806v9q0 45 45 45h8q45 0 45 -45v-9q0 -45 -45 -45h-8q-45 0 -45 45z" />
    <glyph glyph-name="edotaccent" unicode="&#x117;" horiz-adv-x="560" 
d="M518 268h-398q2 -104 46.5 -162t123.5 -58q54 0 91.5 21t62.5 67q7 13 21 13q16 0 44 -19q-22 -65 -81 -102.5t-138 -37.5q-73 0 -127.5 34.5t-83.5 99t-29 152.5q0 133 66 208.5t181 75.5q105 0 164 -65t59 -181q0 -23 -2 -46zM450 322q0 180 -156 180q-76 0 -120 -46
t-52 -134h328zM237 696v9q0 45 45 45h8q45 0 45 -45v-9q0 -45 -45 -45h-8q-45 0 -45 45z" />
    <glyph glyph-name="Eogonek" unicode="&#x118;" horiz-adv-x="560" 
d="M531 -166q0 -14 -18 -24t-51 -10q-47 0 -75.5 24.5t-28.5 63.5q0 38 19.5 64.5t54.5 47.5h-346v700h418v-60h-346v-252h298v-60h-298v-268h347q0 -25 -4.5 -38t-16.5 -18q-31 -22 -48 -50t-17 -58q0 -25 14 -38.5t39 -13.5q30 0 53 10q6 -9 6 -20z" />
    <glyph glyph-name="eogonek" unicode="&#x119;" horiz-adv-x="560" 
d="M518 268h-398q2 -104 46.5 -162t123.5 -58q54 0 91.5 21t62.5 67q7 13 21 13q16 0 44 -19q-14 -43 -46 -74.5t-77 -48.5q-32 -23 -50 -51.5t-18 -59.5q0 -25 14 -38.5t39 -13.5q30 0 53 10q6 -9 6 -20q0 -14 -18 -24t-51 -10q-47 0 -75.5 24.5t-28.5 63.5q0 34 15.5 59
t44.5 44q-9 -1 -27 -1q-73 0 -127.5 34.5t-83.5 99t-29 152.5q0 133 66 208.5t181 75.5q105 0 164 -65t59 -181q0 -23 -2 -46zM450 322q0 180 -156 180q-76 0 -120 -46t-52 -134h328z" />
    <glyph glyph-name="Ecaron" unicode="&#x11a;" horiz-adv-x="560" 
d="M505 60q0 -36 -10.5 -48t-41.5 -12h-367v700h418v-60h-346v-252h298v-60h-298v-268h347zM137 885h54l90 -86l88 86h54l-106 -131h-73z" />
    <glyph glyph-name="ecaron" unicode="&#x11b;" horiz-adv-x="560" 
d="M518 268h-398q2 -104 46.5 -162t123.5 -58q54 0 91.5 21t62.5 67q7 13 21 13q16 0 44 -19q-22 -65 -81 -102.5t-138 -37.5q-73 0 -127.5 34.5t-83.5 99t-29 152.5q0 133 66 208.5t181 75.5q105 0 164 -65t59 -181q0 -23 -2 -46zM450 322q0 180 -156 180q-76 0 -120 -46
t-52 -134h328zM143 775h54l90 -86l88 86h54l-106 -131h-73z" />
    <glyph glyph-name="Gcircumflex" unicode="&#x11c;" horiz-adv-x="666" 
d="M604 373v-300q-37 -38 -98.5 -60.5t-128.5 -22.5q-155 0 -235 91.5t-80 268.5q0 173 81.5 266.5t233.5 93.5q71 0 132 -26.5t92 -70.5q-20 -35 -44 -35q-16 0 -33 14q-34 29 -69 42t-79 13q-118 0 -179 -75.5t-61 -221.5q0 -150 59.5 -223.5t180.5 -73.5q50 0 93 13
t63 35v210h-141q-20 0 -28.5 14t-8.5 48h250zM341 875h73l111 -133h-64l-83 83l-85 -83h-64z" />
    <glyph glyph-name="gcircumflex" unicode="&#x11d;" horiz-adv-x="585" 
d="M556.5 569.5q8.5 -9.5 8.5 -30.5q0 -6 -2 -24q-74 0 -103 -20q40 -48 40 -119q0 -192 -221 -192q-68 0 -99.5 -9.5t-31.5 -29.5q0 -45 161 -45q113 0 175 -38t62 -108q0 -75 -66.5 -115.5t-190.5 -40.5q-117 0 -178 36t-61 106q0 40 27.5 71t76.5 46v3q-30 8 -48 29.5
t-18 51.5q0 25 20 44.5t54 26.5q-43 24 -66.5 63.5t-23.5 88.5q0 196 226 196q71 0 121 -31q25 23 54.5 36.5t56.5 13.5q18 0 26.5 -9.5zM395.5 270.5q33.5 30.5 33.5 101.5q0 70 -34 102t-110 32q-74 0 -108.5 -32.5t-34.5 -101.5q0 -132 143 -132q77 0 110.5 30.5z
M164.5 15q-43.5 -23 -43.5 -67q0 -46 43 -70t125 -24q92 0 139 23.5t47 70.5q0 48 -42.5 69t-139.5 21q-85 0 -128.5 -23zM257 765h73l111 -133h-64l-83 83l-85 -83h-64z" />
    <glyph glyph-name="Gbreve" unicode="&#x11e;" horiz-adv-x="666" 
d="M604 373v-300q-37 -38 -98.5 -60.5t-128.5 -22.5q-155 0 -235 91.5t-80 268.5q0 173 81.5 266.5t233.5 93.5q71 0 132 -26.5t92 -70.5q-20 -35 -44 -35q-16 0 -33 14q-34 29 -69 42t-79 13q-118 0 -179 -75.5t-61 -221.5q0 -150 59.5 -223.5t180.5 -73.5q50 0 93 13
t63 35v210h-141q-20 0 -28.5 14t-8.5 48h250zM293 756.5q-35 15.5 -52 40t-17 50.5q0 16 12 26.5t34 10.5q6 -43 32 -68t75 -25q48 0 74.5 26.5t33.5 71.5q21 0 33.5 -11t12.5 -30q0 -29 -18.5 -53t-53.5 -39t-82 -15q-49 0 -84 15.5z" />
    <glyph glyph-name="gbreve" unicode="&#x11f;" horiz-adv-x="585" 
d="M556.5 569.5q8.5 -9.5 8.5 -30.5q0 -6 -2 -24q-74 0 -103 -20q40 -48 40 -119q0 -192 -221 -192q-68 0 -99.5 -9.5t-31.5 -29.5q0 -45 161 -45q113 0 175 -38t62 -108q0 -75 -66.5 -115.5t-190.5 -40.5q-117 0 -178 36t-61 106q0 40 27.5 71t76.5 46v3q-30 8 -48 29.5
t-18 51.5q0 25 20 44.5t54 26.5q-43 24 -66.5 63.5t-23.5 88.5q0 196 226 196q71 0 121 -31q25 23 54.5 36.5t56.5 13.5q18 0 26.5 -9.5zM395.5 270.5q33.5 30.5 33.5 101.5q0 70 -34 102t-110 32q-74 0 -108.5 -32.5t-34.5 -101.5q0 -132 143 -132q77 0 110.5 30.5z
M164.5 15q-43.5 -23 -43.5 -67q0 -46 43 -70t125 -24q92 0 139 23.5t47 70.5q0 48 -42.5 69t-139.5 21q-85 0 -128.5 -23zM209 646.5q-35 15.5 -52 40t-17 50.5q0 16 12 26.5t34 10.5q6 -43 32 -68t75 -25q48 0 74.5 26.5t33.5 71.5q21 0 33.5 -11t12.5 -30q0 -29 -18.5 -53
t-53.5 -39t-82 -15q-49 0 -84 15.5z" />
    <glyph glyph-name="Gdotaccent" unicode="&#x120;" horiz-adv-x="666" 
d="M604 373v-300q-37 -38 -98.5 -60.5t-128.5 -22.5q-155 0 -235 91.5t-80 268.5q0 173 81.5 266.5t233.5 93.5q71 0 132 -26.5t92 -70.5q-20 -35 -44 -35q-16 0 -33 14q-34 29 -69 42t-79 13q-118 0 -179 -75.5t-61 -221.5q0 -150 59.5 -223.5t180.5 -73.5q50 0 93 13
t63 35v210h-141q-20 0 -28.5 14t-8.5 48h250zM328 806v9q0 45 45 45h8q45 0 45 -45v-9q0 -45 -45 -45h-8q-45 0 -45 45z" />
    <glyph glyph-name="gdotaccent" unicode="&#x121;" horiz-adv-x="585" 
d="M556.5 569.5q8.5 -9.5 8.5 -30.5q0 -6 -2 -24q-74 0 -103 -20q40 -48 40 -119q0 -192 -221 -192q-68 0 -99.5 -9.5t-31.5 -29.5q0 -45 161 -45q113 0 175 -38t62 -108q0 -75 -66.5 -115.5t-190.5 -40.5q-117 0 -178 36t-61 106q0 40 27.5 71t76.5 46v3q-30 8 -48 29.5
t-18 51.5q0 25 20 44.5t54 26.5q-43 24 -66.5 63.5t-23.5 88.5q0 196 226 196q71 0 121 -31q25 23 54.5 36.5t56.5 13.5q18 0 26.5 -9.5zM395.5 270.5q33.5 30.5 33.5 101.5q0 70 -34 102t-110 32q-74 0 -108.5 -32.5t-34.5 -101.5q0 -132 143 -132q77 0 110.5 30.5z
M164.5 15q-43.5 -23 -43.5 -67q0 -46 43 -70t125 -24q92 0 139 23.5t47 70.5q0 48 -42.5 69t-139.5 21q-85 0 -128.5 -23zM244 696v9q0 45 45 45h8q45 0 45 -45v-9q0 -45 -45 -45h-8q-45 0 -45 45z" />
    <glyph glyph-name="uni0122" unicode="&#x122;" horiz-adv-x="666" 
d="M604 373v-300q-37 -38 -98.5 -60.5t-128.5 -22.5q-155 0 -235 91.5t-80 268.5q0 173 81.5 266.5t233.5 93.5q71 0 132 -26.5t92 -70.5q-20 -35 -44 -35q-16 0 -33 14q-34 29 -69 42t-79 13q-118 0 -179 -75.5t-61 -221.5q0 -150 59.5 -223.5t180.5 -73.5q50 0 93 13
t63 35v210h-141q-20 0 -28.5 14t-8.5 48h250zM422 -79.5q12 -12.5 12 -34.5v-11q0 -35 -12 -70.5t-30 -63.5q-26 -40 -44 -40q-16 0 -28 10q27 33 42 61.5t20 61.5h-5q-19 0 -30 12t-11 32v11q0 20 11.5 32t30.5 12h12q20 0 32 -12.5z" />
    <glyph glyph-name="uni0123" unicode="&#x123;" horiz-adv-x="585" 
d="M556.5 569.5q8.5 -9.5 8.5 -30.5q0 -6 -2 -24q-74 0 -103 -20q40 -48 40 -119q0 -192 -221 -192q-68 0 -99.5 -9.5t-31.5 -29.5q0 -45 161 -45q113 0 175 -38t62 -108q0 -75 -66.5 -115.5t-190.5 -40.5q-117 0 -178 36t-61 106q0 40 27.5 71t76.5 46v3q-30 8 -48 29.5
t-18 51.5q0 25 20 44.5t54 26.5q-43 24 -66.5 63.5t-23.5 88.5q0 196 226 196q71 0 121 -31q25 23 54.5 36.5t56.5 13.5q18 0 26.5 -9.5zM395.5 270.5q33.5 30.5 33.5 101.5q0 70 -34 102t-110 32q-74 0 -108.5 -32.5t-34.5 -101.5q0 -132 143 -132q77 0 110.5 30.5z
M164.5 15q-43.5 -23 -43.5 -67q0 -46 43 -70t125 -24q92 0 139 23.5t47 70.5q0 48 -42.5 69t-139.5 21q-85 0 -128.5 -23zM258 653q-15 17 -15 51q0 60 44 119q11 14 24.5 24t25.5 10t24 -15q-53 -45 -53 -90q0 -43 35 -72q0 -19 -12.5 -31.5t-33.5 -12.5q-24 0 -39 17z" />
    <glyph glyph-name="Hcircumflex" unicode="&#x124;" horiz-adv-x="680" 
d="M594 700v-700h-72v330h-364v-330h-72v700h72v-310h364v310h72zM304 875h73l111 -133h-64l-83 83l-85 -83h-64z" />
    <glyph glyph-name="hcircumflex" unicode="&#x125;" horiz-adv-x="630" 
d="M489 510.5q50 -49.5 50 -134.5v-376h-68v369q0 65 -32 100t-92 35q-46 0 -97 -20.5t-91 -54.5v-429h-68v791h68v-297q44 32 94 49t100 17q86 0 136 -49.5zM89 925h73l111 -133h-64l-83 83l-85 -83h-64z" />
    <glyph glyph-name="Hbar" unicode="&#x126;" horiz-adv-x="680" 
d="M670 524h-76v-524h-72v330h-364v-330h-72v524h-76v60h76v116h72v-116h364v116h72v-116h76v-60zM522 524h-364v-134h364v134z" />
    <glyph glyph-name="hbar" unicode="&#x127;" horiz-adv-x="640" 
d="M499 510.5q50 -49.5 50 -134.5v-376h-68v369q0 65 -32 100t-92 35q-46 0 -97 -20.5t-91 -54.5v-429h-68v649h-91v55h91v87h68v-87h140v-55h-140v-155q44 32 94 49t100 17q86 0 136 -49.5z" />
    <glyph glyph-name="Itilde" unicode="&#x128;" horiz-adv-x="350" 
d="M139 700h72v-700h-72v700zM26 772q0 36 24.5 56t62.5 20q22 0 38.5 -6.5t36.5 -18.5q15 -10 26 -14.5t24 -4.5q41 0 48 47q19 0 29.5 -8.5t10.5 -21.5q0 -29 -23 -50t-62 -21q-23 0 -40 6.5t-38 18.5q-16 10 -28 14.5t-26 4.5q-39 0 -47 -46q-36 0 -36 24z" />
    <glyph glyph-name="itilde" unicode="&#x129;" horiz-adv-x="288" 
d="M110 550h68v-550h-68v550zM-5 662q0 36 24.5 56t62.5 20q22 0 38.5 -6.5t36.5 -18.5q15 -10 26 -14.5t24 -4.5q41 0 48 47q19 0 29.5 -8.5t10.5 -21.5q0 -29 -23 -50t-62 -21q-23 0 -40 6.5t-38 18.5q-16 10 -28 14.5t-26 4.5q-39 0 -47 -46q-36 0 -36 24z" />
    <glyph glyph-name="Imacron" unicode="&#x12a;" horiz-adv-x="350" 
d="M139 700h72v-700h-72v700zM12 824h326v-60h-326v60z" />
    <glyph glyph-name="imacron" unicode="&#x12b;" horiz-adv-x="288" 
d="M110 550h68v-550h-68v550zM-19 714h326v-60h-326v60z" />
    <glyph glyph-name="Ibreve" unicode="&#x12c;" horiz-adv-x="350" 
d="M139 700h72v-700h-72v700zM91 756.5q-35 15.5 -52 40t-17 50.5q0 16 12 26.5t34 10.5q6 -43 32 -68t75 -25q48 0 74.5 26.5t33.5 71.5q21 0 33.5 -11t12.5 -30q0 -29 -18.5 -53t-53.5 -39t-82 -15q-49 0 -84 15.5z" />
    <glyph glyph-name="ibreve" unicode="&#x12d;" horiz-adv-x="288" 
d="M110 550h68v-550h-68v550zM60 646.5q-35 15.5 -52 40t-17 50.5q0 16 12 26.5t34 10.5q6 -43 32 -68t75 -25q48 0 74.5 26.5t33.5 71.5q21 0 33.5 -11t12.5 -30q0 -29 -18.5 -53t-53.5 -39t-82 -15q-49 0 -84 15.5z" />
    <glyph glyph-name="Iogonek" unicode="&#x12e;" horiz-adv-x="350" 
d="M139 700h72v-700h-72v700zM105.5 -185.5q-28.5 24.5 -28.5 63.5q0 43 24.5 71.5t68.5 50.5h41q-35 -23 -54 -52.5t-19 -61.5q0 -25 14 -38.5t39 -13.5q30 0 53 10q6 -9 6 -20q0 -14 -18 -24t-51 -10q-47 0 -75.5 24.5z" />
    <glyph glyph-name="iogonek" unicode="&#x12f;" horiz-adv-x="288" 
d="M110 550h68v-550h-68v550zM95 696v9q0 45 45 45h8q45 0 45 -45v-9q0 -45 -45 -45h-8q-45 0 -45 45zM72.5 -185.5q-28.5 24.5 -28.5 63.5q0 43 24.5 71.5t68.5 50.5h41q-35 -23 -54 -52.5t-19 -61.5q0 -25 14 -38.5t39 -13.5q30 0 53 10q6 -9 6 -20q0 -14 -18 -24t-51 -10
q-47 0 -75.5 24.5z" />
    <glyph glyph-name="Idotaccent" unicode="&#x130;" horiz-adv-x="350" 
d="M139 700h72v-700h-72v700zM126 806v9q0 45 45 45h8q45 0 45 -45v-9q0 -45 -45 -45h-8q-45 0 -45 45z" />
    <glyph glyph-name="dotlessi" unicode="&#x131;" horiz-adv-x="288" 
d="M110 550h68v-550h-68v550z" />
    <glyph glyph-name="IJ" unicode="&#x132;" horiz-adv-x="697" 
d="M139 700h72v-700h-72v700zM347.5 -1.5q-35.5 8.5 -53.5 18.5q0 27 7.5 40t19.5 13q4 0 34 -9t64 -9q118 0 118 131v517h72v-517q0 -90 -51.5 -141.5t-140.5 -51.5q-34 0 -69.5 8.5z" />
    <glyph glyph-name="ij" unicode="&#x133;" horiz-adv-x="558" 
d="M110 550h68v-550h-68v550zM95 696v9q0 45 45 45h8q45 0 45 -45v-9q0 -45 -45 -45h-8q-45 0 -45 45zM277.5 -186q-24.5 6 -35.5 17q-9 9 -9 22q0 12 5 21t11 9q32 -17 76 -17q30 0 46.5 18t16.5 54v612h68v-603q0 -68 -35 -103.5t-99 -35.5q-20 0 -44.5 6zM373 696v9
q0 45 45 45h8q45 0 45 -45v-9q0 -45 -45 -45h-8q-45 0 -45 45z" />
    <glyph glyph-name="Jcircumflex" unicode="&#x134;" horiz-adv-x="427" 
d="M77.5 -1.5q-35.5 8.5 -53.5 18.5q0 27 7.5 40t19.5 13q4 0 34 -9t64 -9q118 0 118 131v517h72v-517q0 -90 -51.5 -141.5t-140.5 -51.5q-34 0 -69.5 8.5zM267 875h73l111 -133h-64l-83 83l-85 -83h-64z" />
    <glyph glyph-name="jcircumflex" unicode="&#x135;" horiz-adv-x="270" 
d="M-10.5 -186q-24.5 6 -35.5 17q-9 9 -9 22q0 12 5 21t11 9q32 -17 76 -17q30 0 46.5 18t16.5 54v612h68v-603q0 -68 -35 -103.5t-99 -35.5q-20 0 -44.5 6zM98 765h73l111 -133h-64l-83 83l-85 -83h-64z" />
    <glyph glyph-name="uni0136" unicode="&#x136;" horiz-adv-x="610" 
d="M585 3q-20 -11 -43 -11q-18 0 -28.5 6.5t-21.5 23.5l-152 246q-23 37 -48.5 49.5t-80.5 12.5h-39v-330h-72v700h72v-308h59q18 0 27 -1l236 309h83l-255 -329q42 -23 80 -82zM370 -79.5q12 -12.5 12 -34.5v-11q0 -35 -12 -70.5t-30 -63.5q-26 -40 -44 -40q-16 0 -28 10
q27 33 42 61.5t20 61.5h-5q-19 0 -30 12t-11 32v11q0 20 11.5 32t30.5 12h12q20 0 32 -12.5z" />
    <glyph glyph-name="uni0137" unicode="&#x137;" horiz-adv-x="591" 
d="M529 0q-17 0 -39 -2q-18 -2 -22 -2q-19 0 -29 16l-129 208q-29 47 -105 44l-46 -2v-262h-68v791h68v-467l39 1q21 1 36 8.5t27 23.5l150 193h84l-178 -218q-2 -2 -9 -10.5t-18 -14.5q49 -13 71 -48zM341 -79.5q12 -12.5 12 -34.5v-11q0 -35 -12 -70.5t-30 -63.5
q-26 -40 -44 -40q-16 0 -28 10q27 33 42 61.5t20 61.5h-5q-19 0 -30 12t-11 32v11q0 20 11.5 32t30.5 12h12q20 0 32 -12.5z" />
    <glyph glyph-name="kgreenlandic" unicode="&#x138;" horiz-adv-x="591" 
d="M521 15q-33 -15 -54 -15q-19 0 -30 15l-128 185q-16 23 -41 34t-63 11l-46 -3v-242h-68v550h68v-246l39 1q22 1 37 8.5t26 23.5l150 213h84l-185 -246q-1 -1 -14 -17q41 -14 65 -48z" />
    <glyph glyph-name="Lacute" unicode="&#x139;" horiz-adv-x="513" 
d="M498 60v-60h-412v700h72v-640h340zM169 893h85l-131 -151h-66z" />
    <glyph glyph-name="lacute" unicode="&#x13a;" horiz-adv-x="268" 
d="M100 791h68v-791h-68v791zM181 983h85l-131 -151h-66z" />
    <glyph glyph-name="uni013B" unicode="&#x13b;" horiz-adv-x="513" 
d="M498 60v-60h-412v700h72v-640h340zM337 -79.5q12 -12.5 12 -34.5v-11q0 -35 -12 -70.5t-30 -63.5q-26 -40 -44 -40q-16 0 -28 10q27 33 42 61.5t20 61.5h-5q-19 0 -30 12t-11 32v11q0 20 11.5 32t30.5 12h12q20 0 32 -12.5z" />
    <glyph glyph-name="uni013C" unicode="&#x13c;" horiz-adv-x="268" 
d="M100 791h68v-791h-68v791zM179 -79.5q12 -12.5 12 -34.5v-11q0 -35 -12 -70.5t-30 -63.5q-26 -40 -44 -40q-16 0 -28 10q27 33 42 61.5t20 61.5h-5q-19 0 -30 12t-11 32v11q0 20 11.5 32t30.5 12h12q20 0 32 -12.5z" />
    <glyph glyph-name="Lcaron" unicode="&#x13d;" horiz-adv-x="597" 
d="M498 60v-60h-412v700h72v-640h340zM388 504q53 45 53 90q0 43 -35 72q0 19 12.5 31.5t33.5 12.5q24 0 39 -17t15 -51q0 -64 -44 -119q-11 -14 -24.5 -24t-25.5 -10q-11 0 -24 15z" />
    <glyph glyph-name="lcaron" unicode="&#x13e;" horiz-adv-x="427" 
d="M100 791h68v-791h-68v791zM276 504q53 45 53 90q0 43 -35 72q0 19 12.5 31.5t33.5 12.5q24 0 39 -17t15 -51q0 -64 -44 -119q-11 -14 -24.5 -24t-25.5 -10q-11 0 -24 15z" />
    <glyph glyph-name="Ldot" unicode="&#x13f;" horiz-adv-x="513" 
d="M498 60v-60h-412v700h72v-640h340zM306 354v9q0 45 45 45h8q45 0 45 -45v-9q0 -45 -45 -45h-8q-45 0 -45 45z" />
    <glyph glyph-name="ldot" unicode="&#x140;" horiz-adv-x="416" 
d="M100 791h68v-791h-68v791zM250 333v9q0 45 45 45h8q45 0 45 -45v-9q0 -45 -45 -45h-8q-45 0 -45 45z" />
    <glyph glyph-name="Lslash" unicode="&#x141;" horiz-adv-x="547" 
d="M518 60v-60h-412v353l-89 -36v69l89 36v278h72v-250l191 77v-69l-191 -77v-321h340z" />
    <glyph glyph-name="lslash" unicode="&#x142;" horiz-adv-x="268" 
d="M268 445l-100 -47v-398h-68v367l-100 -47v70l100 46v355h68v-323l100 46v-69z" />
    <glyph glyph-name="Nacute" unicode="&#x143;" horiz-adv-x="690" 
d="M602 64q2 -28 2 -37q0 -27 -26 -27h-50v54q0 58 -39 111l-331 436v-601h-72v700h58q13 0 20.5 -3.5t17.5 -16.5l346 -455v475h72v-563q0 -31 2 -73zM391 893h85l-131 -151h-66z" />
    <glyph glyph-name="nacute" unicode="&#x144;" horiz-adv-x="610" 
d="M521.5 45.5q1.5 -21.5 7.5 -38.5q-24 -12 -52 -12q-15 0 -20 21.5t-5 85.5v271q0 70 -26 101.5t-84 31.5q-90 0 -184 -89v-417h-68v363q0 148 -12 176q32 15 51 15q29 0 29 -58v-9q46 38 92.5 55.5t98.5 17.5q86 0 128.5 -46.5t42.5 -141.5v-244q0 -61 1.5 -82.5z
M352 783h85l-131 -151h-66z" />
    <glyph glyph-name="uni0145" unicode="&#x145;" horiz-adv-x="690" 
d="M602 64q2 -28 2 -37q0 -27 -26 -27h-50v54q0 58 -39 111l-331 436v-601h-72v700h58q13 0 20.5 -3.5t17.5 -16.5l346 -455v475h72v-563q0 -31 2 -73zM389 -79.5q12 -12.5 12 -34.5v-11q0 -35 -12 -70.5t-30 -63.5q-26 -40 -44 -40q-16 0 -28 10q27 33 42 61.5t20 61.5h-5
q-19 0 -30 12t-11 32v11q0 20 11.5 32t30.5 12h12q20 0 32 -12.5z" />
    <glyph glyph-name="uni0146" unicode="&#x146;" horiz-adv-x="610" 
d="M521.5 45.5q1.5 -21.5 7.5 -38.5q-24 -12 -52 -12q-15 0 -20 21.5t-5 85.5v271q0 70 -26 101.5t-84 31.5q-90 0 -184 -89v-417h-68v363q0 148 -12 176q32 15 51 15q29 0 29 -58v-9q46 38 92.5 55.5t98.5 17.5q86 0 128.5 -46.5t42.5 -141.5v-244q0 -61 1.5 -82.5z
M350 -79.5q12 -12.5 12 -34.5v-11q0 -35 -12 -70.5t-30 -63.5q-26 -40 -44 -40q-16 0 -28 10q27 33 42 61.5t20 61.5h-5q-19 0 -30 12t-11 32v11q0 20 11.5 32t30.5 12h12q20 0 32 -12.5z" />
    <glyph glyph-name="Ncaron" unicode="&#x147;" horiz-adv-x="690" 
d="M602 64q2 -28 2 -37q0 -27 -26 -27h-50v54q0 58 -39 111l-331 436v-601h-72v700h58q13 0 20.5 -3.5t17.5 -16.5l346 -455v475h72v-563q0 -31 2 -73zM201 885h54l90 -86l88 86h54l-106 -131h-73z" />
    <glyph glyph-name="ncaron" unicode="&#x148;" horiz-adv-x="610" 
d="M521.5 45.5q1.5 -21.5 7.5 -38.5q-24 -12 -52 -12q-15 0 -20 21.5t-5 85.5v271q0 70 -26 101.5t-84 31.5q-90 0 -184 -89v-417h-68v363q0 148 -12 176q32 15 51 15q29 0 29 -58v-9q46 38 92.5 55.5t98.5 17.5q86 0 128.5 -46.5t42.5 -141.5v-244q0 -61 1.5 -82.5z
M162 775h54l90 -86l88 86h54l-106 -131h-73z" />
    <glyph glyph-name="napostrophe" unicode="&#x149;" horiz-adv-x="610" 
d="M-72 597q53 45 53 90q0 43 -35 72q0 19 12.5 31.5t33.5 12.5q24 0 39 -17t15 -51q0 -64 -44 -119q-11 -14 -24.5 -24t-25.5 -10q-11 0 -24 15zM521.5 45.5q1.5 -21.5 7.5 -38.5q-24 -12 -52 -12q-15 0 -20 21.5t-5 85.5v271q0 70 -26 101.5t-84 31.5q-90 0 -184 -89v-417
h-68v363q0 148 -12 176q32 15 51 15q29 0 29 -58v-9q46 38 92.5 55.5t98.5 17.5q86 0 128.5 -46.5t42.5 -141.5v-244q0 -61 1.5 -82.5z" />
    <glyph glyph-name="Eng" unicode="&#x14a;" horiz-adv-x="685" 
d="M599 700v-733q0 -75 -42.5 -117t-114.5 -42q-31 0 -60 11.5t-29 33.5q0 11 5.5 20t10.5 9q37 -16 81 -16q36 0 56.5 23.5t20.5 68.5v96q0 59 -39 111l-330 436v-601h-72v700h58q13 0 20.5 -3.5t17.5 -16.5l345 -455v475h72z" />
    <glyph glyph-name="eng" unicode="&#x14b;" horiz-adv-x="609" 
d="M477.5 513.5q42.5 -46.5 42.5 -141.5v-405q0 -76 -41 -117.5t-113 -41.5q-31 0 -60 11.5t-29 33.5q0 11 5.5 20t10.5 9q37 -16 81 -16q37 0 57.5 24t20.5 68v415q0 70 -26 101.5t-84 31.5q-93 0 -184 -89v-417h-68v363q0 140 -12 171q32 15 51 15q29 0 29 -58v-4
q41 35 87.5 54t103.5 19q86 0 128.5 -46.5z" />
    <glyph glyph-name="Omacron" unicode="&#x14c;" horiz-adv-x="680" 
d="M123.5 84q-75.5 94 -75.5 270q0 172 75.5 264t216.5 92t216.5 -92t75.5 -264q0 -176 -75.5 -270t-216.5 -94t-216.5 94zM503 129.5q55 75.5 55 224.5q0 292 -218 292t-218 -292q0 -149 55 -224.5t163 -75.5t163 75.5zM177 824h326v-60h-326v60z" />
    <glyph glyph-name="omacron" unicode="&#x14d;" horiz-adv-x="548" 
d="M99 62q-59 72 -59 214q0 284 234 284t234 -284q0 -142 -59 -214t-175 -72t-175 72zM398.5 101.5q39.5 55.5 39.5 174.5q0 118 -39.5 173t-124.5 55t-124.5 -55t-39.5 -173q0 -119 39.5 -174.5t124.5 -55.5t124.5 55.5zM111 714h326v-60h-326v60z" />
    <glyph glyph-name="Obreve" unicode="&#x14e;" horiz-adv-x="680" 
d="M123.5 84q-75.5 94 -75.5 270q0 172 75.5 264t216.5 92t216.5 -92t75.5 -264q0 -176 -75.5 -270t-216.5 -94t-216.5 94zM503 129.5q55 75.5 55 224.5q0 292 -218 292t-218 -292q0 -149 55 -224.5t163 -75.5t163 75.5zM256 756.5q-35 15.5 -52 40t-17 50.5q0 16 12 26.5
t34 10.5q6 -43 32 -68t75 -25q48 0 74.5 26.5t33.5 71.5q21 0 33.5 -11t12.5 -30q0 -29 -18.5 -53t-53.5 -39t-82 -15q-49 0 -84 15.5z" />
    <glyph glyph-name="obreve" unicode="&#x14f;" horiz-adv-x="548" 
d="M99 62q-59 72 -59 214q0 284 234 284t234 -284q0 -142 -59 -214t-175 -72t-175 72zM398.5 101.5q39.5 55.5 39.5 174.5q0 118 -39.5 173t-124.5 55t-124.5 -55t-39.5 -173q0 -119 39.5 -174.5t124.5 -55.5t124.5 55.5zM190 646.5q-35 15.5 -52 40t-17 50.5q0 16 12 26.5
t34 10.5q6 -43 32 -68t75 -25q48 0 74.5 26.5t33.5 71.5q21 0 33.5 -11t12.5 -30q0 -29 -18.5 -53t-53.5 -39t-82 -15q-49 0 -84 15.5z" />
    <glyph glyph-name="Ohungarumlaut" unicode="&#x150;" horiz-adv-x="680" 
d="M123.5 84q-75.5 94 -75.5 270q0 172 75.5 264t216.5 92t216.5 -92t75.5 -264q0 -176 -75.5 -270t-216.5 -94t-216.5 94zM503 129.5q55 75.5 55 224.5q0 292 -218 292t-218 -292q0 -149 55 -224.5t163 -75.5t163 75.5zM312 873h85l-114 -151h-54zM463 873h85l-131 -151
h-55z" />
    <glyph glyph-name="ohungarumlaut" unicode="&#x151;" horiz-adv-x="548" 
d="M99 62q-59 72 -59 214q0 284 234 284t234 -284q0 -142 -59 -214t-175 -72t-175 72zM398.5 101.5q39.5 55.5 39.5 174.5q0 118 -39.5 173t-124.5 55t-124.5 -55t-39.5 -173q0 -119 39.5 -174.5t124.5 -55.5t124.5 55.5zM246 763h85l-114 -151h-54zM397 763h85l-131 -151
h-55z" />
    <glyph glyph-name="OE" unicode="&#x152;" horiz-adv-x="1035" 
d="M980 60q0 -36 -10.5 -48t-41.5 -12h-367v90q-77 -100 -221 -100q-141 0 -216.5 94t-75.5 270q0 172 75.5 264t216.5 92q144 0 221 -98v88h418v-60h-346v-252h298v-60h-298v-268h347zM503 129.5q55 75.5 55 224.5q0 292 -218 292t-218 -292q0 -149 55 -224.5t163 -75.5
t163 75.5z" />
    <glyph glyph-name="oe" unicode="&#x153;" horiz-adv-x="950" 
d="M908 268h-398q2 -104 46.5 -162t123.5 -58q54 0 91.5 21t62.5 67q7 13 21 13q16 0 44 -19q-22 -65 -81 -102.5t-138 -37.5q-69 0 -121 30t-82 87q-54 -117 -203 -117q-116 0 -175 72t-59 214q0 284 234 284q150 0 204 -116q30 56 83.5 86t125.5 30q105 0 164 -65t59 -181
q0 -23 -2 -46zM398.5 101.5q39.5 55.5 39.5 174.5q0 118 -39.5 173t-124.5 55t-124.5 -55t-39.5 -173q0 -119 39.5 -174.5t124.5 -55.5t124.5 55.5zM840 322q0 180 -156 180q-76 0 -120 -46t-52 -134h328z" />
    <glyph glyph-name="Racute" unicode="&#x154;" horiz-adv-x="629" 
d="M585 3q-20 -11 -43 -11q-18 0 -29.5 7t-20.5 23l-114 196q-24 42 -58.5 59.5t-93.5 17.5h-68v-295h-72v700h227q121 0 190 -53.5t69 -148.5q0 -75 -50 -129.5t-130 -67.5q29 -24 52 -61zM308 357q90 0 139.5 37t49.5 104q0 69 -46.5 104.5t-137.5 35.5h-155v-281h150z
M360 893h85l-131 -151h-66z" />
    <glyph glyph-name="racute" unicode="&#x155;" horiz-adv-x="400" 
d="M359.5 545.5q18.5 -11.5 18.5 -34.5q0 -16 -11 -29q-24 13 -66 13q-67 0 -107.5 -53t-40.5 -139v-303h-68v550h68v-99q23 46 65 76t88 30q35 0 53.5 -11.5zM247 783h85l-131 -151h-66z" />
    <glyph glyph-name="uni0156" unicode="&#x156;" horiz-adv-x="629" 
d="M585 3q-20 -11 -43 -11q-18 0 -29.5 7t-20.5 23l-114 196q-24 42 -58.5 59.5t-93.5 17.5h-68v-295h-72v700h227q121 0 190 -53.5t69 -148.5q0 -75 -50 -129.5t-130 -67.5q29 -24 52 -61zM308 357q90 0 139.5 37t49.5 104q0 69 -46.5 104.5t-137.5 35.5h-155v-281h150z
M360 -79.5q12 -12.5 12 -34.5v-11q0 -35 -12 -70.5t-30 -63.5q-26 -40 -44 -40q-16 0 -28 10q27 33 42 61.5t20 61.5h-5q-19 0 -30 12t-11 32v11q0 20 11.5 32t30.5 12h12q20 0 32 -12.5z" />
    <glyph glyph-name="uni0157" unicode="&#x157;" horiz-adv-x="400" 
d="M359.5 545.5q18.5 -11.5 18.5 -34.5q0 -16 -11 -29q-24 13 -66 13q-67 0 -107.5 -53t-40.5 -139v-303h-68v550h68v-99q23 46 65 76t88 30q35 0 53.5 -11.5zM164 -79.5q12 -12.5 12 -34.5v-11q0 -35 -12 -70.5t-30 -63.5q-26 -40 -44 -40q-16 0 -28 10q27 33 42 61.5
t20 61.5h-5q-19 0 -30 12t-11 32v11q0 20 11.5 32t30.5 12h12q20 0 32 -12.5z" />
    <glyph glyph-name="Rcaron" unicode="&#x158;" horiz-adv-x="629" 
d="M585 3q-20 -11 -43 -11q-18 0 -29.5 7t-20.5 23l-114 196q-24 42 -58.5 59.5t-93.5 17.5h-68v-295h-72v700h227q121 0 190 -53.5t69 -148.5q0 -75 -50 -129.5t-130 -67.5q29 -24 52 -61zM308 357q90 0 139.5 37t49.5 104q0 69 -46.5 104.5t-137.5 35.5h-155v-281h150z
M170 885h54l90 -86l88 86h54l-106 -131h-73z" />
    <glyph glyph-name="rcaron" unicode="&#x159;" horiz-adv-x="400" 
d="M359.5 545.5q18.5 -11.5 18.5 -34.5q0 -16 -11 -29q-24 13 -66 13q-67 0 -107.5 -53t-40.5 -139v-303h-68v550h68v-99q23 46 65 76t88 30q35 0 53.5 -11.5zM57 775h54l90 -86l88 86h54l-106 -131h-73z" />
    <glyph glyph-name="Sacute" unicode="&#x15a;" horiz-adv-x="642" 
d="M195 11.5q-58 21.5 -92 58.5t-34 81q0 20 14.5 32.5t38.5 13.5q16 -71 68 -108t134 -37q84 0 135.5 39t51.5 102q0 37 -18.5 63t-60.5 46.5t-116 39.5q-86 23 -135 48.5t-70.5 58t-21.5 80.5q0 84 62 132.5t171 48.5q95 0 158.5 -44.5t85.5 -125.5q-13 -13 -40 -13
q-28 0 -41 27q-22 44 -66.5 70t-96.5 26q-79 0 -120 -31t-41 -90q0 -30 15 -50.5t50 -37.5t99 -35q107 -30 161.5 -57t76.5 -61t22 -89q0 -63 -32 -110.5t-91.5 -73t-139.5 -25.5q-69 0 -127 21.5zM368 893h85l-131 -151h-66z" />
    <glyph glyph-name="sacute" unicode="&#x15b;" horiz-adv-x="485" 
d="M152 5q-48 15 -80 40t-32 53q0 13 8.5 23.5t21.5 14.5q36 -47 78 -68.5t101 -21.5q63 0 95.5 29t32.5 77q0 32 -19.5 52t-48 30t-78.5 23q-58 15 -93.5 29t-60 42.5t-24.5 76.5q0 51 27 86t69 52t86 17q63 0 114.5 -25t80.5 -73q-24 -25 -41 -25q-13 0 -25 14
q-24 28 -55.5 41.5t-76.5 13.5q-51 0 -81 -24t-30 -74q0 -29 18 -47t45 -27.5t74 -21.5q60 -14 97.5 -29t63.5 -46.5t26 -84.5q0 -74 -54.5 -118t-145.5 -44q-45 0 -93 15zM290 783h85l-131 -151h-66z" />
    <glyph glyph-name="Scircumflex" unicode="&#x15c;" horiz-adv-x="642" 
d="M195 11.5q-58 21.5 -92 58.5t-34 81q0 20 14.5 32.5t38.5 13.5q16 -71 68 -108t134 -37q84 0 135.5 39t51.5 102q0 37 -18.5 63t-60.5 46.5t-116 39.5q-86 23 -135 48.5t-70.5 58t-21.5 80.5q0 84 62 132.5t171 48.5q95 0 158.5 -44.5t85.5 -125.5q-13 -13 -40 -13
q-28 0 -41 27q-22 44 -66.5 70t-96.5 26q-79 0 -120 -31t-41 -90q0 -30 15 -50.5t50 -37.5t99 -35q107 -30 161.5 -57t76.5 -61t22 -89q0 -63 -32 -110.5t-91.5 -73t-139.5 -25.5q-69 0 -127 21.5zM285 875h73l111 -133h-64l-83 83l-85 -83h-64z" />
    <glyph glyph-name="scircumflex" unicode="&#x15d;" horiz-adv-x="485" 
d="M152 5q-48 15 -80 40t-32 53q0 13 8.5 23.5t21.5 14.5q36 -47 78 -68.5t101 -21.5q63 0 95.5 29t32.5 77q0 32 -19.5 52t-48 30t-78.5 23q-58 15 -93.5 29t-60 42.5t-24.5 76.5q0 51 27 86t69 52t86 17q63 0 114.5 -25t80.5 -73q-24 -25 -41 -25q-13 0 -25 14
q-24 28 -55.5 41.5t-76.5 13.5q-51 0 -81 -24t-30 -74q0 -29 18 -47t45 -27.5t74 -21.5q60 -14 97.5 -29t63.5 -46.5t26 -84.5q0 -74 -54.5 -118t-145.5 -44q-45 0 -93 15zM207 765h73l111 -133h-64l-83 83l-85 -83h-64z" />
    <glyph glyph-name="Scedilla" unicode="&#x15e;" horiz-adv-x="642" 
d="M521 52.5q-64 -55.5 -174 -61.5l-37 -46h7q42 0 68 -21t26 -60q0 -44 -35 -68.5t-86 -24.5q-45 0 -69 11t-24 31q0 6 3 14q41 -11 84 -11q30 0 47 12.5t17 33.5q0 15 -13.5 26.5t-37.5 11.5q-19 0 -40 -7l-17 32l50 66q-62 5 -112.5 27.5t-79.5 57t-29 75.5
q0 20 14.5 32.5t38.5 13.5q16 -71 68 -108t134 -37q84 0 135.5 39t51.5 102q0 37 -18.5 63t-60.5 46.5t-116 39.5q-86 23 -135 48.5t-70.5 58t-21.5 80.5q0 84 62 132.5t171 48.5q95 0 158.5 -44.5t85.5 -125.5q-13 -13 -40 -13q-28 0 -41 27q-22 44 -66.5 70t-96.5 26
q-79 0 -120 -31t-41 -90q0 -30 15 -50.5t50 -37.5t99 -35q107 -30 161.5 -57t76.5 -61t22 -89q0 -91 -64 -146.5z" />
    <glyph glyph-name="scedilla" unicode="&#x15f;" horiz-adv-x="485" 
d="M397.5 40.5q-47.5 -43.5 -127.5 -49.5l-38 -46h7q42 0 68 -21t26 -60q0 -44 -35 -68.5t-86 -24.5q-45 0 -69 11t-24 31q0 6 3 14q41 -11 84 -11q30 0 47 12.5t17 33.5q0 15 -13.5 26.5t-37.5 11.5q-19 0 -40 -7l-17 32l51 67q-66 8 -119.5 38.5t-53.5 67.5q0 13 8.5 23.5
t21.5 14.5q36 -47 78 -68.5t101 -21.5q63 0 95.5 29t32.5 77q0 32 -19.5 52t-48 30t-78.5 23q-58 15 -93.5 29t-60 42.5t-24.5 76.5q0 51 27 86t69 52t86 17q63 0 114.5 -25t80.5 -73q-24 -25 -41 -25q-13 0 -25 14q-24 28 -55.5 41.5t-76.5 13.5q-51 0 -81 -24t-30 -74
q0 -29 18 -47t45 -27.5t74 -21.5q60 -14 97.5 -29t63.5 -46.5t26 -84.5q0 -68 -47.5 -111.5z" />
    <glyph glyph-name="Scaron" unicode="&#x160;" horiz-adv-x="642" 
d="M195 11.5q-58 21.5 -92 58.5t-34 81q0 20 14.5 32.5t38.5 13.5q16 -71 68 -108t134 -37q84 0 135.5 39t51.5 102q0 37 -18.5 63t-60.5 46.5t-116 39.5q-86 23 -135 48.5t-70.5 58t-21.5 80.5q0 84 62 132.5t171 48.5q95 0 158.5 -44.5t85.5 -125.5q-13 -13 -40 -13
q-28 0 -41 27q-22 44 -66.5 70t-96.5 26q-79 0 -120 -31t-41 -90q0 -30 15 -50.5t50 -37.5t99 -35q107 -30 161.5 -57t76.5 -61t22 -89q0 -63 -32 -110.5t-91.5 -73t-139.5 -25.5q-69 0 -127 21.5zM178 885h54l90 -86l88 86h54l-106 -131h-73z" />
    <glyph glyph-name="scaron" unicode="&#x161;" horiz-adv-x="485" 
d="M152 5q-48 15 -80 40t-32 53q0 13 8.5 23.5t21.5 14.5q36 -47 78 -68.5t101 -21.5q63 0 95.5 29t32.5 77q0 32 -19.5 52t-48 30t-78.5 23q-58 15 -93.5 29t-60 42.5t-24.5 76.5q0 51 27 86t69 52t86 17q63 0 114.5 -25t80.5 -73q-24 -25 -41 -25q-13 0 -25 14
q-24 28 -55.5 41.5t-76.5 13.5q-51 0 -81 -24t-30 -74q0 -29 18 -47t45 -27.5t74 -21.5q60 -14 97.5 -29t63.5 -46.5t26 -84.5q0 -74 -54.5 -118t-145.5 -44q-45 0 -93 15zM100 775h54l90 -86l88 86h54l-106 -131h-73z" />
    <glyph glyph-name="uni0162" unicode="&#x162;" horiz-adv-x="534" 
d="M523 676q0 -17 -9 -26.5t-27 -9.5h-184v-640h-72v640h-216v60h504q4 -18 4 -24zM333 -76q26 -21 26 -60q0 -44 -35 -68.5t-86 -24.5q-45 0 -69 11t-24 31q0 6 3 14q41 -11 84 -11q30 0 47 12.5t17 33.5q0 15 -13.5 26.5t-37.5 11.5q-19 0 -40 -7l-17 32l57 75h58l-45 -55
h7q42 0 68 -21z" />
    <glyph glyph-name="uni0163" unicode="&#x163;" horiz-adv-x="374" 
d="M353.5 52.5q4.5 -9.5 4.5 -19.5q0 -19 -16 -27q-29 -14 -67 -15l-37 -46h7q42 0 68 -21t26 -60q0 -44 -35 -68.5t-86 -24.5q-45 0 -69 11t-24 31q0 6 3 14q41 -11 84 -11q30 0 47 12.5t17 33.5q0 15 -13.5 26.5t-37.5 11.5q-19 0 -40 -7l-17 32l52 69q-48 10 -76 43.5
t-28 83.5v375h-104v54h104v150h68v-150h144v-54h-144v-362q0 -84 72 -84q46 0 86 17q7 -5 11.5 -14.5z" />
    <glyph glyph-name="Tcaron" unicode="&#x164;" horiz-adv-x="534" 
d="M523 676q0 -17 -9 -26.5t-27 -9.5h-184v-640h-72v640h-216v60h504q4 -18 4 -24zM125 885h54l90 -86l88 86h54l-106 -131h-73z" />
    <glyph glyph-name="tcaron" unicode="&#x165;" horiz-adv-x="374" 
d="M353.5 52.5q4.5 -9.5 4.5 -19.5q0 -19 -16 -27q-32 -16 -83 -16q-65 0 -104 35.5t-39 95.5v375h-104v54h104v150h68v-150h144v-54h-144v-362q0 -84 72 -84q46 0 86 17q7 -5 11.5 -14.5zM7 885h54l90 -86l88 86h54l-106 -131h-73z" />
    <glyph glyph-name="Tbar" unicode="&#x166;" horiz-adv-x="533" 
d="M523 676q0 -17 -9 -26.5t-27 -9.5h-184v-277h131v-58h-131v-305h-72v305h-129v58h129v277h-216v60h504q4 -18 4 -24z" />
    <glyph glyph-name="tbar" unicode="&#x167;" horiz-adv-x="397" 
d="M353.5 52.5q4.5 -9.5 4.5 -19.5q0 -19 -16 -27q-32 -16 -83 -16q-65 0 -104 35.5t-39 95.5v165h-104v54h104v156h-104v54h104v150h68v-150h144v-54h-144v-156h144v-54h-144v-152q0 -84 72 -84q46 0 86 17q7 -5 11.5 -14.5z" />
    <glyph glyph-name="Utilde" unicode="&#x168;" horiz-adv-x="708" 
d="M152.5 54.5q-66.5 64.5 -66.5 196.5v449h72v-459q0 -97 48 -143t150 -46q103 0 150 45.5t47 143.5v459h72v-449q0 -134 -65 -197.5t-204 -63.5q-137 0 -203.5 64.5zM205 772q0 36 24.5 56t62.5 20q22 0 38.5 -6.5t36.5 -18.5q15 -10 26 -14.5t24 -4.5q41 0 48 47
q19 0 29.5 -8.5t10.5 -21.5q0 -29 -23 -50t-62 -21q-23 0 -40 6.5t-38 18.5q-16 10 -28 14.5t-26 4.5q-39 0 -47 -46q-36 0 -36 24z" />
    <glyph glyph-name="utilde" unicode="&#x169;" horiz-adv-x="609" 
d="M532 7q-21 -12 -43 -12q-21 0 -30.5 17.5t-10.5 63.5q-28 -39 -79 -62.5t-110 -23.5q-169 0 -169 185v375h68v-368q0 -73 27 -105.5t86 -32.5q53 0 99.5 27t77.5 76v403h69v-437q0 -58 15 -106zM156 662q0 36 24.5 56t62.5 20q22 0 38.5 -6.5t36.5 -18.5q15 -10 26 -14.5
t24 -4.5q41 0 48 47q19 0 29.5 -8.5t10.5 -21.5q0 -29 -23 -50t-62 -21q-23 0 -40 6.5t-38 18.5q-16 10 -28 14.5t-26 4.5q-39 0 -47 -46q-36 0 -36 24z" />
    <glyph glyph-name="Umacron" unicode="&#x16a;" horiz-adv-x="708" 
d="M152.5 54.5q-66.5 64.5 -66.5 196.5v449h72v-459q0 -97 48 -143t150 -46q103 0 150 45.5t47 143.5v459h72v-449q0 -134 -65 -197.5t-204 -63.5q-137 0 -203.5 64.5zM191 824h326v-60h-326v60z" />
    <glyph glyph-name="umacron" unicode="&#x16b;" horiz-adv-x="609" 
d="M532 7q-21 -12 -43 -12q-21 0 -30.5 17.5t-10.5 63.5q-28 -39 -79 -62.5t-110 -23.5q-169 0 -169 185v375h68v-368q0 -73 27 -105.5t86 -32.5q53 0 99.5 27t77.5 76v403h69v-437q0 -58 15 -106zM142 714h326v-60h-326v60z" />
    <glyph glyph-name="Ubreve" unicode="&#x16c;" horiz-adv-x="708" 
d="M152.5 54.5q-66.5 64.5 -66.5 196.5v449h72v-459q0 -97 48 -143t150 -46q103 0 150 45.5t47 143.5v459h72v-449q0 -134 -65 -197.5t-204 -63.5q-137 0 -203.5 64.5zM270 756.5q-35 15.5 -52 40t-17 50.5q0 16 12 26.5t34 10.5q6 -43 32 -68t75 -25q48 0 74.5 26.5
t33.5 71.5q21 0 33.5 -11t12.5 -30q0 -29 -18.5 -53t-53.5 -39t-82 -15q-49 0 -84 15.5z" />
    <glyph glyph-name="ubreve" unicode="&#x16d;" horiz-adv-x="609" 
d="M532 7q-21 -12 -43 -12q-21 0 -30.5 17.5t-10.5 63.5q-28 -39 -79 -62.5t-110 -23.5q-169 0 -169 185v375h68v-368q0 -73 27 -105.5t86 -32.5q53 0 99.5 27t77.5 76v403h69v-437q0 -58 15 -106zM221 646.5q-35 15.5 -52 40t-17 50.5q0 16 12 26.5t34 10.5q6 -43 32 -68
t75 -25q48 0 74.5 26.5t33.5 71.5q21 0 33.5 -11t12.5 -30q0 -29 -18.5 -53t-53.5 -39t-82 -15q-49 0 -84 15.5z" />
    <glyph glyph-name="Uring" unicode="&#x16e;" horiz-adv-x="708" 
d="M152.5 54.5q-66.5 64.5 -66.5 196.5v449h72v-459q0 -97 48 -143t150 -46q103 0 150 45.5t47 143.5v459h72v-449q0 -134 -65 -197.5t-204 -63.5q-137 0 -203.5 64.5zM276 769q-32 31 -32 78t32 78.5t78 31.5t78 -31.5t32 -78.5t-32 -78t-78 -31t-78 31zM398 803
q18 18 18 44q0 28 -17.5 45t-44.5 17t-45 -17t-18 -45q0 -26 18 -44t45 -18q26 0 44 18z" />
    <glyph glyph-name="uring" unicode="&#x16f;" horiz-adv-x="609" 
d="M532 7q-21 -12 -43 -12q-21 0 -30.5 17.5t-10.5 63.5q-28 -39 -79 -62.5t-110 -23.5q-169 0 -169 185v375h68v-368q0 -73 27 -105.5t86 -32.5q53 0 99.5 27t77.5 76v403h69v-437q0 -58 15 -106zM227 659q-32 31 -32 78t32 78.5t78 31.5t78 -31.5t32 -78.5t-32 -78
t-78 -31t-78 31zM349 693q18 18 18 44q0 28 -17.5 45t-44.5 17t-45 -17t-18 -45q0 -26 18 -44t45 -18q26 0 44 18z" />
    <glyph glyph-name="Uhungarumlaut" unicode="&#x170;" horiz-adv-x="708" 
d="M152.5 54.5q-66.5 64.5 -66.5 196.5v449h72v-459q0 -97 48 -143t150 -46q103 0 150 45.5t47 143.5v459h72v-449q0 -134 -65 -197.5t-204 -63.5q-137 0 -203.5 64.5zM326 873h85l-114 -151h-54zM477 873h85l-131 -151h-55z" />
    <glyph glyph-name="uhungarumlaut" unicode="&#x171;" horiz-adv-x="610" 
d="M532 7q-21 -12 -43 -12q-21 0 -30.5 17.5t-10.5 63.5q-28 -39 -79 -62.5t-110 -23.5q-169 0 -169 185v375h68v-368q0 -73 27 -105.5t86 -32.5q53 0 99.5 27t77.5 76v403h69v-437q0 -58 15 -106zM276 763h85l-114 -151h-54zM427 763h85l-131 -151h-55z" />
    <glyph glyph-name="Uogonek" unicode="&#x172;" horiz-adv-x="708" 
d="M625 700v-449q0 -117 -49 -180t-152 -77q-52 -44 -52 -98q0 -25 14 -38.5t39 -13.5q30 0 53 10q6 -9 6 -20q0 -14 -18 -24t-51 -10q-47 0 -75.5 24.5t-28.5 63.5q0 64 58 102h-13q-137 0 -203.5 64.5t-66.5 196.5v449h72v-459q0 -97 48 -143t150 -46q103 0 150 45.5
t47 143.5v459h72z" />
    <glyph glyph-name="uogonek" unicode="&#x173;" horiz-adv-x="609" 
d="M571 -169q0 -14 -18 -24t-51 -10q-47 0 -75.5 24.5t-28.5 63.5t19.5 66t55.5 47q-12 5 -18 23t-7 55q-28 -39 -79 -62.5t-110 -23.5q-169 0 -169 185v375h68v-368q0 -73 27 -105.5t86 -32.5q53 0 99.5 27t77.5 76v403h69v-437q0 -58 15 -106q-35 -23 -54 -52.5t-19 -61.5
q0 -25 14 -38.5t39 -13.5q30 0 53 10q6 -9 6 -20z" />
    <glyph glyph-name="Wcircumflex" unicode="&#x174;" horiz-adv-x="856" 
d="M841 700q-21 -141 -59 -292t-116 -408h-82q-69 232 -99.5 344t-51.5 207q-24 -108 -57 -229.5t-94 -321.5h-82q-78 242 -119.5 398.5t-65.5 301.5h72q19 -125 52.5 -257.5t101.5 -347.5q40 124 75.5 250.5t93.5 354.5h42q87 -316 115.5 -415t57.5 -189q65 212 97.5 345
t50.5 259h68zM397 875h73l111 -133h-64l-83 83l-85 -83h-64z" />
    <glyph glyph-name="wcircumflex" unicode="&#x175;" horiz-adv-x="760" 
d="M722 550q-40 -304 -152 -550h-62q-52 114 -82.5 208t-47.5 196q-18 -104 -49 -198.5t-83 -205.5h-64q-53 113 -88.5 244t-60.5 306h70q17 -146 43.5 -255.5t69.5 -203.5q96 197 130 459h66q36 -271 129 -461q87 208 103 461h78zM344 765h73l111 -133h-64l-83 83l-85 -83
h-64z" />
    <glyph glyph-name="Ycircumflex" unicode="&#x176;" horiz-adv-x="590" 
d="M570 700l-239 -406v-294h-72v294l-239 406h78l198 -339l197 339h77zM259 875h73l111 -133h-64l-83 83l-85 -83h-64z" />
    <glyph glyph-name="ycircumflex" unicode="&#x177;" horiz-adv-x="485" 
d="M474 550l-213 -592q-28 -79 -70.5 -115.5t-107.5 -36.5q-38 0 -60 11.5t-22 30.5q0 20 17 32q10 -7 30.5 -12t40.5 -5q41 0 70.5 36t50.5 110l-196 541h72l159 -443l157 443h72zM207 765h73l111 -133h-64l-83 83l-85 -83h-64z" />
    <glyph glyph-name="Ydieresis" unicode="&#x178;" horiz-adv-x="590" 
d="M570 700l-239 -406v-294h-72v294l-239 406h78l198 -339l197 339h77zM145 794v9q0 45 45 45h8q45 0 45 -45v-9q0 -45 -45 -45h-8q-45 0 -45 45zM349 794v9q0 45 45 45h8q45 0 45 -45v-9q0 -45 -45 -45h-8q-45 0 -45 45z" />
    <glyph glyph-name="Zacute" unicode="&#x179;" horiz-adv-x="580" 
d="M528 60v-60h-474v60l387 580h-389v60h468v-64l-382 -576h390zM337 893h85l-131 -151h-66z" />
    <glyph glyph-name="zacute" unicode="&#x17a;" horiz-adv-x="500" 
d="M470 58v-58h-440v48l340 444h-314v58h406v-47l-340 -445h348zM297 783h85l-131 -151h-66z" />
    <glyph glyph-name="Zdotaccent" unicode="&#x17b;" horiz-adv-x="580" 
d="M528 60v-60h-474v60l387 580h-389v60h468v-64l-382 -576h390zM241 806v9q0 45 45 45h8q45 0 45 -45v-9q0 -45 -45 -45h-8q-45 0 -45 45z" />
    <glyph glyph-name="zdotaccent" unicode="&#x17c;" horiz-adv-x="500" 
d="M470 58v-58h-440v48l340 444h-314v58h406v-47l-340 -445h348zM201 696v9q0 45 45 45h8q45 0 45 -45v-9q0 -45 -45 -45h-8q-45 0 -45 45z" />
    <glyph glyph-name="Zcaron" unicode="&#x17d;" horiz-adv-x="580" 
d="M528 60v-60h-474v60l387 580h-389v60h468v-64l-382 -576h390zM147 885h54l90 -86l88 86h54l-106 -131h-73z" />
    <glyph glyph-name="zcaron" unicode="&#x17e;" horiz-adv-x="500" 
d="M470 58v-58h-440v48l340 444h-314v58h406v-47l-340 -445h348zM107 775h54l90 -86l88 86h54l-106 -131h-73z" />
    <glyph glyph-name="uni018F" unicode="&#x18f;" horiz-adv-x="692" 
d="M554.5 615.5q79.5 -94.5 79.5 -267.5q0 -175 -78.5 -266.5t-227.5 -91.5q-140 0 -213 83t-73 242v48h518q-3 138 -62 211t-168 73q-103 0 -168 -55q-17 -14 -33 -14q-24 0 -44 35q31 44 98 70.5t146 26.5q146 0 225.5 -94.5zM558 301h-444q0 -119 56 -183.5t159 -64.5
q212 0 229 248z" />
    <glyph glyph-name="florin" unicode="&#x192;" horiz-adv-x="552" 
d="M392 695.5q-23 -25.5 -36.5 -78t-27.5 -153.5h157v-51h-164l-60 -426q-12 -86 -58 -134.5t-132 -48.5q-27 0 -51 8l15 56q18 -6 42 -6q45 0 75.5 36t40.5 102l58 413h-143v51h150q15 111 35.5 177.5t56.5 102.5t96 36q40 0 62 -5l-10 -56l-44 2q-39 0 -62 -25.5z" />
    <glyph glyph-name="Ohorn" unicode="&#x1a0;" horiz-adv-x="680" 
d="M632 354q0 -176 -75.5 -270t-216.5 -94t-216.5 94t-75.5 270q0 172 75.5 264t216.5 92q96 0 160 -42q22 5 35 22.5t13 42.5q0 30 -29 52q2 13 13 23t25 10q26 0 42 -19.5t16 -55.5q0 -40 -18.5 -68.5t-51.5 -43.5q87 -93 87 -277zM503 129.5q55 75.5 55 224.5
q0 292 -218 292t-218 -292q0 -149 55 -224.5t163 -75.5t163 75.5z" />
    <glyph glyph-name="ohorn" unicode="&#x1a1;" horiz-adv-x="548" 
d="M525.5 505.5q-20.5 -29.5 -57.5 -43.5q40 -68 40 -186q0 -142 -59 -214t-175 -72t-175 72t-59 214q0 284 234 284q103 0 161 -56q20 7 32 24t12 40q0 30 -29 52q2 13 13 23t25 10q26 0 42 -19.5t16 -55.5q0 -43 -20.5 -72.5zM398.5 101.5q39.5 55.5 39.5 174.5
q0 118 -39.5 173t-124.5 55t-124.5 -55t-39.5 -173q0 -119 39.5 -174.5t124.5 -55.5t124.5 55.5z" />
    <glyph glyph-name="Uhorn" unicode="&#x1af;" horiz-adv-x="708" 
d="M152.5 54.5q-66.5 64.5 -66.5 196.5v449h72v-459q0 -97 48 -143t150 -46q103 0 150 45.5t47 143.5v459h72v-449q0 -134 -65 -197.5t-204 -63.5q-137 0 -203.5 64.5zM625 700q28 0 47 18.5t19 48.5t-29 52q2 13 13 23t25 10q26 0 42 -19.5t16 -55.5q0 -58 -36 -90.5
t-97 -36.5v50z" />
    <glyph glyph-name="uhorn" unicode="&#x1b0;" horiz-adv-x="609" 
d="M607 539.5q-33 -32.5 -90 -38.5v-388q0 -58 15 -106q-21 -12 -43 -12q-21 0 -30.5 17.5t-10.5 63.5q-28 -39 -79 -62.5t-110 -23.5q-169 0 -169 185v375h68v-368q0 -73 27 -105.5t86 -32.5q53 0 99.5 27t77.5 76v403h59q28 0 47 18.5t19 48.5t-29 52q2 13 13 23t25 10
q26 0 42 -19.5t16 -55.5q0 -55 -33 -87.5z" />
    <glyph glyph-name="uni01CD" unicode="&#x1cd;" horiz-adv-x="620" 
d="M480 203h-340q-24 -79 -51 -203h-74q52 214 113 380.5t145 319.5h75q83 -152 144 -318.5t113 -381.5h-74q-27 124 -51 203zM463 263q-61 194 -153 364q-92 -170 -153 -364h306zM167 885h54l90 -86l88 86h54l-106 -131h-73z" />
    <glyph glyph-name="uni01CE" unicode="&#x1ce;" horiz-adv-x="558" 
d="M483.5 64.5q7.5 -26.5 26.5 -47.5q-10 -10 -23.5 -16t-25.5 -6q-20 0 -33.5 23t-17.5 63q-31 -42 -83 -66.5t-109 -24.5q-76 0 -122 39.5t-46 103.5q0 94 91.5 147t266.5 61v32q0 66 -33.5 98.5t-101.5 32.5q-44 0 -81.5 -18.5t-80.5 -61.5q-6 -6 -15 -6q-10 0 -22 8.5
t-23 24.5q45 53 102.5 81t122.5 28q93 0 146.5 -50t53.5 -137v-236q0 -46 7.5 -72.5zM325 76q48 30 83 85v124q-288 -12 -288 -151q0 -88 103 -88q54 0 102 30zM134 775h54l90 -86l88 86h54l-106 -131h-73z" />
    <glyph glyph-name="uni01CF" unicode="&#x1cf;" horiz-adv-x="350" 
d="M139 700h72v-700h-72v700zM32 885h54l90 -86l88 86h54l-106 -131h-73z" />
    <glyph glyph-name="uni01D0" unicode="&#x1d0;" horiz-adv-x="288" 
d="M110 550h68v-550h-68v550zM1 775h54l90 -86l88 86h54l-106 -131h-73z" />
    <glyph glyph-name="uni01D1" unicode="&#x1d1;" horiz-adv-x="680" 
d="M123.5 84q-75.5 94 -75.5 270q0 172 75.5 264t216.5 92t216.5 -92t75.5 -264q0 -176 -75.5 -270t-216.5 -94t-216.5 94zM503 129.5q55 75.5 55 224.5q0 292 -218 292t-218 -292q0 -149 55 -224.5t163 -75.5t163 75.5zM197 885h54l90 -86l88 86h54l-106 -131h-73z" />
    <glyph glyph-name="uni01D2" unicode="&#x1d2;" horiz-adv-x="548" 
d="M99 62q-59 72 -59 214q0 284 234 284t234 -284q0 -142 -59 -214t-175 -72t-175 72zM398.5 101.5q39.5 55.5 39.5 174.5q0 118 -39.5 173t-124.5 55t-124.5 -55t-39.5 -173q0 -119 39.5 -174.5t124.5 -55.5t124.5 55.5zM131 775h54l90 -86l88 86h54l-106 -131h-73z" />
    <glyph glyph-name="uni01D3" unicode="&#x1d3;" horiz-adv-x="708" 
d="M152.5 54.5q-66.5 64.5 -66.5 196.5v449h72v-459q0 -97 48 -143t150 -46q103 0 150 45.5t47 143.5v459h72v-449q0 -134 -65 -197.5t-204 -63.5q-137 0 -203.5 64.5zM211 885h54l90 -86l88 86h54l-106 -131h-73z" />
    <glyph glyph-name="uni01D4" unicode="&#x1d4;" horiz-adv-x="609" 
d="M532 7q-21 -12 -43 -12q-21 0 -30.5 17.5t-10.5 63.5q-28 -39 -79 -62.5t-110 -23.5q-169 0 -169 185v375h68v-368q0 -73 27 -105.5t86 -32.5q53 0 99.5 27t77.5 76v403h69v-437q0 -58 15 -106zM162 775h54l90 -86l88 86h54l-106 -131h-73z" />
    <glyph glyph-name="uni01D5" unicode="&#x1d5;" horiz-adv-x="708" 
d="M152.5 54.5q-66.5 64.5 -66.5 196.5v449h72v-459q0 -97 48 -143t150 -46q103 0 150 45.5t47 143.5v459h72v-449q0 -134 -65 -197.5t-204 -63.5q-137 0 -203.5 64.5zM204 794v9q0 45 45 45h8q45 0 45 -45v-9q0 -45 -45 -45h-8q-45 0 -45 45zM408 794v9q0 45 45 45h8
q45 0 45 -45v-9q0 -45 -45 -45h-8q-45 0 -45 45zM191 959h326v-60h-326v60z" />
    <glyph glyph-name="uni01D6" unicode="&#x1d6;" horiz-adv-x="609" 
d="M532 7q-21 -12 -43 -12q-21 0 -30.5 17.5t-10.5 63.5q-28 -39 -79 -62.5t-110 -23.5q-169 0 -169 185v375h68v-368q0 -73 27 -105.5t86 -32.5q53 0 99.5 27t77.5 76v403h69v-437q0 -58 15 -106zM155 684v9q0 45 45 45h8q45 0 45 -45v-9q0 -45 -45 -45h-8q-45 0 -45 45z
M359 684v9q0 45 45 45h8q45 0 45 -45v-9q0 -45 -45 -45h-8q-45 0 -45 45zM142 849h326v-60h-326v60z" />
    <glyph glyph-name="uni01D7" unicode="&#x1d7;" horiz-adv-x="708" 
d="M152.5 54.5q-66.5 64.5 -66.5 196.5v449h72v-459q0 -97 48 -143t150 -46q103 0 150 45.5t47 143.5v459h72v-449q0 -134 -65 -197.5t-204 -63.5q-137 0 -203.5 64.5zM205 784v9q0 45 45 45h8q45 0 45 -45v-9q0 -45 -45 -45h-8q-45 0 -45 45zM409 784v9q0 45 45 45h8
q45 0 45 -45v-9q0 -45 -45 -45h-8q-45 0 -45 45zM402 1018h85l-131 -151h-66z" />
    <glyph glyph-name="uni01D8" unicode="&#x1d8;" horiz-adv-x="609" 
d="M532 7q-21 -12 -43 -12q-21 0 -30.5 17.5t-10.5 63.5q-28 -39 -79 -62.5t-110 -23.5q-169 0 -169 185v375h68v-368q0 -73 27 -105.5t86 -32.5q53 0 99.5 27t77.5 76v403h69v-437q0 -58 15 -106zM155 684v9q0 45 45 45h8q45 0 45 -45v-9q0 -45 -45 -45h-8q-45 0 -45 45z
M359 684v9q0 45 45 45h8q45 0 45 -45v-9q0 -45 -45 -45h-8q-45 0 -45 45zM352 918h85l-131 -151h-66z" />
    <glyph glyph-name="uni01D9" unicode="&#x1d9;" horiz-adv-x="708" 
d="M152.5 54.5q-66.5 64.5 -66.5 196.5v449h72v-459q0 -97 48 -143t150 -46q103 0 150 45.5t47 143.5v459h72v-449q0 -134 -65 -197.5t-204 -63.5q-137 0 -203.5 64.5zM203 784v9q0 45 45 45h8q45 0 45 -45v-9q0 -45 -45 -45h-8q-45 0 -45 45zM407 784v9q0 45 45 45h8
q45 0 45 -45v-9q0 -45 -45 -45h-8q-45 0 -45 45zM210 1010h54l90 -86l88 86h54l-106 -131h-73z" />
    <glyph glyph-name="uni01DA" unicode="&#x1da;" horiz-adv-x="609" 
d="M532 7q-21 -12 -43 -12q-21 0 -30.5 17.5t-10.5 63.5q-28 -39 -79 -62.5t-110 -23.5q-169 0 -169 185v375h68v-368q0 -73 27 -105.5t86 -32.5q53 0 99.5 27t77.5 76v403h69v-437q0 -58 15 -106zM153 684v9q0 45 45 45h8q45 0 45 -45v-9q0 -45 -45 -45h-8q-45 0 -45 45z
M357 684v9q0 45 45 45h8q45 0 45 -45v-9q0 -45 -45 -45h-8q-45 0 -45 45zM160 910h54l90 -86l88 86h54l-106 -131h-73z" />
    <glyph glyph-name="uni01DB" unicode="&#x1db;" horiz-adv-x="708" 
d="M152.5 54.5q-66.5 64.5 -66.5 196.5v449h72v-459q0 -97 48 -143t150 -46q103 0 150 45.5t47 143.5v459h72v-449q0 -134 -65 -197.5t-204 -63.5q-137 0 -203.5 64.5zM205 784v9q0 45 45 45h8q45 0 45 -45v-9q0 -45 -45 -45h-8q-45 0 -45 45zM409 784v9q0 45 45 45h8
q45 0 45 -45v-9q0 -45 -45 -45h-8q-45 0 -45 45zM237 1018h83l101 -151h-66z" />
    <glyph glyph-name="uni01DC" unicode="&#x1dc;" horiz-adv-x="609" 
d="M532 7q-21 -12 -43 -12q-21 0 -30.5 17.5t-10.5 63.5q-28 -39 -79 -62.5t-110 -23.5q-169 0 -169 185v375h68v-368q0 -73 27 -105.5t86 -32.5q53 0 99.5 27t77.5 76v403h69v-437q0 -58 15 -106zM155 684v9q0 45 45 45h8q45 0 45 -45v-9q0 -45 -45 -45h-8q-45 0 -45 45z
M359 684v9q0 45 45 45h8q45 0 45 -45v-9q0 -45 -45 -45h-8q-45 0 -45 45zM187 918h83l101 -151h-66z" />
    <glyph glyph-name="Gcaron" unicode="&#x1e6;" horiz-adv-x="666" 
d="M604 373v-300q-37 -38 -98.5 -60.5t-128.5 -22.5q-155 0 -235 91.5t-80 268.5q0 173 81.5 266.5t233.5 93.5q71 0 132 -26.5t92 -70.5q-20 -35 -44 -35q-16 0 -33 14q-34 29 -69 42t-79 13q-118 0 -179 -75.5t-61 -221.5q0 -150 59.5 -223.5t180.5 -73.5q50 0 93 13
t63 35v210h-141q-20 0 -28.5 14t-8.5 48h250zM234 885h54l90 -86l88 86h54l-106 -131h-73z" />
    <glyph glyph-name="gcaron" unicode="&#x1e7;" horiz-adv-x="585" 
d="M556.5 569.5q8.5 -9.5 8.5 -30.5q0 -6 -2 -24q-74 0 -103 -20q40 -48 40 -119q0 -192 -221 -192q-68 0 -99.5 -9.5t-31.5 -29.5q0 -45 161 -45q113 0 175 -38t62 -108q0 -75 -66.5 -115.5t-190.5 -40.5q-117 0 -178 36t-61 106q0 40 27.5 71t76.5 46v3q-30 8 -48 29.5
t-18 51.5q0 25 20 44.5t54 26.5q-43 24 -66.5 63.5t-23.5 88.5q0 196 226 196q71 0 121 -31q25 23 54.5 36.5t56.5 13.5q18 0 26.5 -9.5zM395.5 270.5q33.5 30.5 33.5 101.5q0 70 -34 102t-110 32q-74 0 -108.5 -32.5t-34.5 -101.5q0 -132 143 -132q77 0 110.5 30.5z
M164.5 15q-43.5 -23 -43.5 -67q0 -46 43 -70t125 -24q92 0 139 23.5t47 70.5q0 48 -42.5 69t-139.5 21q-85 0 -128.5 -23zM150 775h54l90 -86l88 86h54l-106 -131h-73z" />
    <glyph glyph-name="Aringacute" unicode="&#x1fa;" horiz-adv-x="620" 
d="M480 203h-340q-24 -79 -51 -203h-74q52 214 113 380.5t145 319.5h75q83 -152 144 -318.5t113 -381.5h-74q-27 124 -51 203zM463 263q-61 194 -153 364q-92 -170 -153 -364h306zM232 769q-32 31 -32 78t32 78.5t78 31.5t78 -31.5t32 -78.5t-32 -78t-78 -31t-78 31z
M354 803q18 18 18 44q0 28 -17.5 45t-44.5 17t-45 -17t-18 -45q0 -26 18 -44t45 -18q26 0 44 18zM357 1190h85l-131 -151h-66z" />
    <glyph glyph-name="aringacute" unicode="&#x1fb;" horiz-adv-x="558" 
d="M483.5 64.5q7.5 -26.5 26.5 -47.5q-10 -10 -23.5 -16t-25.5 -6q-20 0 -33.5 23t-17.5 63q-31 -42 -83 -66.5t-109 -24.5q-76 0 -122 39.5t-46 103.5q0 94 91.5 147t266.5 61v32q0 66 -33.5 98.5t-101.5 32.5q-44 0 -81.5 -18.5t-80.5 -61.5q-6 -6 -15 -6q-10 0 -22 8.5
t-23 24.5q45 53 102.5 81t122.5 28q93 0 146.5 -50t53.5 -137v-236q0 -46 7.5 -72.5zM325 76q48 30 83 85v124q-288 -12 -288 -151q0 -88 103 -88q54 0 102 30zM199 659q-32 31 -32 78t32 78.5t78 31.5t78 -31.5t32 -78.5t-32 -78t-78 -31t-78 31zM321 693q18 18 18 44
q0 28 -17.5 45t-44.5 17t-45 -17t-18 -45q0 -26 18 -44t45 -18q26 0 44 18zM324 1080h85l-131 -151h-66z" />
    <glyph glyph-name="AEacute" unicode="&#x1fc;" horiz-adv-x="930" 
d="M535 640v-237h297v-60h-297v-283h335q0 -36 -10.5 -48t-41.5 -12h-348v206h-318q-45 -110 -63 -206h-74q38 188 144 373.5t266 326.5h450v-60h-340zM470 266v374h-9q-82 -69 -155 -166.5t-126 -207.5h290zM572 933h85l-131 -151h-66z" />
    <glyph glyph-name="aeacute" unicode="&#x1fd;" horiz-adv-x="918" 
d="M874 268h-396q2 -111 45 -166.5t125 -55.5q63 0 98 21.5t56 66.5q6 14 20 14t45 -20q-19 -66 -75 -103t-144 -37q-70 0 -122.5 29t-81.5 86q-41 -56 -98.5 -85.5t-127.5 -29.5q-72 0 -120 38.5t-48 105.5q0 99 92 148.5t266 51.5v41q0 65 -33 98t-102 33
q-52 0 -87.5 -20.5t-74.5 -59.5q-6 -6 -15 -6q-10 0 -22 9t-23 24q42 50 98.5 79.5t126.5 29.5q65 0 111.5 -25t69.5 -72q32 48 83 72.5t113 24.5q110 0 167.5 -60t57.5 -179q0 -32 -4 -53zM808 322q0 84 -37.5 134t-120.5 50q-75 0 -118.5 -47.5t-51.5 -136.5h328z
M338.5 80q54.5 36 79.5 95q-10 43 -10 100q-151 -6 -219.5 -41t-68.5 -101q0 -89 103 -89q61 0 115.5 36zM496 783h85l-131 -151h-66z" />
    <glyph glyph-name="Oslashacute" unicode="&#x1fe;" horiz-adv-x="680" 
d="M632 354q0 -176 -75.5 -270t-216.5 -94q-109 0 -181 58l-34 -48h-72l65 92q-70 93 -70 262q0 172 75.5 264t216.5 92q108 0 177 -54l32 45h72l-61 -87q72 -92 72 -260zM162 154l316 446q-52 46 -138 46q-218 0 -218 -292q0 -127 40 -200zM503 129.5q55 75.5 55 224.5
q0 127 -42 199l-317 -448q52 -51 141 -51q108 0 163 75.5zM387 893h85l-131 -151h-66z" />
    <glyph glyph-name="oslashacute" unicode="&#x1ff;" horiz-adv-x="548" 
d="M460 475q48 -70 48 -199q0 -142 -59 -214t-175 -72q-93 0 -151 47l-29 -37h-64l58 76q-48 71 -48 200q0 284 234 284q94 0 152 -47l28 37h64zM132 133l255 330q-40 41 -113 41q-85 0 -124.5 -55t-39.5 -173q0 -90 22 -143zM416 417l-255 -330q40 -41 113 -41
q85 0 124.5 55.5t39.5 174.5q0 90 -22 141zM321 783h85l-131 -151h-66z" />
    <glyph glyph-name="uni0218" unicode="&#x218;" horiz-adv-x="642" 
d="M195 11.5q-58 21.5 -92 58.5t-34 81q0 20 14.5 32.5t38.5 13.5q16 -71 68 -108t134 -37q84 0 135.5 39t51.5 102q0 37 -18.5 63t-60.5 46.5t-116 39.5q-86 23 -135 48.5t-70.5 58t-21.5 80.5q0 84 62 132.5t171 48.5q95 0 158.5 -44.5t85.5 -125.5q-13 -13 -40 -13
q-28 0 -41 27q-22 44 -66.5 70t-96.5 26q-79 0 -120 -31t-41 -90q0 -30 15 -50.5t50 -37.5t99 -35q107 -30 161.5 -57t76.5 -61t22 -89q0 -63 -32 -110.5t-91.5 -73t-139.5 -25.5q-69 0 -127 21.5zM366 -79.5q12 -12.5 12 -34.5v-11q0 -35 -12 -70.5t-30 -63.5
q-26 -40 -44 -40q-16 0 -28 10q27 33 42 61.5t20 61.5h-5q-19 0 -30 12t-11 32v11q0 20 11.5 32t30.5 12h12q20 0 32 -12.5z" />
    <glyph glyph-name="uni0219" unicode="&#x219;" horiz-adv-x="485" 
d="M152 5q-48 15 -80 40t-32 53q0 13 8.5 23.5t21.5 14.5q36 -47 78 -68.5t101 -21.5q63 0 95.5 29t32.5 77q0 32 -19.5 52t-48 30t-78.5 23q-58 15 -93.5 29t-60 42.5t-24.5 76.5q0 51 27 86t69 52t86 17q63 0 114.5 -25t80.5 -73q-24 -25 -41 -25q-13 0 -25 14
q-24 28 -55.5 41.5t-76.5 13.5q-51 0 -81 -24t-30 -74q0 -29 18 -47t45 -27.5t74 -21.5q60 -14 97.5 -29t63.5 -46.5t26 -84.5q0 -74 -54.5 -118t-145.5 -44q-45 0 -93 15zM288 -79.5q12 -12.5 12 -34.5v-11q0 -35 -12 -70.5t-30 -63.5q-26 -40 -44 -40q-16 0 -28 10
q27 33 42 61.5t20 61.5h-5q-19 0 -30 12t-11 32v11q0 20 11.5 32t30.5 12h12q20 0 32 -12.5z" />
    <glyph glyph-name="uni021A" unicode="&#x21a;" horiz-adv-x="534" 
d="M523 676q0 -17 -9 -26.5t-27 -9.5h-184v-640h-72v640h-216v60h504q4 -18 4 -24zM314 -79.5q12 -12.5 12 -34.5v-11q0 -35 -12 -70.5t-30 -63.5q-26 -40 -44 -40q-16 0 -28 10q27 33 42 61.5t20 61.5h-5q-19 0 -30 12t-11 32v11q0 20 11.5 32t30.5 12h12q20 0 32 -12.5z
" />
    <glyph glyph-name="uni021B" unicode="&#x21b;" horiz-adv-x="374" 
d="M353.5 52.5q4.5 -9.5 4.5 -19.5q0 -19 -16 -27q-32 -16 -83 -16q-65 0 -104 35.5t-39 95.5v375h-104v54h104v150h68v-150h144v-54h-144v-362q0 -84 72 -84q46 0 86 17q7 -5 11.5 -14.5zM294 -79.5q12 -12.5 12 -34.5v-11q0 -35 -12 -70.5t-30 -63.5q-26 -40 -44 -40
q-16 0 -28 10q27 33 42 61.5t20 61.5h-5q-19 0 -30 12t-11 32v11q0 20 11.5 32t30.5 12h12q20 0 32 -12.5z" />
    <glyph glyph-name="uni0237" unicode="&#x237;" horiz-adv-x="270" 
d="M-10.5 -186q-24.5 6 -35.5 17q-9 9 -9 22q0 12 5 21t11 9q32 -17 76 -17q30 0 46.5 18t16.5 54v612h68v-603q0 -68 -35 -103.5t-99 -35.5q-20 0 -44.5 6z" />
    <glyph glyph-name="uni0251" unicode="&#x251;" horiz-adv-x="598" 
d="M521 8q-25 -12 -46 -12q-27 0 -34 67q-32 -38 -70.5 -55.5t-97.5 -17.5q-64 0 -116.5 29.5t-84.5 93t-32 159.5q0 89 30.5 154t87.5 99.5t134 34.5q42 0 81.5 -14t65.5 -33v37h68v-422q0 -71 14 -120zM369.5 67.5q38.5 21.5 69.5 63.5v316q-23 25 -64.5 42t-82.5 17
q-87 0 -134.5 -61.5t-47.5 -172.5q0 -110 44 -168t124 -58q53 0 91.5 21.5z" />
    <glyph glyph-name="uni0259" unicode="&#x259;" horiz-adv-x="560" 
d="M397.5 525.5q54.5 -34.5 83.5 -99t29 -152.5q0 -133 -66 -208.5t-181 -75.5q-105 0 -164 65t-59 181q0 23 2 46h398q-2 104 -46.5 162t-123.5 58q-54 0 -91.5 -21t-62.5 -67q-7 -13 -21 -13q-16 0 -44 19q22 65 81 102.5t138 37.5q73 0 127.5 -34.5zM386 94q44 46 52 134
h-328q0 -180 156 -180q76 0 120 46z" />
    <glyph glyph-name="uni02BB" unicode="&#x2bb;" horiz-adv-x="241" 
d="M77 573q-15 17 -15 51q0 60 44 119q11 14 24.5 24t25.5 10t24 -15q-53 -45 -53 -90q0 -43 35 -72q0 -19 -12.5 -31.5t-33.5 -12.5q-24 0 -39 17z" />
    <glyph glyph-name="uni02BC" unicode="&#x2bc;" horiz-adv-x="241" 
d="M58 504q53 45 53 90q0 43 -35 72q0 19 12.5 31.5t33.5 12.5q24 0 39 -17t15 -51q0 -64 -44 -119q-11 -14 -24.5 -24t-25.5 -10q-11 0 -24 15z" />
    <glyph glyph-name="uni02BE" unicode="&#x2be;" 
d="M-55 675q27 0 45 18t18 44q0 28 -18 45t-45 17v48q46 0 78 -31.5t32 -78.5t-32 -78t-78 -31v47z" />
    <glyph glyph-name="uni02BF" unicode="&#x2bf;" 
d="M-23 659q-32 31 -32 78t32 78.5t78 31.5v-48q-27 0 -45 -17t-18 -45q0 -26 18 -44t45 -18v-47q-46 0 -78 31z" />
    <glyph glyph-name="circumflex" unicode="&#x2c6;" horiz-adv-x="243" 
d="M85 765h73l111 -133h-64l-83 83l-85 -83h-64z" />
    <glyph glyph-name="caron" unicode="&#x2c7;" horiz-adv-x="243" 
d="M-22 775h54l90 -86l88 86h54l-106 -131h-73z" />
    <glyph glyph-name="uni02C8" unicode="&#x2c8;" 
d="M-34 725h68v-147h-68v147z" />
    <glyph glyph-name="uni02C9" unicode="&#x2c9;" horiz-adv-x="440" 
d="M57 714h326v-60h-326v60z" />
    <glyph glyph-name="uni02CA" unicode="&#x2ca;" 
d="M14 783h85l-131 -151h-66z" />
    <glyph glyph-name="uni02CB" unicode="&#x2cb;" 
d="M-92 783h83l101 -151h-66z" />
    <glyph glyph-name="uni02CC" unicode="&#x2cc;" 
d="M-34 -40h68v-147h-68v147z" />
    <glyph glyph-name="breve" unicode="&#x2d8;" horiz-adv-x="243" 
d="M37 646.5q-35 15.5 -52 40t-17 50.5q0 16 12 26.5t34 10.5q6 -43 32 -68t75 -25q48 0 74.5 26.5t33.5 71.5q21 0 33.5 -11t12.5 -30q0 -29 -18.5 -53t-53.5 -39t-82 -15q-49 0 -84 15.5z" />
    <glyph glyph-name="dotaccent" unicode="&#x2d9;" horiz-adv-x="248" 
d="M75 696v9q0 45 45 45h8q45 0 45 -45v-9q0 -45 -45 -45h-8q-45 0 -45 45z" />
    <glyph glyph-name="ring" unicode="&#x2da;" horiz-adv-x="244" 
d="M44 659q-32 31 -32 78t32 78.5t78 31.5t78 -31.5t32 -78.5t-32 -78t-78 -31t-78 31zM166 693q18 18 18 44q0 28 -17.5 45t-44.5 17t-45 -17t-18 -45q0 -26 18 -44t45 -18q26 0 44 18z" />
    <glyph glyph-name="ogonek" unicode="&#x2db;" horiz-adv-x="243" 
d="M46.5 -181.5q-28.5 24.5 -28.5 63.5q0 43 24.5 71.5t68.5 50.5h41q-35 -23 -54 -52.5t-19 -61.5q0 -25 14 -38.5t39 -13.5q30 0 53 10q6 -9 6 -20q0 -14 -18 -24t-51 -10q-47 0 -75.5 24.5z" />
    <glyph glyph-name="tilde" unicode="&#x2dc;" horiz-adv-x="244" 
d="M-28 662q0 36 24.5 56t62.5 20q22 0 38.5 -6.5t36.5 -18.5q15 -10 26 -14.5t24 -4.5q41 0 48 47q19 0 29.5 -8.5t10.5 -21.5q0 -29 -23 -50t-62 -21q-23 0 -40 6.5t-38 18.5q-16 10 -28 14.5t-26 4.5q-39 0 -47 -46q-36 0 -36 24z" />
    <glyph glyph-name="hungarumlaut" unicode="&#x2dd;" horiz-adv-x="243" 
d="M84 763h85l-114 -151h-54zM235 763h85l-131 -151h-55z" />
    <glyph glyph-name="gravecomb" unicode="&#x300;" 
d="M-118 783h83l101 -151h-66z" />
    <glyph glyph-name="acutecomb" unicode="&#x301;" 
d="M-131 783h85l-131 -151h-66z" />
    <glyph glyph-name="uni0302" unicode="&#x302;" 
d="M-37 765h73l111 -133h-64l-83 83l-85 -83h-64z" />
    <glyph glyph-name="tildecomb" unicode="&#x303;" 
d="M-149 662q0 36 24.5 56t62.5 20q22 0 38.5 -6.5t36.5 -18.5q15 -10 26 -14.5t24 -4.5q41 0 48 47q19 0 29.5 -8.5t10.5 -21.5q0 -29 -23 -50t-62 -21q-23 0 -40 6.5t-38 18.5q-16 10 -28 14.5t-26 4.5q-39 0 -47 -46q-36 0 -36 24z" />
    <glyph glyph-name="uni0304" unicode="&#x304;" 
d="M-163 714h326v-60h-326v60z" />
    <glyph glyph-name="uni0306" unicode="&#x306;" 
d="M-84 646.5q-35 15.5 -52 40t-17 50.5q0 16 12 26.5t34 10.5q6 -43 32 -68t75 -25q48 0 74.5 26.5t33.5 71.5q21 0 33.5 -11t12.5 -30q0 -29 -18.5 -53t-53.5 -39t-82 -15q-49 0 -84 15.5z" />
    <glyph glyph-name="uni0307" unicode="&#x307;" 
d="M-49 696v9q0 45 45 45h8q45 0 45 -45v-9q0 -45 -45 -45h-8q-45 0 -45 45z" />
    <glyph glyph-name="uni0308" unicode="&#x308;" 
d="M-151 684v9q0 45 45 45h8q45 0 45 -45v-9q0 -45 -45 -45h-8q-45 0 -45 45zM53 684v9q0 45 45 45h8q45 0 45 -45v-9q0 -45 -45 -45h-8q-45 0 -45 45z" />
    <glyph glyph-name="hookabovecomb" unicode="&#x309;" 
d="M-182 623q-12 8 -12 19q37 20 52.5 42t15.5 51q0 22 -11.5 34.5t-32.5 12.5t-33.5 -13t-20.5 -35q-15 0 -25 8.5t-10 21.5q0 27 25.5 47.5t65.5 20.5q45 0 72.5 -24.5t27.5 -69.5q0 -80 -89 -123q-13 0 -25 8z" />
    <glyph glyph-name="uni030A" unicode="&#x30a;" 
d="M-78 659q-32 31 -32 78t32 78.5t78 31.5t78 -31.5t32 -78.5t-32 -78t-78 -31t-78 31zM44 693q18 18 18 44q0 28 -17.5 45t-44.5 17t-45 -17t-18 -45q0 -26 18 -44t45 -18q26 0 44 18z" />
    <glyph glyph-name="uni030B" unicode="&#x30b;" 
d="M-28 763h85l-114 -151h-54zM123 763h85l-131 -151h-55z" />
    <glyph glyph-name="uni030C" unicode="&#x30c;" 
d="M-145 775h54l90 -86l88 86h54l-106 -131h-73z" />
    <glyph glyph-name="uni031B" unicode="&#x31b;" 
d="M-80 362q28 0 47 18.5t19 48.5t-29 52q2 13 13 23t25 10q26 0 42 -19.5t16 -55.5q0 -58 -36 -90.5t-97 -36.5v50z" />
    <glyph glyph-name="dotbelowcomb" unicode="&#x323;" 
d="M-160 -134v9q0 45 45 45h8q45 0 45 -45v-9q0 -45 -45 -45h-8q-45 0 -45 45z" />
    <glyph glyph-name="uni0324" unicode="&#x324;" 
d="M-151 -134v9q0 45 45 45h8q45 0 45 -45v-9q0 -45 -45 -45h-8q-45 0 -45 45zM53 -134v9q0 45 45 45h8q45 0 45 -45v-9q0 -45 -45 -45h-8q-45 0 -45 45z" />
    <glyph glyph-name="uni0326" unicode="&#x326;" 
d="M-197 -79.5q12 -12.5 12 -34.5v-11q0 -35 -12 -70.5t-30 -63.5q-26 -40 -44 -40q-16 0 -28 10q27 33 42 61.5t20 61.5h-5q-19 0 -30 12t-11 32v11q0 20 11.5 32t30.5 12h12q20 0 32 -12.5z" />
    <glyph glyph-name="uni0327" unicode="&#x327;" 
d="M65 -76q26 -21 26 -60q0 -44 -35 -68.5t-86 -24.5q-45 0 -69 11t-24 31q0 6 3 14q41 -11 84 -11q30 0 47 12.5t17 33.5q0 15 -13.5 26.5t-37.5 11.5q-19 0 -40 -7l-17 32l57 75h58l-45 -55h7q42 0 68 -21z" />
    <glyph glyph-name="uni0328" unicode="&#x328;" 
d="M-69.5 -181.5q-28.5 24.5 -28.5 63.5q0 43 24.5 71.5t68.5 50.5h41q-35 -23 -54 -52.5t-19 -61.5q0 -25 14 -38.5t39 -13.5q30 0 53 10q6 -9 6 -20q0 -14 -18 -24t-51 -10q-47 0 -75.5 24.5z" />
    <glyph glyph-name="uni032E" unicode="&#x32e;" 
d="M-86 -186.5q-35 15.5 -52 40t-17 50.5q0 16 12 26.5t34 10.5q6 -43 32 -68t75 -25q48 0 74.5 26.5t33.5 71.5q21 0 33.5 -11t12.5 -30q0 -29 -18.5 -53t-53.5 -39t-82 -15q-49 0 -84 15.5z" />
    <glyph glyph-name="uni0331" unicode="&#x331;" 
d="M-163 -70h326v-60h-326v60z" />
    <glyph glyph-name="uni0394" unicode="&#x394;" horiz-adv-x="546" 
d="M546 30v-30h-546v30l240 670h66zM467 58l-194 556l-194 -556h388z" />
    <glyph glyph-name="uni03A9" unicode="&#x3a9;" horiz-adv-x="676" 
d="M50 58h170v89q-49 16 -87.5 55t-60.5 93.5t-22 114.5q0 90 36 158t101 105t151 37t151 -37t101 -105t36 -158q0 -61 -22 -115.5t-60.5 -93.5t-87.5 -54v-89h170v-58h-230v187q48 10 86 42.5t59 79.5t21 101q0 73 -28 127.5t-78.5 84t-117.5 29.5t-117.5 -29.5t-78 -84
t-27.5 -127.5q0 -54 21 -101t59 -79.5t86 -42.5v-187h-231v58z" />
    <glyph glyph-name="uni03BC" unicode="&#x3bc;" horiz-adv-x="610" 
d="M521 50q4 -23 11 -43q-24 -12 -43 -12q-22 0 -30.5 18t-10.5 61q-27 -42 -65 -64t-94 -22q-90 0 -132 49v-257h-67v770h67v-370q0 -68 35.5 -103t98.5 -35q49 0 90.5 29t66.5 79v400h69v-437q0 -40 4 -63z" />
    <glyph glyph-name="pi" unicode="&#x3c0;" horiz-adv-x="640" 
d="M440 22.5q-27 32.5 -27 83.5v384h-212v-490h-65v490h-107v60h568v-60h-119v-380q0 -36 16.5 -50t46.5 -14q20 0 40.5 5t31.5 13v-51q-22 -13 -43.5 -18t-49.5 -5q-53 0 -80 32.5z" />
    <glyph glyph-name="uni0E01" unicode="&#xe01;" horiz-adv-x="605" 
d="M411.5 563.5q51.5 -22.5 82.5 -68.5t31 -112v-383h-65v383q0 76 -43 113.5t-119 37.5q-48 0 -89.5 -15t-66 -36.5t-24.5 -39.5q0 -13 12 -25.5t27.5 -21t25.5 -8.5q9 0 19.5 4t13.5 5q20 8 27 8t19 -16t12 -26q0 -7 -7 -7q-62 0 -86 -33t-24 -101v-222h-65v222
q0 47 10.5 78.5t31.5 52.5q-29 12 -54 36t-25 51q0 32 32 66t87.5 57t123.5 23q62 0 113.5 -22.5z" />
    <glyph glyph-name="uni0E02" unicode="&#xe02;" horiz-adv-x="570" 
d="M183 31.5q-46 40.5 -46 119.5v103q0 19 13 26q48 29 74.5 49t43 47t16.5 64q0 49 -27 72t-68 23q-38 0 -65.5 -23.5t-27.5 -60.5q0 -28 14 -42.5t37 -14.5q21 0 33 12.5t12 33.5q0 20 -11 31.5t-30 11.5q-12 0 -20 -2q1 9 12 17.5t28 8.5q27 0 47 -18t20 -53
q0 -37 -26.5 -61.5t-63.5 -24.5q-40 0 -69 27.5t-29 73.5q0 58 39.5 93t100.5 35q66 0 108 -34t42 -102q0 -46 -18 -80.5t-45.5 -58.5t-74.5 -57v-95q0 -59 26 -84t85 -25q43 0 67 10t34.5 35t10.5 71v417h65v-413q0 -92 -44 -132t-134 -40q-83 0 -129 40.5z" />
    <glyph glyph-name="uni0E03" unicode="&#xe03;" horiz-adv-x="596" 
d="M199.5 31q-49.5 40 -49.5 128v70q0 41 19 69t57 65q35 33 52.5 58.5t17.5 58.5q0 25 -11 37.5t-31 12.5q-36 0 -61 -43q-15 25 -28 36t-35 11t-36 -13.5t-14 -38.5q0 -26 14.5 -40t35.5 -14q39 0 54 38q15 -8 15 -23q0 -25 -21 -42t-49 -17q-42 0 -68.5 26.5t-26.5 70.5
q0 45 27.5 72t63.5 27q25 0 41 -9.5t28 -29.5q25 39 73 39q39 0 64 -25.5t25 -74.5q0 -44 -20 -75.5t-57 -67.5q-33 -34 -48.5 -57.5t-15.5 -54.5v-66q0 -114 119 -114q65 0 91 26t26 88v417h65v-417q0 -82 -46.5 -125t-136.5 -43q-84 0 -133.5 40z" />
    <glyph glyph-name="uni0E04" unicode="&#xe04;" horiz-adv-x="624" 
d="M486.5 525.5q57.5 -60.5 57.5 -165.5v-360h-65v355q0 179 -165 179q-83 0 -130 -43.5t-47 -135.5q0 -56 18 -102q26 60 67 95t98 35q41 0 70 -26t29 -69t-26 -67.5t-68 -24.5q-27 0 -47 14t-20 37q0 19 13 26q11 -17 23.5 -25t30.5 -8q23 0 34 12.5t11 35.5
q0 22 -13.5 34.5t-38.5 12.5q-43 0 -77 -42.5t-54.5 -118.5t-22.5 -174h-51q-15 0 -15 20q0 44 19 122q6 30 6 31q0 5 -11 29q-18 36 -29 70t-11 83q0 73 31 125t86 79t125 27q115 0 172.5 -60.5z" />
    <glyph glyph-name="uni0E05" unicode="&#xe05;" horiz-adv-x="640" 
d="M525 509.5q35 -50.5 35 -139.5v-370h-65v370q0 71 -19.5 105t-66.5 51q-24 -22 -83 -60q-59 36 -86 60q-50 -20 -76.5 -60t-26.5 -111q0 -56 18 -102q26 59 68 94.5t99 35.5q41 0 70 -26t29 -69t-26 -67.5t-68 -24.5q-27 0 -47 14t-20 37q0 19 13 26q11 -17 23.5 -25
t30.5 -8q23 0 34 12.5t11 35.5q0 22 -13.5 34.5t-38.5 12.5q-43 0 -77.5 -42.5t-55.5 -118.5t-23 -174h-51q-15 0 -15 20q0 44 19 122q6 30 6 31q0 5 -11 29q-18 36 -29 70t-11 83q0 90 42.5 145t124.5 86q51 -32 87 -66q32 31 84 66q80 -26 115 -76.5z" />
    <glyph glyph-name="uni0E06" unicode="&#xe06;" horiz-adv-x="650" 
d="M556 44l2 -29q0 -15 -14 -15h-54q-28 85 -92 137.5t-147 64.5q0 -27 1 -39l1 -44q0 -60 -19.5 -94t-74.5 -34q-43 0 -69 30.5t-26 90.5q0 62 35 100.5t90 43.5q7 30 21.5 53t40.5 54q28 34 41.5 59t13.5 58q0 24 -11.5 36t-30.5 12q-38 0 -61 -41q-11 23 -26 35t-37 12
t-36 -14t-14 -38q0 -23 14.5 -36.5t35.5 -13.5q22 0 35 12t16 29q9 -1 14.5 -7.5t5.5 -16.5q0 -25 -21.5 -43t-50.5 -18q-42 0 -68.5 25.5t-26.5 67.5q0 46 27.5 72.5t63.5 26.5q52 0 69 -39q18 37 73 37q38 0 63.5 -24.5t25.5 -73.5q0 -46 -16.5 -76.5t-49.5 -72.5
q-36 -43 -45 -77q76 -11 138.5 -50t93.5 -90v462h65v-465q0 -31 4 -67zM183 56q6 13 6 39l-1 37q0 20 -1 31l-1 41q-66 -10 -66 -89q0 -34 10.5 -53t28.5 -19t24 13z" />
    <glyph glyph-name="uni0E07" unicode="&#xe07;" horiz-adv-x="520" 
d="M203 4q-39 8 -41 18q-25 122 -54 202t-73 141q8 12 20 20t25 8q12 0 20 -5.5t16 -17.5q58 -95 101 -309q1 -7 18.5 -11t46.5 -4q28 0 46.5 4.5t19.5 13.5q18 111 27.5 216.5t9.5 176.5q0 40 -13.5 57.5t-40.5 17.5q-21 0 -33.5 -11t-12.5 -30q0 -20 11 -31.5t31 -11.5
q18 0 34 6q4 -5 4 -13q0 -13 -12.5 -23.5t-36.5 -10.5q-37 0 -60 22.5t-23 61.5q0 41 28 66t73 25q56 0 86 -32t30 -92q0 -81 -12 -193.5t-36 -241.5q-2 -12 -36.5 -19.5t-77.5 -7.5q-46 0 -85 8z" />
    <glyph glyph-name="uni0E08" unicode="&#xe08;" horiz-adv-x="588" 
d="M292.5 -1q-29.5 8 -30.5 19q-4 71 -8.5 131.5t-11.5 97.5q-11 59 -57 59q-21 0 -33 -11t-12 -32q0 -19 13 -31t34 -12q15 0 31 7q2 -4 2 -12q0 -15 -13.5 -26t-34.5 -11q-38 0 -61 22.5t-23 62.5q0 41 27 66t70 25q46 0 75 -25.5t38 -68.5q13 -61 25 -212q0 -5 11.5 -8
t28.5 -3q18 0 29 3.5t11 8.5q4 70 23 178q9 49 13.5 84t4.5 70q0 74 -40.5 112.5t-117.5 38.5q-55 0 -97 -21t-77 -61q-6 -6 -10 -8.5t-11 -2.5q-11 0 -23 11t-21 26q35 45 96 77.5t143 32.5q101 0 162 -53t61 -152q0 -35 -4.5 -67t-14.5 -86q-11 -61 -17.5 -106t-10.5 -104
q-1 -11 -32.5 -19t-66.5 -8q-41 0 -70.5 8z" />
    <glyph glyph-name="uni0E09" unicode="&#xe09;" horiz-adv-x="631" 
d="M578.5 158.5q17.5 -26.5 17.5 -62.5q0 -43 -31 -71.5t-75 -28.5t-74.5 28.5t-30.5 71.5q0 26 9.5 45.5t26.5 36.5h-6q-57 0 -102.5 -54t-66.5 -124h-39q-10 0 -14 3.5t-4 11.5v96q0 18 1 40t2 34q3 35 3 73q0 27 -14 41.5t-38 14.5q-22 0 -36 -13.5t-14 -35.5
q0 -21 14 -34t36 -13q21 0 33 10q4 -4 4 -13q0 -14 -13 -25.5t-38 -11.5q-34 0 -59 23.5t-25 63.5t30 68.5t74 28.5q48 0 79.5 -28.5t31.5 -75.5q0 -33 -4 -89l-2 -32q30 42 73.5 65.5t90.5 23.5q30 0 51 -4q20 20 20 42v115q0 73 -44.5 113t-127.5 40q-65 0 -111 -25.5
t-92 -71.5q-4 -4 -10 -4q-11 0 -24.5 10.5t-23.5 29.5q44 51 113 83t148 32q111 0 174 -53t63 -154v-125q0 -30 -24 -52q31 -17 48.5 -43.5zM527 62q13 14 13 38q0 49 -54 68q-22 -16 -33.5 -31.5t-11.5 -36.5q0 -23 12.5 -37.5t36.5 -14.5t37 14z" />
    <glyph glyph-name="uni0E0A" unicode="&#xe0a;" horiz-adv-x="615" 
d="M515 339v-176q0 -92 -49.5 -132t-144.5 -40q-82 0 -135.5 41t-53.5 119v98q0 18 13 26q56 39 89.5 80.5t33.5 95.5q0 40 -25.5 61t-66.5 21q-36 0 -55 -18t-19 -47q0 -23 12 -36.5t32 -13.5q21 0 33 12.5t12 33.5t-9 33q6 3 16 3q14 0 24 -12.5t10 -31.5q0 -35 -24 -59.5
t-64 -24.5q-39 0 -65.5 26t-26.5 70q0 47 35.5 79t93.5 32q60 0 100.5 -34t40.5 -91q0 -71 -38 -124t-87 -87v-91q0 -57 33.5 -83t91.5 -26q69 0 98.5 25t29.5 91v180q0 40 -14 62.5t-29 22.5q-9 0 -17.5 -1.5t-18.5 -1.5q-7 0 -14.5 13t-7.5 21t6 9q55 14 84.5 47.5
t51.5 99.5q21 0 37 -11t16 -28q0 -28 -29.5 -65.5t-65.5 -55.5q66 -27 66 -112z" />
    <glyph glyph-name="uni0E0B" unicode="&#xe0b;" horiz-adv-x="615" 
d="M526 346v-187q0 -80 -55 -124t-148 -44q-86 0 -139.5 40.5t-53.5 127.5v70q0 41 21 70t61 65q37 34 55.5 59.5t18.5 58.5q0 24 -11.5 36t-30.5 12q-36 0 -61 -43q-15 25 -28 36t-35 11t-36 -14t-14 -38q0 -23 14.5 -36.5t35.5 -13.5q36 0 54 36q15 -5 15 -24
q0 -24 -20 -40t-50 -16q-42 0 -68.5 25.5t-26.5 67.5q0 46 27.5 72.5t63.5 26.5q26 0 41.5 -9.5t27.5 -29.5q25 39 73 39q38 0 63.5 -24.5t25.5 -73.5q0 -44 -21 -75.5t-61 -69.5q-34 -32 -51.5 -56t-17.5 -56v-66q0 -58 35 -86t94 -28q68 0 102.5 27t34.5 87v187
q0 43 -13.5 64t-29.5 21q-6 0 -16.5 -2.5t-17.5 -2.5t-14.5 13t-7.5 21t6 9q55 14 83.5 45.5t50.5 96.5q23 -2 38 -12.5t15 -26.5q0 -27 -28.5 -61.5t-64.5 -52.5q64 -23 64 -112z" />
    <glyph glyph-name="uni0E0C" unicode="&#xe0c;" horiz-adv-x="920" 
d="M827 44l1 -24q0 -20 -15 -20h-53q-34 78 -92 122t-133 52q1 -18 1 -64q0 -57 -20.5 -88t-66.5 -31q-41 0 -68 29t-27 78q0 59 33 90.5t83 38.5v156q0 76 -44.5 114t-127.5 38q-48 0 -89.5 -15.5t-66 -37t-24.5 -39.5q0 -13 12.5 -25.5t29 -21t26.5 -8.5q13 0 33 8
q18 6 25 6q6 0 15 -12.5t12.5 -24.5t-3.5 -12q-62 0 -86.5 -32.5t-24.5 -99.5v-103q0 -38 16 -57.5t43 -19.5q26 0 39 13.5t13 35.5t-13 34.5t-35 12.5q-15 0 -39 -6q-3 6 -3 13q0 15 12.5 25t36.5 10q38 0 63.5 -23t25.5 -66t-29.5 -70t-74.5 -27q-52 0 -86 32.5t-34 91.5
v104q0 47 10.5 79t32.5 53q-29 12 -54.5 36t-25.5 51q0 32 32 66t87.5 57t123.5 23q103 0 170 -52t67 -151v-157q66 -7 123 -35t100 -76v461h65v-438q0 -52 4 -94zM469 58q5 15 5 54q0 22 -2 64q-28 -4 -45 -20.5t-17 -54.5q0 -27 10 -42.5t29 -15.5q15 0 20 15z" />
    <glyph glyph-name="uni0E0D" unicode="&#xe0d;" horiz-adv-x="940" 
d="M509 32.5q-49 41.5 -49 137.5v213q0 78 -41.5 115t-125.5 37q-49 0 -89 -15t-63 -37t-23 -40q0 -13 14.5 -25.5t34 -21t29.5 -8.5q16 0 36 8q18 6 24 6q8 0 18.5 -15.5t10.5 -25.5q0 -8 -9 -8q-119 0 -119 -132v-103q0 -38 16 -57.5t43 -19.5q26 0 39 13.5t13 35.5
t-13 34.5t-35 12.5q-15 0 -39 -6q-3 6 -3 13q0 15 12.5 25t36.5 10q38 0 63.5 -23t25.5 -66t-29.5 -70t-74.5 -27q-52 0 -86 32.5t-34 91.5v104q0 87 52 132q-32 12 -60.5 36t-28.5 51q0 32 30 66t84.5 57t123.5 23q105 0 168.5 -51.5t63.5 -151.5v-211q0 -50 13 -77t42 -38
t80 -11q53 0 81.5 11t41 37.5t12.5 75.5v406h65v-406q0 -98 -49 -138.5t-151 -40.5t-151 41.5zM523.5 -202q-41.5 26 -41.5 72q0 38 23.5 59.5t57.5 21.5q31 0 50 -19.5t19 -44.5q0 -18 -9 -29.5t-23 -11.5q-6 0 -14 3q5 8 5 24q0 15 -7.5 24.5t-21.5 9.5q-15 0 -24 -8
t-9 -23q0 -24 26.5 -40t74.5 -16q59 0 89 20.5t44 70.5q7 23 29 23q16 0 43 -12q-12 -74 -68.5 -112t-136.5 -38q-65 0 -106.5 26z" />
    <glyph glyph-name="uni0E0E" unicode="&#xe0e;" horiz-adv-x="630" 
d="M484 534.5q66 -51.5 66 -168.5v-611h-66q-19 26 -47.5 52t-61.5 45q-25 -46 -70 -73.5t-97 -27.5t-86.5 26t-34.5 65q0 26 20 49t54 36.5t76 13.5q48 0 99 -16q7 30 8 62q28 0 41.5 -11.5t13.5 -28.5q0 -23 -5 -46q54 -29 91 -71v536q0 97 -44.5 133t-126.5 36
q-50 0 -92.5 -14t-67.5 -34.5t-25 -38.5q0 -12 13 -26t29 -23.5t23 -9.5q6 0 16.5 4t13.5 5q22 10 31 10q7 0 16 -11.5t12.5 -23t-4.5 -11.5q-44 0 -65.5 -27t-21.5 -72q0 -24 3 -51t4 -35q8 -56 8 -88q0 -46 -26 -71.5t-74 -25.5q-40 0 -65.5 25t-25.5 63q0 37 22 58t50 21
q17 0 27.5 -9.5t10.5 -24.5h-19q-22 0 -33.5 -12t-11.5 -33q0 -17 12 -29.5t33 -12.5t32.5 14t11.5 36q0 30 -6 60.5t-7 35.5q-1 7 -6 33t-5 48q0 56 30 86q-34 11 -63 39.5t-29 54.5q0 28 33 61.5t90 56.5t126 23q104 0 170 -51.5zM273.5 -180q29.5 20 47.5 59
q-43 15 -78 15q-45 0 -71 -16t-26 -37q0 -18 17 -29.5t44 -11.5q37 0 66.5 20z" />
    <glyph glyph-name="uni0E0F" unicode="&#xe0f;" horiz-adv-x="630" 
d="M484 534.5q66 -51.5 66 -168.5v-616h-68l-74 55l-78 -52l-53 50q-22 -26 -51 -41t-63 -15q-40 0 -68 23t-28 60q0 40 31 63t70 23q47 0 92 -35q13 42 13 83q23 0 37.5 -9.5t14.5 -29.5q0 -41 -22 -83l32 -29l74 48l78 -56l-2 561q0 97 -44.5 133t-126.5 36
q-50 0 -92.5 -14t-67.5 -34.5t-25 -38.5q0 -12 13 -26t29 -23.5t23 -9.5q6 0 16.5 4t13.5 5q22 10 31 10q7 0 16 -11.5t12.5 -23t-4.5 -11.5q-44 0 -65.5 -27t-21.5 -72q0 -24 3 -51t4 -35q8 -56 8 -88q0 -46 -26 -71.5t-74 -25.5q-40 0 -65.5 25t-25.5 63q0 37 22 58t50 21
q17 0 27.5 -9.5t10.5 -24.5h-19q-22 0 -33.5 -12t-11.5 -33q0 -17 12 -29.5t33 -12.5t32.5 14t11.5 36q0 30 -6 60.5t-7 35.5q-1 7 -6 33t-5 48q0 56 30 86q-34 11 -63 39.5t-29 54.5q0 28 33 61.5t90 56.5t126 23q104 0 170 -51.5zM240 -162q-20 17 -35.5 25.5t-33.5 8.5
q-24 0 -40.5 -10t-16.5 -30q0 -19 15.5 -30t38.5 -11q42 0 72 47z" />
    <glyph glyph-name="uni0E10" unicode="&#xe10;" horiz-adv-x="589" 
d="M524 549q0 -23 -32 -33.5t-82 -10.5q-19 0 -77 10q-26 5 -55.5 9t-54.5 4q-82 0 -82 -76q0 -32 12 -47l26 2q77 9 142 7q83 -3 129.5 -45t46.5 -116q0 -27 -4.5 -61t-9.5 -68q-12 -78 -14 -106q-1 -12 -29.5 -19.5t-68.5 -7.5q-41 0 -72 8.5t-31 19.5q-1 54 -3 89.5
t-7 69.5q-6 36 -17.5 49t-33.5 13q-19 0 -31 -11.5t-12 -30.5t11 -30t32 -11q19 0 34 11q5 -7 5 -13q0 -14 -14.5 -25t-41.5 -11q-34 0 -56 22t-22 57q0 39 26.5 63.5t68.5 24.5q93 0 108 -96q10 -68 12 -141q0 -5 12.5 -8.5t29.5 -3.5q18 0 29 3.5t12 8.5l5 33
q6 41 11.5 85t5.5 77q0 58 -32.5 87t-109.5 29q-46 0 -132 -9l-42 -4q-40 44 -40 103q0 61 42.5 96.5t104.5 35.5q23 0 50.5 -3.5t51.5 -7.5q52 -8 68 -8q77 0 116 26q15 -21 15 -40zM483 -78.5q21 -20.5 21 -54.5q0 -15 -4.5 -32t-9.5 -33q-18 -48 -18 -84h-64l-54 33
l-62 -36l-44 46q-18 -21 -42 -33.5t-50 -12.5q-41 0 -64 24t-23 54q0 37 24.5 58t61.5 21q23 0 42.5 -11.5t38.5 -29.5q7 27 7 65q25 0 34.5 -5t9.5 -20q0 -41 -17 -75l28 -29l54 30l71 -37q0 22 17 54q8 16 12 27t4 24q0 17 -9 27t-25 10q-15 0 -24.5 -9t-9.5 -23t9 -24.5
t26 -13.5q-1 -6 -8 -9.5t-18 -3.5q-19 0 -33.5 14.5t-14.5 36.5q0 33 21.5 52.5t53.5 19.5q38 0 59 -20.5zM220 -209q-38 38 -64 38q-16 0 -28.5 -9t-12.5 -25q0 -18 12 -27t31 -9q40 0 62 32z" />
    <glyph glyph-name="uni0E11" unicode="&#xe11;" horiz-adv-x="655" 
d="M542 545.5q33 -34.5 33 -100.5v-445h-65v439q0 49 -13.5 68t-44.5 19q-26 0 -47.5 -13t-50 -46.5t-76.5 -101.5q-31 -44 -47 -75t-16 -68l-1 -222h-49q-20 0 -20 20q0 4 2 24q3 42 3 62v120q0 35 11 64t24 48t41 55q17 24 28.5 49.5t11.5 46.5q0 19 -8 30t-22 11
q-30 0 -55 -43q-16 26 -28 36.5t-33 10.5q-22 0 -35 -14t-13 -38q0 -23 13.5 -36.5t34.5 -13.5q18 0 31.5 10.5t20.5 25.5q15 -8 15 -23q0 -22 -20.5 -39.5t-47.5 -17.5q-42 0 -67.5 25.5t-25.5 67.5q0 46 26.5 72.5t62.5 26.5q26 0 40.5 -9.5t26.5 -29.5q11 18 29 28.5
t40 10.5q29 0 48 -18t25 -50q24 30 57 49t68 19q60 0 93 -34.5z" />
    <glyph glyph-name="uni0E12" unicode="&#xe12;" horiz-adv-x="935" 
d="M841.5 50q1.5 -23 1.5 -30q0 -20 -21 -20h-45q-34 78 -91 119.5t-132 50.5v-60q0 -119 -90 -119q-41 0 -68 29t-27 78q0 54 35 85t84 38v149q0 72 -18 105.5t-65 50.5q-24 -22 -83 -60q-59 36 -86 60q-48 -20 -75.5 -65.5t-27.5 -118.5q0 -118 66 -182q23 24 92 74l25 19
q18 15 28 31t10 31q0 24 -13 36.5t-34 12.5q-22 0 -35.5 -11.5t-13.5 -32.5q0 -17 7 -29.5t23 -25.5q-11 -12 -29 -12q-21 0 -35 20.5t-14 45.5q0 41 28 67t71 26q45 0 71 -27t26 -63q0 -37 -14 -59t-46 -47l-20 -16q-48 -37 -76.5 -63t-48 -60.5t-19.5 -76.5h-57q-5 0 -8 2
t-3 9q0 21 8 38.5t23 42.5q12 17 12 22q0 2 -12 16q-33 35 -56.5 82.5t-23.5 129.5q0 91 45 152.5t125 91.5q51 -32 87 -66q32 31 84 66q79 -25 113 -75.5t34 -140.5v-149q66 -7 123 -35.5t99 -76.5v467h65v-450q0 -53 1.5 -76zM486 58.5q6 15.5 6 53.5q0 20 -2 58
q-28 -4 -46.5 -20.5t-18.5 -48.5q0 -27 10 -42.5t29 -15.5q16 0 22 15.5z" />
    <glyph glyph-name="uni0E13" unicode="&#xe13;" horiz-adv-x="937" 
d="M886 171.5q19 -28.5 19 -66.5q0 -52 -31.5 -80.5t-77.5 -28.5t-76 28t-30 79q0 28 12 49.5t34 42.5h-16q-47 0 -90 -28t-69 -73.5t-26 -93.5h-58q-5 0 -8 2t-3 9q0 5 1 9q4 19 4 103l-1 260q0 152 -169 152q-51 0 -93 -15t-66 -37t-24 -40q0 -13 14.5 -25.5t34 -21
t29.5 -8.5q14 0 38 11q18 8 25 8q6 0 15 -12.5t12.5 -24.5t-3.5 -12q-63 0 -94.5 -36t-31.5 -101v-103q0 -38 16 -57.5t43 -19.5q26 0 39 13.5t13 35.5t-13 34.5t-35 12.5q-15 0 -39 -6q-3 6 -3 13q0 15 12.5 25t36.5 10q38 0 63.5 -23t25.5 -66t-29.5 -70t-74.5 -27
q-52 0 -86 32.5t-34 91.5v104q0 85 52 132q-32 12 -60.5 36t-28.5 51q0 32 31 66t87.5 57t127.5 23q109 0 171.5 -51t62.5 -152v-237q34 46 82.5 71.5t105.5 25.5q29 0 56 -6q16 22 16 49v290h65v-290q0 -21 -5.5 -36.5t-19.5 -32.5q32 -17 51 -45.5zM835 64q14 16 14 44
q0 25 -14 43.5t-39 29.5q-28 -23 -40 -37t-12 -38q0 -26 14 -42t38 -16q25 0 39 16z" />
    <glyph glyph-name="uni0E14" unicode="&#xe14;" horiz-adv-x="622" 
d="M482.5 524q59.5 -62 59.5 -169v-355h-65v350q0 90 -41.5 137t-125.5 47t-132 -51t-48 -136q0 -108 65 -188q19 20 81 62q31 21 35 24q18 14 27 31.5t9 32.5q0 24 -12.5 37t-33.5 13q-22 0 -36 -12t-14 -33q0 -17 8.5 -30t26.5 -26q-8 -7 -13.5 -9.5t-14.5 -2.5
q-24 0 -39.5 20.5t-15.5 46.5q0 42 27 68t71 26q45 0 71.5 -28t26.5 -63q0 -37 -14.5 -61.5t-45.5 -46.5q-20 -14 -22 -16q-49 -35 -78 -59.5t-49.5 -58t-20.5 -74.5h-57q-5 0 -8 2t-3 9q0 21 8 39.5t23 44.5q12 17 12 23q0 8 -17 37q-27 47 -44.5 93.5t-17.5 108.5
q0 66 32.5 118.5t88 81.5t124.5 29q113 0 172.5 -62z" />
    <glyph glyph-name="uni0E15" unicode="&#xe15;" horiz-adv-x="630" 
d="M516 513q34 -52 34 -143v-370h-65v370q0 73 -18 108t-64 48q-29 -26 -81 -60q-54 32 -84 60q-47 -18 -76 -65.5t-29 -118.5q0 -109 76 -181q15 17 44 36t33 22q27 16 35 23q37 30 37 64q0 22 -13.5 35.5t-33.5 13.5q-22 0 -35.5 -12t-13.5 -33q0 -17 8.5 -30t26.5 -26
q-8 -7 -13.5 -9.5t-14.5 -2.5q-24 0 -39.5 20.5t-15.5 46.5q0 42 27 68t70 26q45 0 72 -27.5t27 -64.5q0 -38 -14 -60.5t-45 -44.5q-60 -41 -89.5 -65.5t-51.5 -59.5t-22 -81h-57q-5 0 -8 2t-3 9q0 17 6.5 34t17.5 37q6 11 10.5 20.5t4.5 16.5q0 4 -15 22q-33 41 -56 87
t-23 114q0 92 45 155t127 89q45 -28 85 -66q37 36 82 66q78 -21 112 -73z" />
    <glyph glyph-name="uni0E16" unicode="&#xe16;" horiz-adv-x="615" 
d="M468 534q67 -52 67 -151v-383h-65v383q0 76 -44.5 114t-127.5 38q-48 0 -89.5 -15.5t-66 -37t-24.5 -39.5q0 -13 12.5 -25.5t29 -21t26.5 -8.5q13 0 33 8q18 6 25 6q6 0 15 -12.5t12.5 -24.5t-3.5 -12q-62 0 -86.5 -32.5t-24.5 -99.5v-103q0 -38 16 -57.5t43 -19.5
q26 0 39 13.5t13 35.5t-13 34.5t-35 12.5q-15 0 -39 -6q-3 6 -3 13q0 15 12.5 25t36.5 10q39 0 64 -23t25 -66t-29.5 -70t-74.5 -27q-52 0 -86 32.5t-34 91.5v104q0 47 10.5 79t32.5 53q-29 12 -54.5 36t-25.5 51q0 32 32 66t87.5 57t123.5 23q103 0 170 -52z" />
    <glyph glyph-name="uni0E17" unicode="&#xe17;" horiz-adv-x="665" 
d="M553.5 553.5q31.5 -32.5 31.5 -94.5v-459h-65v455q0 75 -59 75q-36 0 -64.5 -30t-57.5 -93q-55 -120 -79 -202t-26 -163l-1 -42h-54q-8 0 -11.5 4t-3.5 14q0 7 2.5 33.5t2.5 60.5v373q0 23 -11.5 38t-34.5 15q-22 0 -33.5 -12.5t-11.5 -34.5q0 -23 13.5 -36t35.5 -13h24
q0 -40 -41 -40q-31 0 -55.5 24.5t-24.5 64.5q0 41 27 68t70 27q47 0 77.5 -27.5t30.5 -77.5l-1 -205q33 100 59 159q30 69 73.5 110t102.5 41q53 0 84.5 -32.5z" />
    <glyph glyph-name="uni0E18" unicode="&#xe18;" horiz-adv-x="590" 
d="M178.5 5.5q-41.5 14.5 -60 48.5t-18.5 96v114q16 4 34 4q16 0 23.5 -5t7.5 -17v-92q0 -43 8.5 -65t35.5 -33t84 -11q58 0 88.5 10t41.5 31t11 60v77q0 47 -18.5 68t-60.5 31q-51 13 -174 13l-80 -1q-17 15 -28 48.5t-11 64.5q0 62 45 98.5t114 36.5q22 0 55 -3l44 -4
q60 -6 79 -6q67 0 106 26q15 -19 15 -39q0 -23 -28 -34t-76 -11q-36 0 -97 9q-9 1 -41 5t-57 4q-48 0 -73 -21.5t-25 -59.5q0 -17 3.5 -34t10.5 -26h52q123 0 182 -14q62 -15 95 -48t33 -103v-73q0 -62 -21.5 -96.5t-65.5 -48.5t-119 -14q-73 0 -114.5 14.5z" />
    <glyph glyph-name="uni0E19" unicode="&#xe19;" horiz-adv-x="637" 
d="M602 99q0 -46 -31.5 -74.5t-77.5 -28.5q-47 0 -77.5 28.5t-30.5 74.5q0 28 10.5 48t28.5 37h-11q-46 0 -92.5 -26t-76.5 -68.5t-30 -89.5h-48q-20 0 -20 20q0 11 1 20q3 51 3 73l-1 372q0 23 -11.5 38t-34.5 15q-22 0 -33.5 -12.5t-11.5 -34.5q0 -23 13.5 -36t35.5 -13
h24q0 -40 -41 -40q-31 0 -55.5 24.5t-24.5 64.5q0 41 27 68t70 27q47 0 77.5 -27.5t30.5 -77.5l-1 -349q35 48 88.5 74t113.5 26q32 0 57 -4q10 12 14.5 22.5t4.5 24.5v301h65v-306q0 -33 -24 -59q69 -32 69 -112zM532 62.5q14 14.5 14 40.5q0 50 -58 70
q-24 -17 -36.5 -32.5t-12.5 -37.5q0 -25 14.5 -40t39.5 -15t39 14.5z" />
    <glyph glyph-name="uni0E1A" unicode="&#xe1a;" horiz-adv-x="665" 
d="M179 50q-17 20 -23.5 54.5t-6.5 85.5v295q0 23 -11.5 38t-34.5 15q-22 0 -33.5 -12.5t-11.5 -34.5q0 -23 13.5 -36t35.5 -13h24q0 -40 -41 -40q-31 0 -55.5 24.5t-24.5 64.5q0 41 27 68t70 27q47 0 77.5 -27.5t30.5 -77.5l-1 -298q0 -81 20 -102q37 -38 135 -38
q100 0 134 38q11 12 14 31t3 54v410h65v-386q0 -58 -6.5 -88t-25.5 -52q-54 -59 -184 -59q-141 0 -190 59z" />
    <glyph glyph-name="uni0E1B" unicode="&#xe1b;" horiz-adv-x="665" 
d="M179 50q-17 20 -23.5 54.5t-6.5 85.5v295q0 23 -11.5 38t-34.5 15q-22 0 -33.5 -12.5t-11.5 -34.5q0 -23 13.5 -36t35.5 -13h24q0 -40 -41 -40q-31 0 -55.5 24.5t-24.5 64.5q0 41 27 68t70 27q47 0 77.5 -27.5t30.5 -77.5l-1 -298q0 -81 20 -102q37 -38 135 -38
q100 0 134 38q11 12 14 31t3 54v617h65v-593q0 -58 -6.5 -88t-25.5 -52q-54 -59 -184 -59q-141 0 -190 59z" />
    <glyph glyph-name="uni0E1C" unicode="&#xe1c;" horiz-adv-x="624" 
d="M543 49l1 -27q0 -13 -3.5 -17.5t-11.5 -4.5h-51v14q0 46 -47.5 107.5t-118.5 122.5q-74 -60 -124.5 -122t-50.5 -108v-14h-54q-15 0 -15 11q0 12 3 36q5 63 5 88v327q0 59 34 91.5t86 32.5q45 0 74.5 -27t29.5 -70t-25 -66t-64 -23q-24 0 -36.5 10t-12.5 25q0 7 3 13
q24 -6 39 -6q22 0 35 12.5t13 34.5q0 23 -13 36t-39 13q-27 0 -43.5 -19.5t-16.5 -57.5l1 -320q24 39 70 83.5t97 80.5h8q49 -33 91.5 -77t67.5 -85v433h65v-444q0 -38 3 -83z" />
    <glyph glyph-name="uni0E1D" unicode="&#xe1d;" horiz-adv-x="624" 
d="M543 49l1 -27q0 -13 -3.5 -17.5t-11.5 -4.5h-51v14q0 46 -47.5 107.5t-118.5 122.5q-74 -60 -124.5 -122t-50.5 -108v-14h-54q-15 0 -15 11q0 12 3 36q5 63 5 88v327q0 59 34 91.5t86 32.5q45 0 74.5 -27t29.5 -70t-25 -66t-64 -23q-24 0 -36.5 10t-12.5 25q0 7 3 13
q24 -6 39 -6q22 0 35 12.5t13 34.5q0 23 -13 36t-39 13q-27 0 -43.5 -19.5t-16.5 -57.5l1 -320q24 39 70 83.5t97 80.5h8q49 -33 91.5 -77t67.5 -85v640h65v-651q0 -38 3 -83z" />
    <glyph glyph-name="uni0E1E" unicode="&#xe1e;" horiz-adv-x="719" 
d="M639 11q0 -7 -3 -9t-8 -2h-57v14q0 57 -53.5 180.5t-115.5 236.5q-64 -116 -118 -238.5t-54 -178.5v-14h-60q-5 0 -8 2t-3 9q0 5 1 9q5 27 7 54.5t2 115.5v295q0 23 -11.5 38t-34.5 15q-22 0 -33.5 -12.5t-11.5 -34.5q0 -23 13.5 -36t35.5 -13h24q0 -40 -41 -40
q-31 0 -55.5 24.5t-24.5 64.5q0 41 27 68t70 27q47 0 77.5 -27.5t30.5 -77.5l-1 -276q43 123 162 325h14q45 -73 90 -164.5t69 -162.5v373h65v-386q0 -141 4 -170q1 -4 1 -9z" />
    <glyph glyph-name="uni0E1F" unicode="&#xe1f;" horiz-adv-x="719" 
d="M639 11q0 -7 -3 -9t-8 -2h-57v14q0 57 -53.5 180.5t-115.5 236.5q-64 -116 -118 -238.5t-54 -178.5v-14h-60q-5 0 -8 2t-3 9q0 5 1 9q5 27 7 54.5t2 115.5v295q0 23 -11.5 38t-34.5 15q-22 0 -33.5 -12.5t-11.5 -34.5q0 -23 13.5 -36t35.5 -13h24q0 -40 -41 -40
q-31 0 -55.5 24.5t-24.5 64.5q0 41 27 68t70 27q47 0 77.5 -27.5t30.5 -77.5l-1 -276q43 123 162 325h14q45 -73 90 -164.5t69 -162.5v580h65v-593q0 -141 4 -170q1 -4 1 -9z" />
    <glyph glyph-name="uni0E20" unicode="&#xe20;" horiz-adv-x="630" 
d="M484 534.5q66 -51.5 66 -168.5v-366h-65v366q0 97 -44.5 133t-126.5 36q-50 0 -92.5 -14t-67.5 -34.5t-25 -38.5q0 -12 13 -26t29 -23.5t23 -9.5q6 0 16.5 4t13.5 5q22 10 31 10q7 0 16 -11.5t12.5 -23t-4.5 -11.5q-44 0 -65.5 -27t-21.5 -72q0 -24 3 -51t4 -35
q8 -56 8 -88q0 -46 -26 -71.5t-74 -25.5q-40 0 -65.5 25t-25.5 63q0 37 22 58t50 21q17 0 27.5 -9.5t10.5 -24.5h-19q-22 0 -33.5 -12t-11.5 -33q0 -17 12 -29.5t33 -12.5t32.5 14t11.5 36q0 30 -6 60.5t-7 35.5q-1 7 -6 33t-5 48q0 56 30 86q-34 11 -63 39.5t-29 54.5
q0 28 33 61.5t90 56.5t126 23q104 0 170 -51.5z" />
    <glyph glyph-name="uni0E21" unicode="&#xe21;" horiz-adv-x="657" 
d="M564 44l1 -24q0 -20 -15 -20h-53q-22 93 -87 148.5t-155 61.5l1 -30q2 -40 2 -60q0 -65 -22.5 -97t-70.5 -32q-41 0 -68 32t-27 85q0 61 35.5 101t85.5 49q-2 20 -2 42v185q0 23 -11.5 38t-34.5 15q-22 0 -33.5 -12.5t-11.5 -34.5q0 -23 13.5 -36t35.5 -13h24
q0 -40 -41 -40q-31 0 -55.5 24.5t-24.5 64.5q0 41 27 68t70 27q47 0 77.5 -27.5t30.5 -77.5l-1 -221q77 0 140.5 -34t100.5 -93v443h65v-438q0 -52 4 -94zM189 59.5q7 16.5 7 62.5q0 31 -3 64l-1 21q-28 -9 -47 -32.5t-19 -63.5q0 -32 10 -50t29 -18q17 0 24 16.5z" />
    <glyph glyph-name="uni0E22" unicode="&#xe22;" horiz-adv-x="610" 
d="M530 184q0 -50 -6.5 -81t-26.5 -53q-31 -34 -82.5 -46.5t-105.5 -12.5t-106.5 12.5t-82.5 46.5q-21 25 -31 52.5t-10 69.5v9q0 48 21.5 77.5t51.5 44.5q-34 15 -58 50t-24 93q0 40 18.5 72t49.5 50t67 18q47 0 74 -24.5t27 -64.5q0 -39 -22.5 -62t-61.5 -23
q-25 0 -41 11.5t-16 28.5q0 7 1 10q20 -10 46 -10q22 0 33 12t11 31q0 20 -12.5 31.5t-34.5 11.5q-34 0 -54 -23.5t-20 -71.5q0 -66 40.5 -96.5t138.5 -30.5q6 0 6 -9q0 -11 -9.5 -27t-18.5 -16q-16 0 -44 8q-23 7 -37 7q-29 0 -48 -26.5t-19 -68.5v-13q0 -34 6 -53t21 -35
q18 -19 55 -28.5t83 -9.5q96 0 133 38q14 15 18.5 40t4.5 68l-1 93v292h65v-292z" />
    <glyph glyph-name="uni0E23" unicode="&#xe23;" horiz-adv-x="508" 
d="M217 20q-30 29 -30 71t26 68.5t69 26.5t43 -46q-13 2 -38 2q-23 0 -35.5 -14t-12.5 -37q0 -22 14 -35.5t36 -13.5q32 0 49 23t17 78v60q0 53 -18 80.5t-59 38.5q-45 13 -123 13l-73 -1q-17 15 -28 46t-11 61q0 65 42.5 103t104.5 38q21 0 84 -7q48 -6 66 -6q61 0 106 20
q6 -3 10.5 -13t4.5 -21q0 -23 -30.5 -33.5t-73.5 -10.5q-21 0 -75 8q-60 10 -92 10q-41 0 -61.5 -22.5t-20.5 -64.5q0 -34 14 -54h36q83 0 137 -13q125 -29 125 -166v-66q0 -75 -35 -113.5t-96 -38.5q-42 0 -72 29z" />
    <glyph glyph-name="uni0E24" unicode="&#xe24;" horiz-adv-x="615" 
d="M470 383q0 76 -44.5 114t-127.5 38q-48 0 -89.5 -15.5t-66 -37t-24.5 -39.5q0 -13 12.5 -25.5t29 -21t26.5 -8.5q13 0 33 8q18 6 25 6q6 0 15 -12.5t12.5 -24.5t-3.5 -12q-62 0 -86.5 -32.5t-24.5 -99.5v-103q0 -38 16 -57.5t43 -19.5q26 0 39 13.5t13 35.5t-13 34.5
t-35 12.5q-15 0 -39 -6q-3 6 -3 13q0 15 12.5 25t36.5 10q39 0 64 -23t25 -66t-29.5 -70t-74.5 -27q-52 0 -86 32.5t-34 91.5v104q0 47 10.5 79t32.5 53q-29 12 -54.5 36t-25.5 51q0 32 32 66t87.5 57t123.5 23q103 0 170 -52t67 -151v-603h-65v603z" />
    <glyph glyph-name="uni0E25" unicode="&#xe25;" horiz-adv-x="618" 
d="M529 294q-6 -62 -6 -97q0 -21 7 -110q4 -58 4 -68q0 -19 -12 -19h-59q0 160 -50 237.5t-140 77.5q-57 0 -92.5 -39.5t-35.5 -109.5q0 -64 20 -95.5t53 -31.5q22 0 33.5 12t11.5 33q0 19 -11.5 30.5t-32.5 11.5q-12 0 -22 -3.5t-22 -11.5q-3 6 -3 16q0 15 15 27t41 12
q36 0 59.5 -23.5t23.5 -57.5q0 -42 -25.5 -68t-68.5 -26q-57 0 -95 42.5t-38 132.5q0 63 25.5 109t68.5 70t95 24q62 0 111.5 -29t77.5 -77q7 65 6 128q-1 66 -42 103.5t-112 37.5q-61 0 -104.5 -22t-84.5 -63q-6 -6 -15 -6q-11 0 -23 9t-20 26q32 45 98 77.5t150 32.5
q101 0 160.5 -50t59.5 -138q0 -40 -6 -104z" />
    <glyph glyph-name="uni0E26" unicode="&#xe26;" horiz-adv-x="630" 
d="M485 366q0 97 -44.5 133t-126.5 36q-50 0 -92.5 -14t-67.5 -34.5t-25 -38.5q0 -12 13 -26t29 -23.5t23 -9.5q6 0 16.5 4t13.5 5q22 10 31 10q7 0 16 -11.5t12.5 -23t-4.5 -11.5q-44 0 -65.5 -27t-21.5 -72q0 -24 3 -51t4 -35q8 -56 8 -88q0 -46 -26 -71.5t-74 -25.5
q-40 0 -65.5 25t-25.5 63q0 37 22 58t50 21q17 0 27.5 -9.5t10.5 -24.5h-19q-22 0 -33.5 -12t-11.5 -33q0 -17 12 -29.5t33 -12.5t32.5 14t11.5 36q0 30 -6 60.5t-7 35.5q-1 7 -6 33t-5 48q0 56 30 86q-34 11 -63 39.5t-29 54.5q0 28 33 61.5t90 56.5t126 23
q104 0 170 -51.5t66 -168.5v-586h-65v586z" />
    <glyph glyph-name="uni0E27" unicode="&#xe27;" horiz-adv-x="528" 
d="M247.5 17.5q-30.5 27.5 -30.5 69.5q0 40 27 65.5t65 25.5q24 0 37.5 -11t13.5 -27q0 -6 -1 -9q-14 5 -39 5q-22 0 -35.5 -13.5t-13.5 -34.5t14 -34.5t37 -13.5q32 0 48.5 23t16.5 63v260q0 68 -34.5 108t-103.5 40q-57 0 -94 -24t-68 -71q-3 -4 -10 -4q-10 0 -24.5 8.5
t-23.5 21.5q24 49 83 85t137 36q94 0 146.5 -53.5t52.5 -152.5v-254q0 -61 -35 -98.5t-91 -37.5q-44 0 -74.5 27.5z" />
    <glyph glyph-name="uni0E28" unicode="&#xe28;" horiz-adv-x="609" 
d="M556 542.5q-27 -19.5 -59 -29.5q47 -57 47 -153v-360h-65v355q0 179 -165 179q-83 0 -130 -43.5t-47 -135.5q0 -56 18 -102q26 60 67 95t98 35q41 0 70 -26t29 -69t-26 -67.5t-68 -24.5q-27 0 -47 14t-20 37q0 19 13 26q11 -17 23.5 -25t30.5 -8q23 0 34 12.5t11 35.5
q0 22 -13.5 34.5t-38.5 12.5q-43 0 -77 -42.5t-54.5 -118.5t-22.5 -174h-51q-15 0 -15 20q0 44 19 122q6 30 6 31q0 5 -11 29q-18 36 -29 70t-11 83q0 73 31 125t86 79t125 27q83 0 136 -32q27 7 49 25t36 42q21 -4 34.5 -16.5t13.5 -23.5q0 -19 -27 -38.5z" />
    <glyph glyph-name="uni0E29" unicode="&#xe29;" horiz-adv-x="665" 
d="M585 576v-386q0 -58 -6.5 -88t-25.5 -52q-54 -59 -184 -59q-141 0 -190 59q-17 20 -23.5 54.5t-6.5 85.5v295q0 23 -11.5 38t-34.5 15q-22 0 -33.5 -12.5t-11.5 -34.5q0 -23 13.5 -36t35.5 -13h24q0 -40 -41 -40q-31 0 -55.5 24.5t-24.5 64.5q0 41 27 68t70 27
q47 0 77.5 -27.5t30.5 -77.5l-1 -298q0 -81 20 -102q37 -38 135 -38q100 0 134 38q11 12 14 31t3 54v71q-15 -21 -44 -36t-66 -15q-53 0 -89 28t-36 76q0 34 24 56.5t56 22.5q31 0 52 -18.5t21 -50.5q0 -21 -11 -32.5t-29 -11.5q-6 0 -14 4q14 14 14 33q0 15 -8.5 24.5
t-22.5 9.5q-16 0 -26 -9t-10 -24q0 -30 22.5 -46t61.5 -16q105 0 105 118v226h65z" />
    <glyph glyph-name="uni0E2A" unicode="&#xe2a;" horiz-adv-x="616" 
d="M555.5 542.5q-27.5 -19.5 -58.5 -28.5q38 -47 38 -116q0 -40 -6 -104q-6 -62 -6 -97q0 -21 7 -110q4 -58 4 -68q0 -19 -12 -19h-59q0 160 -50 237.5t-140 77.5q-57 0 -92.5 -39.5t-35.5 -109.5q0 -64 20 -95.5t53 -31.5q22 0 33.5 12t11.5 33q0 19 -11.5 30.5t-32.5 11.5
q-12 0 -22 -3.5t-22 -11.5q-3 6 -3 16q0 15 15 27t41 12q36 0 59.5 -23.5t23.5 -57.5q0 -42 -25.5 -68t-68.5 -26q-57 0 -95 42.5t-38 132.5q0 63 25.5 109t68.5 70t95 24q62 0 111.5 -29t77.5 -77q7 65 6 128q-1 66 -42 103.5t-112 37.5q-61 0 -104.5 -22t-84.5 -63
q-6 -6 -15 -6q-11 0 -23 9t-20 26q32 45 98 77.5t150 32.5q80 0 135 -32q27 8 49 26t36 41q21 -4 34.5 -16.5t13.5 -23.5q0 -19 -27.5 -38.5z" />
    <glyph glyph-name="uni0E2B" unicode="&#xe2b;" horiz-adv-x="658" 
d="M548 366q31 -32 31 -78v-288h-65v276q0 25 -4 38.5t-15 23.5q-99 -45 -156.5 -79.5t-91 -78t-33.5 -101.5v-79h-54q-15 0 -15 15l1 27q3 63 3 74v369q0 23 -11.5 38t-34.5 15q-22 0 -33.5 -12.5t-11.5 -34.5q0 -23 13.5 -36t35.5 -13h24q0 -40 -41 -40q-31 0 -55.5 24.5
t-24.5 64.5q0 41 27 68t70 27q47 0 77.5 -27.5t30.5 -77.5l-1 -253q27 38 75.5 67t154.5 81q-56 47 -56 103q0 48 30.5 77.5t79.5 29.5q47 0 78.5 -27.5t31.5 -79.5q0 -71 -60 -113zM459 518.5q-15 -15.5 -15 -39.5q0 -22 13 -39.5t42 -36.5q28 16 40.5 33.5t12.5 42.5
q0 24 -13 39.5t-41 15.5q-24 0 -39 -15.5z" />
    <glyph glyph-name="uni0E2C" unicode="&#xe2c;" horiz-adv-x="708" 
d="M696.5 581.5q11.5 -9.5 11.5 -23.5q0 -16 -11 -35q-23 -38 -63 -61v-272q0 -141 4 -170q1 -4 1 -9q0 -7 -3 -9t-8 -2h-57v14q0 63 -45 138t-120 173q-53 -66 -87 -113t-61.5 -101t-27.5 -97v-14h-60q-5 0 -8 2t-3 9q0 5 1 9q5 27 7 54.5t2 115.5v295q0 23 -11.5 38
t-34.5 15q-22 0 -33.5 -12.5t-11.5 -34.5q0 -23 13.5 -36t35.5 -13h24q0 -40 -41 -40q-31 0 -55.5 24.5t-24.5 64.5q0 41 27 68t70 27q47 0 77.5 -27.5t30.5 -77.5l-1 -295q18 36 45 72t72 90q36 43 51 62h8q17 -24 53 -72q39 -51 64.5 -87.5t41.5 -72.5v259q-27 -5 -52 -5
q-61 0 -98 26.5t-37 67.5q0 37 35 62t82 25q42 0 76.5 -23t49.5 -60q23 26 43 64q17 -3 28.5 -12.5zM569 491q-2 34 -20.5 53t-49.5 19q-23 0 -40.5 -10.5t-17.5 -29.5t20 -30t55 -11q29 0 53 9z" />
    <glyph glyph-name="uni0E2D" unicode="&#xe2d;" horiz-adv-x="615" 
d="M141 44q-54 53 -54 166q0 49 19.5 84t50 53t63.5 18q43 0 66 -24.5t23 -67.5q0 -39 -23 -62t-58 -23q-24 0 -39.5 13.5t-15.5 38.5q22 -8 41 -8q21 0 33 11t12 32q0 40 -40 40q-31 0 -49 -27.5t-18 -77.5q0 -88 36.5 -126t122.5 -38q60 0 94.5 21t49.5 68.5t15 131.5v40
q0 90 -20.5 139.5t-57.5 67.5t-95 18q-47 0 -90.5 -23t-77.5 -57q-7 -7 -12.5 -10t-13.5 -3q-17 0 -41 37q33 43 96 76.5t139 33.5q80 0 131.5 -25t79 -86.5t27.5 -167.5v-40q0 -99 -22.5 -159.5t-71.5 -88.5t-130 -28q-116 0 -170 53z" />
    <glyph glyph-name="uni0E2E" unicode="&#xe2e;" horiz-adv-x="615" 
d="M555 520q-18 -29 -50 -55q31 -62 31 -153v-50q0 -136 -53 -203.5t-171 -67.5q-115 0 -169.5 50t-54.5 149q0 49 18.5 83.5t48.5 52t63 17.5q45 0 69.5 -23.5t24.5 -66.5q0 -39 -23 -61t-60 -22q-25 0 -39 11t-14 27q0 7 3 13q17 -7 38 -7q20 0 31.5 10.5t11.5 30.5
q0 18 -11 28t-32 10q-30 0 -47 -26.5t-17 -76.5q0 -75 37.5 -110t121.5 -35q86 0 122.5 52.5t36.5 164.5v50q0 73 -18 118q-75 -41 -171 -41t-150 26t-54 71q0 43 52 71.5t144 28.5q128 0 195 -71q32 32 58 84q46 -3 46 -32q0 -18 -18 -47zM426 478q-26 31 -64.5 43.5
t-87.5 12.5q-60 0 -97 -12t-37 -33q0 -48 142 -48q86 0 144 37z" />
    <glyph glyph-name="uni0E2F" unicode="&#xe2f;" horiz-adv-x="454" 
d="M364 561q0 -6 -1 -22t-1 -34v-505h-61l1 442q-44 -69 -134 -69q-59 0 -96 32t-37 84q0 41 26.5 67t64.5 26q39 0 60 -20.5t21 -59.5q0 -25 -14.5 -40t-34.5 -15q-6 0 -12.5 2.5t-8.5 5.5q28 17 28 46q0 17 -10 27t-29 10q-18 0 -29.5 -13t-11.5 -34q0 -30 23 -50t65 -20
q59 0 92 35t37 103l1 17h47q14 0 14 -15z" />
    <glyph glyph-name="uni0E30" unicode="&#xe30;" horiz-adv-x="438" 
d="M78.5 392.5q-38.5 30.5 -38.5 74.5q0 39 25.5 60.5t60.5 21.5q34 0 55 -19.5t21 -53.5q0 -23 -12 -35.5t-30 -12.5q-11 0 -18 5q15 15 15 35q0 15 -8 24t-23 9q-16 0 -25 -9t-9 -25q0 -24 23.5 -39.5t65.5 -15.5q55 0 87.5 23t51.5 72q5 12 10 17.5t13 5.5q16 0 40 -13
q-15 -73 -69 -114t-129 -41q-68 0 -106.5 30.5zM78.5 71.5q-38.5 30.5 -38.5 74.5q0 39 25.5 60.5t60.5 21.5q34 0 55 -19.5t21 -53.5q0 -23 -12 -35.5t-30 -12.5q-10 0 -18 5q15 15 15 35q0 15 -8 24t-23 9q-16 0 -25 -9t-9 -25q0 -24 23.5 -39.5t65.5 -15.5q56 0 88 23
t51 72q5 12 10 17.5t13 5.5q16 0 40 -13q-15 -73 -69 -114t-129 -41q-68 0 -106.5 30.5z" />
    <glyph glyph-name="uni0E31" unicode="&#xe31;" 
d="M-317.5 660q-41.5 30 -41.5 76q0 40 27 63.5t62 23.5q37 0 60 -20.5t23 -54.5q0 -25 -12 -38.5t-31 -13.5q-8 0 -15 3q13 18 13 39q0 18 -9.5 28.5t-27.5 10.5q-19 0 -29.5 -10.5t-10.5 -31.5q0 -27 27.5 -42t76.5 -15q92 0 145 38t68 106q58 0 58 -44q0 -41 -34.5 -75
t-95 -53.5t-134.5 -19.5q-78 0 -119.5 30z" />
    <glyph glyph-name="uni0E32" unicode="&#xe32;" horiz-adv-x="466" 
d="M325 5q-4 5 -4 20v391q0 57 -30.5 86.5t-83.5 29.5q-37 0 -61 -12t-53 -37q-6 -6 -15.5 -14.5t-14.5 -10.5t-13 -2q-10 0 -18.5 8.5t-21.5 27.5q42 41 88.5 67.5t106.5 26.5q82 0 131.5 -45.5t49.5 -123.5v-417h-42q-15 0 -19 5z" />
    <glyph glyph-name="uni0E33" unicode="&#xe33;" horiz-adv-x="466" 
d="M325 5q-4 5 -4 20v391q0 57 -30.5 86.5t-83.5 29.5q-37 0 -61 -12t-53 -37q-6 -6 -15.5 -14.5t-14.5 -10.5t-13 -2q-10 0 -18.5 8.5t-21.5 27.5q42 41 88.5 67.5t106.5 26.5q82 0 131.5 -45.5t49.5 -123.5v-417h-42q-15 0 -19 5zM-199 679q-30 30 -30 77q0 46 30 76
t77 30t77 -30t30 -76q0 -47 -30 -77t-77 -30t-77 30zM-83.5 714.5q14.5 15.5 14.5 41.5t-14.5 41t-38.5 15t-38.5 -15t-14.5 -41t14.5 -41.5t38.5 -15.5t38.5 15.5z" />
    <glyph glyph-name="uni0E34" unicode="&#xe34;" 
d="M-305.5 653q-103.5 4 -232.5 4q-6 0 -8 2t-2 7q0 43 26 85.5t76.5 70.5t121.5 28t127 -28.5t87 -75.5t31 -98v-13q-123 14 -226.5 18zM-199 768.5q-51 35.5 -125 35.5q-70 0 -112 -31t-52 -73q187 0 349 -19q-9 52 -60 87.5z" />
    <glyph glyph-name="uni0E35" unicode="&#xe35;" 
d="M-80 872v-238q-123 14 -226.5 18t-232.5 4q-6 0 -8 2t-2 7q0 43 26 85.5t76.5 70.5t121.5 28q56 0 103 -18t80 -50v91h62zM-140 680q-9 52 -60 87.5t-125 35.5q-70 0 -112 -31t-52 -73q187 0 349 -19z" />
    <glyph glyph-name="uni0E36" unicode="&#xe36;" 
d="M-65 762q-16 -21 -40 -28q23 -41 23 -86v-13q-123 14 -226.5 18t-232.5 4q-6 0 -8 2t-2 7q0 43 26 85.5t76.5 70.5t121.5 28q63 0 114 -23q7 28 29.5 47t52.5 19q36 0 59 -23t23 -61q0 -26 -16 -47zM-100 778.5q11 12.5 11 30.5t-11 31t-31 13q-21 0 -32 -12.5t-11 -31.5
q0 -18 11 -30.5t32 -12.5q20 0 31 12.5zM-142 681q-9 52 -60 87.5t-125 35.5q-70 0 -112 -31t-52 -73q187 0 349 -19z" />
    <glyph glyph-name="uni0E37" unicode="&#xe37;" 
d="M-81 882v-248q-123 14 -226.5 18t-232.5 4q-6 0 -8 2t-2 7q0 43 26 85.5t76.5 70.5t121.5 28q42 0 80 -12v45h62v-73q25 -15 41 -31v104h62zM-141 680q-6 33 -33 61.5t-67 45t-85 16.5q-70 0 -112 -31t-52 -73q187 0 349 -19z" />
    <glyph glyph-name="uni0E38" unicode="&#xe38;" 
d="M-137 -250q0 22 5 62q4 24 4 35q0 17 -9 26.5t-26 9.5q-16 0 -26.5 -9.5t-10.5 -24.5q0 -17 9 -25t24 -8q17 0 26 5q0 -17 -10 -28t-30 -11q-26 0 -43.5 17.5t-17.5 49.5q0 33 23 54.5t59 21.5q37 0 58.5 -21t21.5 -57l-1 -39q-2 -32 -2 -59v-34q0 -19 -5.5 -26t-21.5 -7
h-27v68z" />
    <glyph glyph-name="uni0E39" unicode="&#xe39;" 
d="M-269.5 -294.5q-29.5 18.5 -29.5 50.5q0 26 9 60q7 21 7 37q0 15 -7.5 24t-21.5 9q-15 0 -23 -8.5t-8 -22.5q0 -15 10.5 -22.5t28.5 -8.5q-2 -7 -10.5 -13.5t-20.5 -6.5q-21 0 -35.5 14t-14.5 39q0 30 22 49t54 19q35 0 56.5 -20t21.5 -51q0 -14 -4 -38q-4 -28 -4 -52
q0 -18 11 -27t38 -9t39.5 9t12.5 29v154h58v-154q0 -40 -26.5 -59.5t-84.5 -19.5q-49 0 -78.5 18.5z" />
    <glyph glyph-name="uni0E3A" unicode="&#xe3a;" 
d="M-156.5 -169.5q-17.5 16.5 -17.5 41.5t17.5 41.5t43.5 16.5q25 0 42.5 -16.5t17.5 -41.5t-17.5 -41.5t-42.5 -16.5q-26 0 -43.5 16.5z" />
    <glyph glyph-name="uni0E3F" unicode="&#xe3f;" horiz-adv-x="615" 
d="M512 54q-60 -50 -171 -54v-120h-62v120h-193v700h193v109h62v-110q93 -6 146 -54.5t53 -128.5q0 -53 -25.5 -95t-67.5 -60q55 -15 90 -61t35 -106q0 -90 -60 -140zM279 640h-121v-255h121v255zM434.5 601q-33.5 32 -93.5 38v-253q127 12 127 130q0 53 -33.5 85zM279 60
v268h-121v-268h121zM462.5 95.5q37.5 31.5 37.5 98.5q0 65 -38.5 97t-120.5 36v-266q84 3 121.5 34.5z" />
    <glyph glyph-name="uni0E40" unicode="&#xe40;" horiz-adv-x="310" 
d="M115 26.5q-31 31.5 -31 88.5v437q0 24 19 24h46v-468q0 -31 13 -47t36 -16q21 0 33.5 13t12.5 33q0 21 -12 33t-32 12q-18 0 -36 -6v7q0 19 11.5 30t33.5 11q37 0 61 -22t24 -65t-26 -69.5t-72 -26.5q-50 0 -81 31.5z" />
    <glyph glyph-name="uni0E41" unicode="&#xe41;" horiz-adv-x="580" 
d="M115 26.5q-31 31.5 -31 88.5v437q0 24 19 24h46v-468q0 -31 13 -47t36 -16q21 0 33.5 13t12.5 33q0 21 -12 33t-32 12q-18 0 -36 -6v7q0 19 11.5 30t33.5 11q37 0 61 -22t24 -65t-26 -69.5t-72 -26.5q-50 0 -81 31.5zM385 26.5q-31 31.5 -31 88.5v437q0 24 19 24h46v-468
q0 -31 13 -47t36 -16q21 0 33.5 13t12.5 33q0 21 -12 33t-32 12q-18 0 -36 -6v7q0 19 11.5 30t33.5 11q37 0 61 -22t24 -65t-26 -69.5t-72 -26.5q-50 0 -81 31.5z" />
    <glyph glyph-name="uni0E42" unicode="&#xe42;" horiz-adv-x="337" 
d="M145 26.5q-31 31.5 -31 88.5v555q0 46 -18.5 67.5t-38.5 25.5t-65 9q-14 11 -23 33t-9 50q0 55 38.5 85.5t89.5 30.5q14 0 36 -2l33 -3q50 -6 73 -6q51 0 84 19q14 -20 14 -44q0 -15 -25.5 -23.5t-66.5 -8.5q-29 0 -83 8q-48 6 -62 6q-33 0 -53 -15t-20 -47q0 -25 9 -37
q57 -6 104.5 -36.5t47.5 -111.5v-562q0 -31 13 -47t36 -16q21 0 33.5 13t12.5 33q0 21 -12 33t-32 12q-18 0 -36 -6v7q0 18 11.5 29.5t33.5 11.5q37 0 61 -22t24 -65t-26 -69.5t-72 -26.5q-50 0 -81 31.5z" />
    <glyph glyph-name="uni0E43" unicode="&#xe43;" horiz-adv-x="344" 
d="M145 26.5q-31 31.5 -31 88.5v371q0 44 10.5 78t25 57.5t38.5 56.5q30 40 44.5 69t14.5 68q0 47 -29.5 76.5t-87.5 29.5q-47 0 -77.5 -24t-30.5 -63q0 -31 14.5 -46t40.5 -15q25 0 38 15t13 40q0 36 -29 56q12 5 21 5q24 0 41 -20t17 -49q0 -41 -29.5 -69t-71.5 -28
q-46 0 -77.5 28.5t-31.5 80.5q0 35 20 67t57 52t87 20q82 0 129.5 -43t47.5 -109q0 -44 -15.5 -77t-46.5 -80q-34 -50 -51 -88t-17 -91v-375q0 -31 13 -47t36 -16q21 0 33.5 13t12.5 33q0 21 -12 33t-32 12q-18 0 -36 -6v7q0 18 11.5 29.5t33.5 11.5q37 0 61 -22t24 -65
t-26 -69.5t-72 -26.5q-50 0 -81 31.5z" />
    <glyph glyph-name="uni0E44" unicode="&#xe44;" horiz-adv-x="337" 
d="M300 156q24 -22 24 -65t-26 -69.5t-72 -26.5q-50 0 -81 31.5t-31 88.5v502q0 97 26.5 157t74.5 111q-36 -11 -91 -11q-58 0 -103 18.5t-45 49.5q0 13 9 22.5t20 9.5q21 -21 52 -33.5t82 -12.5q47 0 74 8.5t51 21.5q2 1 9 5t12 4q11 0 22 -14l15 -21l-24 -25
q-38 -38 -62 -70t-40.5 -84.5t-16.5 -128.5v-516q0 -31 13 -47t36 -16q21 0 33.5 13t12.5 33q0 21 -12 33t-32 12q-18 0 -36 -6v7q0 18 11.5 29.5t33.5 11.5q37 0 61 -22z" />
    <glyph glyph-name="uni0E45" unicode="&#xe45;" horiz-adv-x="466" 
d="M321 411q0 60 -28 90.5t-82 30.5q-39 0 -65 -10t-53 -37q-6 -6 -15 -16t-15 -16q-4 -4 -12 -4q-9 0 -20 8t-21 24q31 44 83 74.5t115 30.5q81 0 129.5 -44t48.5 -120v-642h-65v631z" />
    <glyph glyph-name="uni0E46" unicode="&#xe46;" horiz-adv-x="500" 
d="M360 451q0 37 -15 53t-37 16q-23 0 -40.5 -12t-36.5 -36h-4q-18 26 -34.5 38.5t-41.5 12.5q-29 0 -46 -24.5t-17 -71.5q0 -49 18 -76t49 -27q20 0 32.5 12.5t12.5 31.5q0 20 -11 31.5t-30 11.5q-24 0 -39 -6v7q0 16 14 28.5t38 12.5q33 0 56.5 -23t23.5 -61
q0 -41 -27 -67t-78 -26t-84 39t-33 109q0 67 31 109.5t89 42.5q27 0 46 -11t35 -32q15 22 34 32.5t52 10.5q41 0 72 -31t31 -86v-659h-60v651z" />
    <glyph glyph-name="uni0E47" unicode="&#xe47;" 
d="M-476.5 671.5q-28.5 32.5 -28.5 86.5q0 69 40.5 100.5t107.5 31.5q17 0 55 -2l50 -1q40 0 60 12t27 49q30 0 43.5 -10.5t13.5 -27.5q0 -30 -33 -50.5t-87 -20.5l-64 2l-63 1q-50 0 -73 -20.5t-23 -60.5q0 -38 13.5 -55.5t40.5 -17.5q24 0 40 12t33 39q20 -31 42.5 -44.5
t54.5 -13.5q29 0 45 14t16 38q0 18 -9 28t-25 10q-17 0 -26 -8t-9 -23q0 -21 17 -33q-8 -11 -21 -11q-14 0 -24 14t-10 31q0 29 20 48t51 19q35 0 57 -21.5t22 -52.5q0 -41 -29.5 -68t-75.5 -27q-32 0 -56.5 10t-39.5 28q-26 -38 -80 -38q-44 0 -72.5 32.5z" />
    <glyph glyph-name="uni0E48" unicode="&#xe48;" 
d="M-147.5 730.5q-2.5 41.5 -2.5 72.5v58h70v-58q0 -26 -3 -66.5t-6 -71.5h-52q-4 24 -6.5 65.5z" />
    <glyph glyph-name="uni0E49" unicode="&#xe49;" 
d="M-40.5 857.5q15.5 -10.5 15.5 -37.5q0 -51 -34.5 -90t-89 -60t-112.5 -21q-107 0 -107 27q0 7 3 25q12 -3 28 -3q40 0 63.5 25.5t23.5 67.5q0 19 -9.5 29t-26.5 10q-16 0 -25 -8.5t-9 -24.5q0 -34 43 -34q0 -12 -7 -19t-20 -7q-26 0 -41 16.5t-15 44.5q0 31 22 51t53 20
q35 0 59 -20.5t24 -56.5q0 -32 -14 -58.5t-38 -42.5q71 4 120 46.5t49 130.5q29 0 44.5 -10.5z" />
    <glyph glyph-name="uni0E4A" unicode="&#xe4a;" 
d="M-23 838q0 -78 -39 -129.5t-109 -51.5q-25 0 -38 5q10 17 16.5 43t6.5 52q0 33 -12 47.5t-38 14.5q-18 0 -30 -9.5t-25 -27.5q-15 20 -27.5 29t-33.5 9q-28 0 -45.5 -17.5t-17.5 -52.5q0 -27 12.5 -42t31.5 -15q36 0 36 32q0 35 -31 35q-9 0 -19 -3q-3 5 -3 9q0 8 9 14.5
t25 6.5q26 0 42.5 -17.5t16.5 -47.5t-21 -50.5t-56 -20.5q-37 0 -64 28t-27 71q0 38 15.5 64.5t39.5 39t49 12.5q43 0 68 -34q22 33 61 33q41 0 66.5 -26.5t25.5 -72.5q0 -37 -7 -62q35 14 51.5 51.5t16.5 106.5h27q27 0 27 -24z" />
    <glyph glyph-name="uni0E4B" unicode="&#xe4b;" 
d="M-144 745h-95v52h95v80h64v-80h95v-52h-95v-80h-64v80z" />
    <glyph glyph-name="uni0E4C" unicode="&#xe4c;" 
d="M-230 666q-24 23 -24 58q0 34 21 56.5t56 39.5q36 17 52.5 26t29.5 24.5t13 37.5h24q11 0 20 -6t9 -16q0 -30 -23 -48.5t-79 -45.5l-23 -11q-25 -12 -37.5 -25t-12.5 -29q0 -20 10.5 -31t29.5 -11t29 11.5t10 29.5q0 11 -5 18.5t-17 14.5q11 11 23 11q18 0 30.5 -13.5
t12.5 -35.5q0 -34 -23 -56t-64 -22q-38 0 -62 23z" />
    <glyph glyph-name="uni0E4D" unicode="&#xe4d;" 
d="M-199 679q-30 30 -30 77q0 46 30 76t77 30t77 -30t30 -76q0 -47 -30 -77t-77 -30t-77 30zM-83.5 714.5q14.5 15.5 14.5 41.5t-14.5 41t-38.5 15t-38.5 -15t-14.5 -41t14.5 -41.5t38.5 -15.5t38.5 15.5z" />
    <glyph glyph-name="uni0E4E" unicode="&#xe4e;" 
d="M-147 888q-21 -9 -21 -27q0 -15 16.5 -22t59.5 -7q4 0 4 -8q0 -10 -6 -21t-16 -11l-31 1q-30 0 -54.5 -18.5t-24.5 -54.5q0 -18 10.5 -28t28.5 -10q16 0 26 10t10 26q0 25 -29 34q3 14 23 14q17 0 30.5 -14.5t13.5 -36.5q0 -32 -22 -51.5t-56 -19.5t-57.5 19t-23.5 55
q0 38 22.5 63.5t54.5 34.5q-12 7 -19 18.5t-7 23.5q0 41 36.5 62.5t90.5 21.5q32 0 51.5 -8t19.5 -19q0 -18 -12 -30q-33 12 -64 12q-33 0 -54 -9z" />
    <glyph glyph-name="uni0E4F" unicode="&#xe4f;" horiz-adv-x="700" 
d="M214.5 77q-61.5 35 -97 95t-35.5 132q0 73 35.5 133.5t97 96t135.5 35.5t135.5 -35.5t97 -96t35.5 -133.5q0 -72 -35.5 -132t-97 -95t-135.5 -35t-135.5 35zM454.5 125.5q47.5 27.5 74.5 74.5t27 104q0 58 -27 105.5t-74 75.5t-105 28t-105 -28t-74 -75.5t-27 -105.5
q0 -57 27 -104t74.5 -74.5t104.5 -27.5t104.5 27.5zM288 198q-29 17 -46 46.5t-17 63.5t17 63.5t46 46.5t63 17t63.5 -17t46.5 -46.5t17 -63.5t-17 -63.5t-46.5 -46.5t-63.5 -17t-63 17zM403.5 255q21.5 22 21.5 53t-21.5 53t-52.5 22q-30 0 -51.5 -22t-21.5 -53t21.5 -53
t51.5 -22q31 0 52.5 22z" />
    <glyph glyph-name="uni0E50" unicode="&#xe50;" horiz-adv-x="606" 
d="M119 52q-69 64 -69 178q0 115 69 178.5t184 63.5t184 -63.5t69 -178.5q0 -114 -69 -178t-184 -64t-184 64zM433.5 85q52.5 43 52.5 145q0 103 -52 145.5t-131 42.5t-131 -42.5t-52 -145.5q0 -102 52.5 -145t130.5 -43t130.5 43z" />
    <glyph glyph-name="uni0E51" unicode="&#xe51;" horiz-adv-x="606" 
d="M220 -10q117 4 192.5 62.5t75.5 173.5q0 94 -51 142.5t-140 48.5q-83 0 -133 -48.5t-50 -124.5q0 -70 35.5 -106t86.5 -36q38 0 62 16.5t24 50.5q0 19 -10.5 30t-29.5 11q-18 0 -30 -10.5t-12 -29.5q0 -13 5 -24.5t12 -18.5q-5 -4 -18 -4q-19 0 -31 15t-12 40q0 34 24 56
t62 22q42 0 67 -24.5t25 -63.5q0 -49 -37.5 -82t-98.5 -33q-81 0 -134.5 49.5t-53.5 145.5q0 60 31 111t87.5 81t129.5 30q78 0 136.5 -30t90 -85.5t31.5 -128.5q0 -79 -39.5 -144.5t-106 -103.5t-141.5 -38q-46 0 -49 50z" />
    <glyph glyph-name="uni0E52" unicode="&#xe52;" horiz-adv-x="644" 
d="M555 448.5q31 -32.5 31 -87.5v-202q0 -89 -63 -128.5t-206 -39.5q-133 0 -192.5 44.5t-59.5 130.5v269q0 48 -11 72.5t-46 46.5q9 13 20.5 19.5t23.5 6.5q36 0 54.5 -40.5t18.5 -108.5v-256q0 -50 16 -78t57 -41t119 -13q111 0 160 26.5t49 85.5v191q0 39 -14 59t-39 20
q-47 0 -80 -44h-4q-19 24 -38 36t-46 12q-34 0 -53.5 -25.5t-19.5 -73.5t18 -72t49 -24q23 0 35.5 12.5t12.5 32.5q0 19 -10.5 30t-29.5 11q-14 0 -23.5 -5t-20.5 -15q-9 7 -9 20q0 19 17 30.5t47 11.5q33 0 57 -22.5t24 -61.5q0 -41 -28 -66.5t-80 -25.5q-30 0 -57 16.5
t-43.5 48.5t-16.5 76q0 67 34 111t96 44q52 0 88 -43q16 21 36 31.5t54 10.5q42 0 73 -32.5z" />
    <glyph glyph-name="uni0E53" unicode="&#xe53;" horiz-adv-x="646" 
d="M550 433q36 -48 36 -142v-291h-62v291q0 73 -18.5 105.5t-60.5 32.5q-41 0 -64 -31t-23 -88v-310h-60v310q0 62 -20 90.5t-72 28.5q-45 0 -73 -40t-28 -129v-82q0 -68 17.5 -104t50.5 -36q20 0 32 12t12 30t-10.5 29.5t-29.5 11.5q-23 0 -45 -11q-4 7 -4 16q0 16 14 26.5
t41 10.5q35 0 58.5 -22.5t23.5 -60.5t-24.5 -64t-67.5 -26q-34 0 -62.5 21t-45.5 63t-17 102v84q0 107 43.5 164t114.5 57q46 0 76.5 -22t45.5 -53q13 31 42.5 53t78.5 22q65 0 101 -48z" />
    <glyph glyph-name="uni0E54" unicode="&#xe54;" horiz-adv-x="613" 
d="M562 57q17 -8 17 -26q0 -14 -9 -35q-36 11 -64 16t-73 5q-34 0 -82 -11q-58 -12 -99 -12q-86 0 -144 54.5t-58 181.5q0 140 65 194t177 54q28 0 61 -3l49 -2q39 0 62 5.5t36.5 22t19.5 49.5q21 0 34 -8.5t13 -25.5q0 -49 -41 -74t-113 -25q-15 0 -34 1t-36 2q-28 3 -48 3
q-89 3 -135 -37.5t-46 -145.5q0 -194 150 -194q15 0 41 4.5t44 10.5q-31 17 -54.5 53.5t-23.5 86.5q0 47 31 77t77 30q41 0 68.5 -24t27.5 -62t-21.5 -59t-49.5 -21q-17 0 -28 8.5t-14 21.5q33 0 49 10.5t16 35.5q0 20 -13 31t-35 11q-23 0 -38.5 -16t-15.5 -44
q0 -65 51 -100t129 -35q40 0 57 -8z" />
    <glyph glyph-name="uni0E55" unicode="&#xe55;" horiz-adv-x="613" 
d="M562 57q17 -8 17 -26q0 -14 -9 -35q-36 11 -64 16t-73 5q-34 0 -82 -11q-58 -12 -99 -12q-86 0 -144 54.5t-58 181.5q0 72 26 115.5t70.5 65.5t111.5 35q-16 24 -16 51q0 37 25.5 61t63.5 24q37 0 62.5 -21.5t25.5 -56.5q0 -46 -35 -71h18q54 0 86 36.5t33 100.5
q30 0 41.5 -11t11.5 -32q0 -32 -19 -64t-58 -54t-97 -22q-56 0 -98 21q-92 -14 -140 -50.5t-48 -117.5q0 -194 150 -194q15 0 41 4.5t44 10.5q-32 17 -55 53t-23 86q0 47 31 77t77 30q41 0 68.5 -24t27.5 -62t-21.5 -59t-49.5 -21q-17 0 -28 8.5t-14 21.5q33 0 49 10.5
t16 35.5q0 20 -13 31t-35 11q-23 0 -38.5 -16t-15.5 -44q0 -65 50.5 -99.5t129.5 -34.5q40 0 57 -8zM301.5 529q-11.5 -11 -11.5 -30q0 -28 20 -44q32 5 45 16t13 32q0 16 -10.5 26.5t-26.5 10.5q-18 0 -29.5 -11z" />
    <glyph glyph-name="uni0E56" unicode="&#xe56;" horiz-adv-x="588" 
d="M483 400q54 -62 54 -175q0 -69 -27.5 -121.5t-78.5 -81.5t-120 -29q-57 0 -98.5 18t-63.5 48.5t-22 67.5q0 45 29 72.5t70 27.5t67 -25t26 -62q0 -30 -13 -46.5t-31 -16.5q-19 0 -25 8q23 23 23 48q0 23 -13 35.5t-34 12.5q-20 0 -33.5 -12.5t-13.5 -35.5
q0 -41 35.5 -63.5t97.5 -22.5q71 0 115.5 43t44.5 135q0 94 -39.5 138.5t-117.5 44.5q-55 0 -90 -17.5t-56 -50.5h-45q-2 70 -28.5 114.5t-82.5 93.5q18 30 47 30q28 0 51.5 -27t38.5 -67t19 -77q51 55 152 55q108 0 162 -62z" />
    <glyph glyph-name="uni0E57" unicode="&#xe57;" horiz-adv-x="714" 
d="M598.5 522.5q25.5 -27.5 42 -83t16.5 -133.5q0 -227 -199 -311l-35 19q8 32 14 89.5t6 119.5q0 96 -18 141t-54 45q-30 0 -52.5 -20t-34.5 -55h-6q-27 75 -87 75q-83 0 -83 -174q0 -103 25.5 -149.5t66.5 -46.5q21 0 33.5 12t12.5 33q0 18 -11.5 29t-32.5 11
q-25 0 -46 -15q-4 7 -4 16q0 16 14.5 28.5t41.5 12.5q38 0 63 -21t25 -61q0 -42 -26.5 -67.5t-69.5 -25.5q-150 0 -150 244q0 74 19.5 125t52.5 76.5t74 25.5q30 0 53 -14.5t33 -39.5q12 25 37 39t59 14q67 0 97 -57.5t30 -180.5q0 -93 -16 -154q48 30 77 88.5t29 148.5
q0 70 -27 130t-69 88q12 26 47 26q27 0 52.5 -27.5z" />
    <glyph glyph-name="uni0E58" unicode="&#xe58;" horiz-adv-x="608" 
d="M547 235q28 -29 28 -83q0 -72 -41.5 -115t-102.5 -43q-29 0 -49.5 7t-43.5 20q-20 11 -28 11q-4 0 -18 -9q-20 -13 -40.5 -21t-49.5 -8q-78 0 -115 59t-37 167q0 130 62 184t146 54l158 -1q48 0 75 28t31 93q24 0 37 -12.5t13 -31.5q0 -60 -42.5 -97t-112.5 -37l-72 1
q-52 2 -80 2q-63 0 -107 -40.5t-44 -132.5q0 -99 24 -140.5t74 -41.5q35 0 65 20q-27 27 -27 74q0 10 17 21.5t28 11.5q6 0 6 -5q0 -58 35.5 -91.5t85.5 -33.5q99 0 99 106q0 69 -49 69q-20 0 -31 -10t-11 -28q0 -19 11 -30t31 -11q16 0 28 4q0 -17 -12 -27t-35 -10
q-29 0 -50 19.5t-21 54.5q0 39 25 60.5t64 21.5q48 0 76 -29z" />
    <glyph glyph-name="uni0E59" unicode="&#xe59;" horiz-adv-x="590" 
d="M388 282l130 -282h-62l-121 268q-35 76 -58.5 108.5t-57.5 32.5q-58 0 -83 -49t-25 -153q0 -81 21 -122t61 -41q22 0 34.5 12t12.5 32q0 19 -12 32t-31 13q-12 0 -26 -4t-23 -9q-2 8 -2 11q0 20 19.5 32t42.5 12q35 0 59.5 -23t24.5 -64q0 -42 -29 -69t-73 -27
q-63 0 -101.5 56t-38.5 157q0 254 169 254q53 0 94 -46q13 22 34 35.5t47 13.5t47 -9t33 -25q12 31 12 73t-18 69q16 8 36 8q46 0 46 -69q0 -45 -11.5 -82.5t-28 -59t-29.5 -21.5q-17 0 -22.5 3t-8.5 14q-7 24 -20.5 36.5t-36.5 12.5q-29 0 -51 -40q15 -24 46 -90z" />
    <glyph glyph-name="uni0E5A" unicode="&#xe5a;" horiz-adv-x="592" 
d="M364 561q0 -6 -1 -22t-1 -34v-505h-61l1 442q-44 -69 -134 -69q-59 0 -96 32t-37 84q0 41 26.5 67t64.5 26q39 0 60 -20.5t21 -59.5q0 -25 -14.5 -40t-34.5 -15q-6 0 -12.5 2.5t-8.5 5.5q28 17 28 46q0 17 -10 27t-29 10q-18 0 -29.5 -13t-11.5 -34q0 -30 23 -50t65 -20
q59 0 92 35t37 103l1 17h47q14 0 14 -15zM500 568q3 -8 3 -34v-534h-61l-3 576h42q16 0 19 -8z" />
    <glyph glyph-name="uni0E5B" unicode="&#xe5b;" horiz-adv-x="1132" 
d="M906 386q38 -46 58.5 -65t47.5 -28t76 -9v-6q-24 -28 -65 -28q-34 0 -66.5 19.5t-58.5 58.5q-6 -37 -25 -80t-40 -68h-14q-32 100 -74 164q-5 -43 -24 -96.5t-43 -94.5h-16q-11 59 -32 115t-39 82q-1 -104 -34.5 -179t-93 -114t-137.5 -39q-105 0 -165.5 72t-60.5 195
q0 127 51.5 196t146.5 69q76 0 122.5 -51t46.5 -160q0 -73 -36.5 -110.5t-87.5 -37.5q-41 0 -70.5 26.5t-29.5 66.5q0 43 24 66t62 23q29 0 44 -14t15 -36q-22 10 -45 10q-22 0 -34.5 -12.5t-12.5 -32.5q0 -19 12 -32t33 -13q67 0 67 96q0 158 -104 158q-69 0 -106.5 -58.5
t-37.5 -161.5q0 -61 21 -107t59 -71.5t86 -25.5q65 0 114 38t76 106.5t27 156.5q0 54 -6 79h20q106 -79 123 -191q31 96 31 170h18q40 -35 61.5 -72.5t42.5 -94.5q14 25 24.5 70t10.5 77h17q10 -11 21 -26z" />
    <glyph glyph-name="uni1E0C" unicode="&#x1e0c;" horiz-adv-x="672" 
d="M531.5 609.5q83.5 -90.5 83.5 -259.5q0 -108 -38.5 -187t-111 -121t-172.5 -42h-207v700h207q155 0 238.5 -90.5zM478 133.5q63 73.5 63 215.5q0 147 -61.5 219t-186.5 72h-135v-580h135q122 0 185 73.5zM287 -134v9q0 45 45 45h8q45 0 45 -45v-9q0 -45 -45 -45h-8
q-45 0 -45 45z" />
    <glyph glyph-name="uni1E0D" unicode="&#x1e0d;" horiz-adv-x="598" 
d="M511 63q4 -33 10 -55q-25 -12 -46 -12q-27 0 -34 68q-33 -40 -72 -57t-96 -17q-109 0 -171 75.5t-62 207.5q0 136 66.5 211.5t185.5 75.5q37 0 78.5 -13.5t68.5 -33.5v278h68v-663q0 -32 4 -65zM368 67q39 21 71 65v315q-24 25 -65.5 42t-81.5 17q-88 0 -135 -60
t-47 -173q0 -110 43 -168.5t125 -58.5q51 0 90 21zM250 -134v9q0 45 45 45h8q45 0 45 -45v-9q0 -45 -45 -45h-8q-45 0 -45 45z" />
    <glyph glyph-name="uni1E0E" unicode="&#x1e0e;" horiz-adv-x="672" 
d="M531.5 609.5q83.5 -90.5 83.5 -259.5q0 -108 -38.5 -187t-111 -121t-172.5 -42h-207v700h207q155 0 238.5 -90.5zM478 133.5q63 73.5 63 215.5q0 147 -61.5 219t-186.5 72h-135v-580h135q122 0 185 73.5zM173 -70h326v-60h-326v60z" />
    <glyph glyph-name="uni1E0F" unicode="&#x1e0f;" horiz-adv-x="598" 
d="M511 63q4 -33 10 -55q-25 -12 -46 -12q-27 0 -34 68q-33 -40 -72 -57t-96 -17q-109 0 -171 75.5t-62 207.5q0 136 66.5 211.5t185.5 75.5q37 0 78.5 -13.5t68.5 -33.5v278h68v-663q0 -32 4 -65zM368 67q39 21 71 65v315q-24 25 -65.5 42t-81.5 17q-88 0 -135 -60
t-47 -173q0 -110 43 -168.5t125 -58.5q51 0 90 21zM136 -70h326v-60h-326v60z" />
    <glyph glyph-name="uni1E20" unicode="&#x1e20;" horiz-adv-x="666" 
d="M604 373v-300q-37 -38 -98.5 -60.5t-128.5 -22.5q-155 0 -235 91.5t-80 268.5q0 173 81.5 266.5t233.5 93.5q71 0 132 -26.5t92 -70.5q-20 -35 -44 -35q-16 0 -33 14q-34 29 -69 42t-79 13q-118 0 -179 -75.5t-61 -221.5q0 -150 59.5 -223.5t180.5 -73.5q50 0 93 13
t63 35v210h-141q-20 0 -28.5 14t-8.5 48h250zM214 824h326v-60h-326v60z" />
    <glyph glyph-name="uni1E21" unicode="&#x1e21;" horiz-adv-x="585" 
d="M556.5 569.5q8.5 -9.5 8.5 -30.5q0 -6 -2 -24q-74 0 -103 -20q40 -48 40 -119q0 -192 -221 -192q-68 0 -99.5 -9.5t-31.5 -29.5q0 -45 161 -45q113 0 175 -38t62 -108q0 -75 -66.5 -115.5t-190.5 -40.5q-117 0 -178 36t-61 106q0 40 27.5 71t76.5 46v3q-30 8 -48 29.5
t-18 51.5q0 25 20 44.5t54 26.5q-43 24 -66.5 63.5t-23.5 88.5q0 196 226 196q71 0 121 -31q25 23 54.5 36.5t56.5 13.5q18 0 26.5 -9.5zM395.5 270.5q33.5 30.5 33.5 101.5q0 70 -34 102t-110 32q-74 0 -108.5 -32.5t-34.5 -101.5q0 -132 143 -132q77 0 110.5 30.5z
M164.5 15q-43.5 -23 -43.5 -67q0 -46 43 -70t125 -24q92 0 139 23.5t47 70.5q0 48 -42.5 69t-139.5 21q-85 0 -128.5 -23zM130 714h326v-60h-326v60z" />
    <glyph glyph-name="uni1E24" unicode="&#x1e24;" horiz-adv-x="680" 
d="M594 700v-700h-72v330h-364v-330h-72v700h72v-310h364v310h72zM291 -134v9q0 45 45 45h8q45 0 45 -45v-9q0 -45 -45 -45h-8q-45 0 -45 45z" />
    <glyph glyph-name="uni1E25" unicode="&#x1e25;" horiz-adv-x="630" 
d="M489 510.5q50 -49.5 50 -134.5v-376h-68v369q0 65 -32 100t-92 35q-46 0 -97 -20.5t-91 -54.5v-429h-68v791h68v-297q44 32 94 49t100 17q86 0 136 -49.5zM266 -134v9q0 45 45 45h8q45 0 45 -45v-9q0 -45 -45 -45h-8q-45 0 -45 45z" />
    <glyph glyph-name="uni1E2A" unicode="&#x1e2a;" horiz-adv-x="680" 
d="M594 700v-700h-72v330h-364v-330h-72v700h72v-310h364v310h72zM255 -186.5q-35 15.5 -52 40t-17 50.5q0 16 12 26.5t34 10.5q6 -43 32 -68t75 -25q48 0 74.5 26.5t33.5 71.5q21 0 33.5 -11t12.5 -30q0 -29 -18.5 -53t-53.5 -39t-82 -15q-49 0 -84 15.5z" />
    <glyph glyph-name="uni1E2B" unicode="&#x1e2b;" horiz-adv-x="630" 
d="M489 510.5q50 -49.5 50 -134.5v-376h-68v369q0 65 -32 100t-92 35q-46 0 -97 -20.5t-91 -54.5v-429h-68v791h68v-297q44 32 94 49t100 17q86 0 136 -49.5zM230 -186.5q-35 15.5 -52 40t-17 50.5q0 16 12 26.5t34 10.5q6 -43 32 -68t75 -25q48 0 74.5 26.5t33.5 71.5
q21 0 33.5 -11t12.5 -30q0 -29 -18.5 -53t-53.5 -39t-82 -15q-49 0 -84 15.5z" />
    <glyph glyph-name="uni1E36" unicode="&#x1e36;" horiz-adv-x="513" 
d="M498 60v-60h-412v700h72v-640h340zM243 -134v9q0 45 45 45h8q45 0 45 -45v-9q0 -45 -45 -45h-8q-45 0 -45 45z" />
    <glyph glyph-name="uni1E37" unicode="&#x1e37;" horiz-adv-x="268" 
d="M100 791h68v-791h-68v791zM85 -134v9q0 45 45 45h8q45 0 45 -45v-9q0 -45 -45 -45h-8q-45 0 -45 45z" />
    <glyph glyph-name="uni1E38" unicode="&#x1e38;" horiz-adv-x="513" 
d="M498 60v-60h-412v700h72v-640h340zM243 -134v9q0 45 45 45h8q45 0 45 -45v-9q0 -45 -45 -45h-8q-45 0 -45 45zM-41 824h326v-60h-326v60z" />
    <glyph glyph-name="uni1E39" unicode="&#x1e39;" horiz-adv-x="268" 
d="M100 791h68v-791h-68v791zM85 -134v9q0 45 45 45h8q45 0 45 -45v-9q0 -45 -45 -45h-8q-45 0 -45 45zM-29 914h326v-60h-326v60z" />
    <glyph glyph-name="uni1E3A" unicode="&#x1e3a;" horiz-adv-x="513" 
d="M498 60v-60h-412v700h72v-640h340zM129 -70h326v-60h-326v60z" />
    <glyph glyph-name="uni1E3B" unicode="&#x1e3b;" horiz-adv-x="268" 
d="M100 791h68v-791h-68v791zM-29 -70h326v-60h-326v60z" />
    <glyph glyph-name="uni1E42" unicode="&#x1e42;" horiz-adv-x="829" 
d="M681 0q-9 314 -57 599q-36 -82 -71 -182.5t-112 -346.5h-52q-68 216 -106.5 325.5t-77.5 200.5q-48 -273 -57 -596h-72q5 188 24.5 370t50.5 330h80q60 -129 101 -236t83 -245q42 138 83 244.5t100 236.5h80q31 -148 50.5 -330t24.5 -370h-72zM366 -134v9q0 45 45 45h8
q45 0 45 -45v-9q0 -45 -45 -45h-8q-45 0 -45 45z" />
    <glyph glyph-name="uni1E43" unicode="&#x1e43;" horiz-adv-x="912" 
d="M776.5 514q44.5 -46 44.5 -119v-395h-69v392q0 58 -26 86t-79 28q-85 0 -158 -78q2 -16 2 -24v-404h-68v402q0 47 -28.5 75.5t-75.5 28.5q-43 0 -81.5 -19t-77.5 -61v-426h-68v363q0 148 -12 176q32 15 51 15q29 0 29 -58v-4q38 36 78.5 52t92.5 16q47 0 84 -21.5
t57 -58.5q43 42 87.5 61t101.5 19q71 0 115.5 -46zM407 -134v9q0 45 45 45h8q45 0 45 -45v-9q0 -45 -45 -45h-8q-45 0 -45 45z" />
    <glyph glyph-name="uni1E44" unicode="&#x1e44;" horiz-adv-x="690" 
d="M602 64q2 -28 2 -37q0 -27 -26 -27h-50v54q0 58 -39 111l-331 436v-601h-72v700h58q13 0 20.5 -3.5t17.5 -16.5l346 -455v475h72v-563q0 -31 2 -73zM295 806v9q0 45 45 45h8q45 0 45 -45v-9q0 -45 -45 -45h-8q-45 0 -45 45z" />
    <glyph glyph-name="uni1E45" unicode="&#x1e45;" horiz-adv-x="610" 
d="M521.5 45.5q1.5 -21.5 7.5 -38.5q-24 -12 -52 -12q-15 0 -20 21.5t-5 85.5v271q0 70 -26 101.5t-84 31.5q-90 0 -184 -89v-417h-68v363q0 148 -12 176q32 15 51 15q29 0 29 -58v-9q46 38 92.5 55.5t98.5 17.5q86 0 128.5 -46.5t42.5 -141.5v-244q0 -61 1.5 -82.5z
M256 696v9q0 45 45 45h8q45 0 45 -45v-9q0 -45 -45 -45h-8q-45 0 -45 45z" />
    <glyph glyph-name="uni1E46" unicode="&#x1e46;" horiz-adv-x="690" 
d="M602 64q2 -28 2 -37q0 -27 -26 -27h-50v54q0 58 -39 111l-331 436v-601h-72v700h58q13 0 20.5 -3.5t17.5 -16.5l346 -455v475h72v-563q0 -31 2 -73zM295 -134v9q0 45 45 45h8q45 0 45 -45v-9q0 -45 -45 -45h-8q-45 0 -45 45z" />
    <glyph glyph-name="uni1E47" unicode="&#x1e47;" horiz-adv-x="610" 
d="M521.5 45.5q1.5 -21.5 7.5 -38.5q-24 -12 -52 -12q-15 0 -20 21.5t-5 85.5v271q0 70 -26 101.5t-84 31.5q-90 0 -184 -89v-417h-68v363q0 148 -12 176q32 15 51 15q29 0 29 -58v-9q46 38 92.5 55.5t98.5 17.5q86 0 128.5 -46.5t42.5 -141.5v-244q0 -61 1.5 -82.5z
M256 -134v9q0 45 45 45h8q45 0 45 -45v-9q0 -45 -45 -45h-8q-45 0 -45 45z" />
    <glyph glyph-name="uni1E48" unicode="&#x1e48;" horiz-adv-x="690" 
d="M602 64q2 -28 2 -37q0 -27 -26 -27h-50v54q0 58 -39 111l-331 436v-601h-72v700h58q13 0 20.5 -3.5t17.5 -16.5l346 -455v475h72v-563q0 -31 2 -73zM181 -70h326v-60h-326v60z" />
    <glyph glyph-name="uni1E49" unicode="&#x1e49;" horiz-adv-x="610" 
d="M521.5 45.5q1.5 -21.5 7.5 -38.5q-24 -12 -52 -12q-15 0 -20 21.5t-5 85.5v271q0 70 -26 101.5t-84 31.5q-90 0 -184 -89v-417h-68v363q0 148 -12 176q32 15 51 15q29 0 29 -58v-9q46 38 92.5 55.5t98.5 17.5q86 0 128.5 -46.5t42.5 -141.5v-244q0 -61 1.5 -82.5z
M142 -70h326v-60h-326v60z" />
    <glyph glyph-name="uni1E5A" unicode="&#x1e5a;" horiz-adv-x="629" 
d="M585 3q-20 -11 -43 -11q-18 0 -29.5 7t-20.5 23l-114 196q-24 42 -58.5 59.5t-93.5 17.5h-68v-295h-72v700h227q121 0 190 -53.5t69 -148.5q0 -75 -50 -129.5t-130 -67.5q29 -24 52 -61zM308 357q90 0 139.5 37t49.5 104q0 69 -46.5 104.5t-137.5 35.5h-155v-281h150z
M266 -134v9q0 45 45 45h8q45 0 45 -45v-9q0 -45 -45 -45h-8q-45 0 -45 45z" />
    <glyph glyph-name="uni1E5B" unicode="&#x1e5b;" horiz-adv-x="400" 
d="M359.5 545.5q18.5 -11.5 18.5 -34.5q0 -16 -11 -29q-24 13 -66 13q-67 0 -107.5 -53t-40.5 -139v-303h-68v550h68v-99q23 46 65 76t88 30q35 0 53.5 -11.5zM70 -134v9q0 45 45 45h8q45 0 45 -45v-9q0 -45 -45 -45h-8q-45 0 -45 45z" />
    <glyph glyph-name="uni1E5C" unicode="&#x1e5c;" horiz-adv-x="629" 
d="M585 3q-20 -11 -43 -11q-18 0 -29.5 7t-20.5 23l-114 196q-24 42 -58.5 59.5t-93.5 17.5h-68v-295h-72v700h227q121 0 190 -53.5t69 -148.5q0 -75 -50 -129.5t-130 -67.5q29 -24 52 -61zM308 357q90 0 139.5 37t49.5 104q0 69 -46.5 104.5t-137.5 35.5h-155v-281h150z
M266 -134v9q0 45 45 45h8q45 0 45 -45v-9q0 -45 -45 -45h-8q-45 0 -45 45zM150 824h326v-60h-326v60z" />
    <glyph glyph-name="uni1E5D" unicode="&#x1e5d;" horiz-adv-x="400" 
d="M359.5 545.5q18.5 -11.5 18.5 -34.5q0 -16 -11 -29q-24 13 -66 13q-67 0 -107.5 -53t-40.5 -139v-303h-68v550h68v-99q23 46 65 76t88 30q35 0 53.5 -11.5zM70 -134v9q0 45 45 45h8q45 0 45 -45v-9q0 -45 -45 -45h-8q-45 0 -45 45zM37 714h326v-60h-326v60z" />
    <glyph glyph-name="uni1E5E" unicode="&#x1e5e;" horiz-adv-x="629" 
d="M585 3q-20 -11 -43 -11q-18 0 -29.5 7t-20.5 23l-114 196q-24 42 -58.5 59.5t-93.5 17.5h-68v-295h-72v700h227q121 0 190 -53.5t69 -148.5q0 -75 -50 -129.5t-130 -67.5q29 -24 52 -61zM308 357q90 0 139.5 37t49.5 104q0 69 -46.5 104.5t-137.5 35.5h-155v-281h150z
M152 -70h326v-60h-326v60z" />
    <glyph glyph-name="uni1E5F" unicode="&#x1e5f;" horiz-adv-x="400" 
d="M359.5 545.5q18.5 -11.5 18.5 -34.5q0 -16 -11 -29q-24 13 -66 13q-67 0 -107.5 -53t-40.5 -139v-303h-68v550h68v-99q23 46 65 76t88 30q35 0 53.5 -11.5zM-44 -70h326v-60h-326v60z" />
    <glyph glyph-name="uni1E60" unicode="&#x1e60;" horiz-adv-x="642" 
d="M195 11.5q-58 21.5 -92 58.5t-34 81q0 20 14.5 32.5t38.5 13.5q16 -71 68 -108t134 -37q84 0 135.5 39t51.5 102q0 37 -18.5 63t-60.5 46.5t-116 39.5q-86 23 -135 48.5t-70.5 58t-21.5 80.5q0 84 62 132.5t171 48.5q95 0 158.5 -44.5t85.5 -125.5q-13 -13 -40 -13
q-28 0 -41 27q-22 44 -66.5 70t-96.5 26q-79 0 -120 -31t-41 -90q0 -30 15 -50.5t50 -37.5t99 -35q107 -30 161.5 -57t76.5 -61t22 -89q0 -63 -32 -110.5t-91.5 -73t-139.5 -25.5q-69 0 -127 21.5zM272 806v9q0 45 45 45h8q45 0 45 -45v-9q0 -45 -45 -45h-8q-45 0 -45 45z
" />
    <glyph glyph-name="uni1E61" unicode="&#x1e61;" horiz-adv-x="485" 
d="M152 5q-48 15 -80 40t-32 53q0 13 8.5 23.5t21.5 14.5q36 -47 78 -68.5t101 -21.5q63 0 95.5 29t32.5 77q0 32 -19.5 52t-48 30t-78.5 23q-58 15 -93.5 29t-60 42.5t-24.5 76.5q0 51 27 86t69 52t86 17q63 0 114.5 -25t80.5 -73q-24 -25 -41 -25q-13 0 -25 14
q-24 28 -55.5 41.5t-76.5 13.5q-51 0 -81 -24t-30 -74q0 -29 18 -47t45 -27.5t74 -21.5q60 -14 97.5 -29t63.5 -46.5t26 -84.5q0 -74 -54.5 -118t-145.5 -44q-45 0 -93 15zM194 696v9q0 45 45 45h8q45 0 45 -45v-9q0 -45 -45 -45h-8q-45 0 -45 45z" />
    <glyph glyph-name="uni1E62" unicode="&#x1e62;" horiz-adv-x="642" 
d="M195 11.5q-58 21.5 -92 58.5t-34 81q0 20 14.5 32.5t38.5 13.5q16 -71 68 -108t134 -37q84 0 135.5 39t51.5 102q0 37 -18.5 63t-60.5 46.5t-116 39.5q-86 23 -135 48.5t-70.5 58t-21.5 80.5q0 84 62 132.5t171 48.5q95 0 158.5 -44.5t85.5 -125.5q-13 -13 -40 -13
q-28 0 -41 27q-22 44 -66.5 70t-96.5 26q-79 0 -120 -31t-41 -90q0 -30 15 -50.5t50 -37.5t99 -35q107 -30 161.5 -57t76.5 -61t22 -89q0 -63 -32 -110.5t-91.5 -73t-139.5 -25.5q-69 0 -127 21.5zM272 -134v9q0 45 45 45h8q45 0 45 -45v-9q0 -45 -45 -45h-8q-45 0 -45 45z
" />
    <glyph glyph-name="uni1E63" unicode="&#x1e63;" horiz-adv-x="485" 
d="M152 5q-48 15 -80 40t-32 53q0 13 8.5 23.5t21.5 14.5q36 -47 78 -68.5t101 -21.5q63 0 95.5 29t32.5 77q0 32 -19.5 52t-48 30t-78.5 23q-58 15 -93.5 29t-60 42.5t-24.5 76.5q0 51 27 86t69 52t86 17q63 0 114.5 -25t80.5 -73q-24 -25 -41 -25q-13 0 -25 14
q-24 28 -55.5 41.5t-76.5 13.5q-51 0 -81 -24t-30 -74q0 -29 18 -47t45 -27.5t74 -21.5q60 -14 97.5 -29t63.5 -46.5t26 -84.5q0 -74 -54.5 -118t-145.5 -44q-45 0 -93 15zM194 -134v9q0 45 45 45h8q45 0 45 -45v-9q0 -45 -45 -45h-8q-45 0 -45 45z" />
    <glyph glyph-name="uni1E6C" unicode="&#x1e6c;" horiz-adv-x="534" 
d="M523 676q0 -17 -9 -26.5t-27 -9.5h-184v-640h-72v640h-216v60h504q4 -18 4 -24zM220 -134v9q0 45 45 45h8q45 0 45 -45v-9q0 -45 -45 -45h-8q-45 0 -45 45z" />
    <glyph glyph-name="uni1E6D" unicode="&#x1e6d;" horiz-adv-x="374" 
d="M353.5 52.5q4.5 -9.5 4.5 -19.5q0 -19 -16 -27q-32 -16 -83 -16q-65 0 -104 35.5t-39 95.5v375h-104v54h104v150h68v-150h144v-54h-144v-362q0 -84 72 -84q46 0 86 17q7 -5 11.5 -14.5zM200 -134v9q0 45 45 45h8q45 0 45 -45v-9q0 -45 -45 -45h-8q-45 0 -45 45z" />
    <glyph glyph-name="uni1E6E" unicode="&#x1e6e;" horiz-adv-x="534" 
d="M523 676q0 -17 -9 -26.5t-27 -9.5h-184v-640h-72v640h-216v60h504q4 -18 4 -24zM106 -70h326v-60h-326v60z" />
    <glyph glyph-name="uni1E6F" unicode="&#x1e6f;" horiz-adv-x="374" 
d="M353.5 52.5q4.5 -9.5 4.5 -19.5q0 -19 -16 -27q-32 -16 -83 -16q-65 0 -104 35.5t-39 95.5v375h-104v54h104v150h68v-150h144v-54h-144v-362q0 -84 72 -84q46 0 86 17q7 -5 11.5 -14.5zM86 -70h326v-60h-326v60z" />
    <glyph glyph-name="Wgrave" unicode="&#x1e80;" horiz-adv-x="856" 
d="M841 700q-21 -141 -59 -292t-116 -408h-82q-69 232 -99.5 344t-51.5 207q-24 -108 -57 -229.5t-94 -321.5h-82q-78 242 -119.5 398.5t-65.5 301.5h72q19 -125 52.5 -257.5t101.5 -347.5q40 124 75.5 250.5t93.5 354.5h42q87 -316 115.5 -415t57.5 -189q65 212 97.5 345
t50.5 259h68zM315 893h83l101 -151h-66z" />
    <glyph glyph-name="wgrave" unicode="&#x1e81;" horiz-adv-x="760" 
d="M722 550q-40 -304 -152 -550h-62q-52 114 -82.5 208t-47.5 196q-18 -104 -49 -198.5t-83 -205.5h-64q-53 113 -88.5 244t-60.5 306h70q17 -146 43.5 -255.5t69.5 -203.5q96 197 130 459h66q36 -271 129 -461q87 208 103 461h78zM262 783h83l101 -151h-66z" />
    <glyph glyph-name="Wacute" unicode="&#x1e82;" horiz-adv-x="856" 
d="M841 700q-21 -141 -59 -292t-116 -408h-82q-69 232 -99.5 344t-51.5 207q-24 -108 -57 -229.5t-94 -321.5h-82q-78 242 -119.5 398.5t-65.5 301.5h72q19 -125 52.5 -257.5t101.5 -347.5q40 124 75.5 250.5t93.5 354.5h42q87 -316 115.5 -415t57.5 -189q65 212 97.5 345
t50.5 259h68zM480 893h85l-131 -151h-66z" />
    <glyph glyph-name="wacute" unicode="&#x1e83;" horiz-adv-x="760" 
d="M722 550q-40 -304 -152 -550h-62q-52 114 -82.5 208t-47.5 196q-18 -104 -49 -198.5t-83 -205.5h-64q-53 113 -88.5 244t-60.5 306h70q17 -146 43.5 -255.5t69.5 -203.5q96 197 130 459h66q36 -271 129 -461q87 208 103 461h78zM427 783h85l-131 -151h-66z" />
    <glyph glyph-name="Wdieresis" unicode="&#x1e84;" horiz-adv-x="856" 
d="M841 700q-21 -141 -59 -292t-116 -408h-82q-69 232 -99.5 344t-51.5 207q-24 -108 -57 -229.5t-94 -321.5h-82q-78 242 -119.5 398.5t-65.5 301.5h72q19 -125 52.5 -257.5t101.5 -347.5q40 124 75.5 250.5t93.5 354.5h42q87 -316 115.5 -415t57.5 -189q65 212 97.5 345
t50.5 259h68zM283 794v9q0 45 45 45h8q45 0 45 -45v-9q0 -45 -45 -45h-8q-45 0 -45 45zM487 794v9q0 45 45 45h8q45 0 45 -45v-9q0 -45 -45 -45h-8q-45 0 -45 45z" />
    <glyph glyph-name="wdieresis" unicode="&#x1e85;" horiz-adv-x="760" 
d="M722 550q-40 -304 -152 -550h-62q-52 114 -82.5 208t-47.5 196q-18 -104 -49 -198.5t-83 -205.5h-64q-53 113 -88.5 244t-60.5 306h70q17 -146 43.5 -255.5t69.5 -203.5q96 197 130 459h66q36 -271 129 -461q87 208 103 461h78zM230 684v9q0 45 45 45h8q45 0 45 -45v-9
q0 -45 -45 -45h-8q-45 0 -45 45zM434 684v9q0 45 45 45h8q45 0 45 -45v-9q0 -45 -45 -45h-8q-45 0 -45 45z" />
    <glyph glyph-name="uni1E8E" unicode="&#x1e8e;" horiz-adv-x="590" 
d="M570 700l-239 -406v-294h-72v294l-239 406h78l198 -339l197 339h77zM246 806v9q0 45 45 45h8q45 0 45 -45v-9q0 -45 -45 -45h-8q-45 0 -45 45z" />
    <glyph glyph-name="uni1E8F" unicode="&#x1e8f;" horiz-adv-x="485" 
d="M474 550l-213 -592q-28 -79 -70.5 -115.5t-107.5 -36.5q-38 0 -60 11.5t-22 30.5q0 20 17 32q10 -7 30.5 -12t40.5 -5q41 0 70.5 36t50.5 110l-196 541h72l159 -443l157 443h72zM194 696v9q0 45 45 45h8q45 0 45 -45v-9q0 -45 -45 -45h-8q-45 0 -45 45z" />
    <glyph glyph-name="uni1E92" unicode="&#x1e92;" horiz-adv-x="580" 
d="M528 60v-60h-474v60l387 580h-389v60h468v-64l-382 -576h390zM241 -134v9q0 45 45 45h8q45 0 45 -45v-9q0 -45 -45 -45h-8q-45 0 -45 45z" />
    <glyph glyph-name="uni1E93" unicode="&#x1e93;" horiz-adv-x="500" 
d="M470 58v-58h-440v48l340 444h-314v58h406v-47l-340 -445h348zM201 -134v9q0 45 45 45h8q45 0 45 -45v-9q0 -45 -45 -45h-8q-45 0 -45 45z" />
    <glyph glyph-name="uni1E97" unicode="&#x1e97;" horiz-adv-x="374" 
d="M353.5 52.5q4.5 -9.5 4.5 -19.5q0 -19 -16 -27q-32 -16 -83 -16q-65 0 -104 35.5t-39 95.5v375h-104v54h104v150h68v-150h144v-54h-144v-362q0 -84 72 -84q46 0 86 17q7 -5 11.5 -14.5zM0 794v9q0 45 45 45h8q45 0 45 -45v-9q0 -45 -45 -45h-8q-45 0 -45 45zM204 794v9
q0 45 45 45h8q45 0 45 -45v-9q0 -45 -45 -45h-8q-45 0 -45 45z" />
    <glyph glyph-name="uni1E9E" unicode="&#x1e9e;" horiz-adv-x="700" 
d="M583.5 333.5q52.5 -50.5 52.5 -139.5q0 -65 -30 -111t-82 -69.5t-116 -23.5q-43 0 -83.5 11.5t-63.5 29.5q-8 7 -12.5 17t-4.5 21q0 12 6 21.5t17 11.5q33 -25 68 -37.5t77 -12.5q70 0 110 36t40 105q0 79 -47 116t-131 37q-17 0 -27.5 12.5t-10.5 29.5l163 162
q-33 96 -174 96q-51 0 -91.5 -21.5t-64 -61.5t-23.5 -94v-469h-72v469q0 74 34.5 128t92.5 82.5t127 28.5q104 0 170 -47.5t83 -121.5l-143 -143q83 -12 135.5 -62.5z" />
    <glyph glyph-name="uni1EA0" unicode="&#x1ea0;" horiz-adv-x="620" 
d="M480 203h-340q-24 -79 -51 -203h-74q52 214 113 380.5t145 319.5h75q83 -152 144 -318.5t113 -381.5h-74q-27 124 -51 203zM463 263q-61 194 -153 364q-92 -170 -153 -364h306zM261 -134v9q0 45 45 45h8q45 0 45 -45v-9q0 -45 -45 -45h-8q-45 0 -45 45z" />
    <glyph glyph-name="uni1EA1" unicode="&#x1ea1;" horiz-adv-x="558" 
d="M483.5 64.5q7.5 -26.5 26.5 -47.5q-10 -10 -23.5 -16t-25.5 -6q-20 0 -33.5 23t-17.5 63q-31 -42 -83 -66.5t-109 -24.5q-76 0 -122 39.5t-46 103.5q0 94 91.5 147t266.5 61v32q0 66 -33.5 98.5t-101.5 32.5q-44 0 -81.5 -18.5t-80.5 -61.5q-6 -6 -15 -6q-10 0 -22 8.5
t-23 24.5q45 53 102.5 81t122.5 28q93 0 146.5 -50t53.5 -137v-236q0 -46 7.5 -72.5zM325 76q48 30 83 85v124q-288 -12 -288 -151q0 -88 103 -88q54 0 102 30zM230 -134v9q0 45 45 45h8q45 0 45 -45v-9q0 -45 -45 -45h-8q-45 0 -45 45z" />
    <glyph glyph-name="uni1EA2" unicode="&#x1ea2;" horiz-adv-x="620" 
d="M480 203h-340q-24 -79 -51 -203h-74q52 214 113 380.5t145 319.5h75q83 -152 144 -318.5t113 -381.5h-74q-27 124 -51 203zM463 263q-61 194 -153 364q-92 -170 -153 -364h306zM295 733q-12 8 -12 19q37 20 52.5 42t15.5 51q0 22 -11.5 34.5t-32.5 12.5t-33.5 -13
t-20.5 -35q-15 0 -25 8.5t-10 21.5q0 27 25.5 47.5t65.5 20.5q45 0 72.5 -24.5t27.5 -69.5q0 -80 -89 -123q-13 0 -25 8z" />
    <glyph glyph-name="uni1EA3" unicode="&#x1ea3;" horiz-adv-x="558" 
d="M483.5 64.5q7.5 -26.5 26.5 -47.5q-10 -10 -23.5 -16t-25.5 -6q-20 0 -33.5 23t-17.5 63q-31 -42 -83 -66.5t-109 -24.5q-76 0 -122 39.5t-46 103.5q0 94 91.5 147t266.5 61v32q0 66 -33.5 98.5t-101.5 32.5q-44 0 -81.5 -18.5t-80.5 -61.5q-6 -6 -15 -6q-10 0 -22 8.5
t-23 24.5q45 53 102.5 81t122.5 28q93 0 146.5 -50t53.5 -137v-236q0 -46 7.5 -72.5zM325 76q48 30 83 85v124q-288 -12 -288 -151q0 -88 103 -88q54 0 102 30zM262 623q-12 8 -12 19q37 20 52.5 42t15.5 51q0 22 -11.5 34.5t-32.5 12.5t-33.5 -13t-20.5 -35q-15 0 -25 8.5
t-10 21.5q0 27 25.5 47.5t65.5 20.5q45 0 72.5 -24.5t27.5 -69.5q0 -80 -89 -123q-13 0 -25 8z" />
    <glyph glyph-name="uni1EA4" unicode="&#x1ea4;" horiz-adv-x="620" 
d="M480 203h-340q-24 -79 -51 -203h-74q52 214 113 380.5t145 319.5h75q83 -152 144 -318.5t113 -381.5h-74q-27 124 -51 203zM463 263q-61 194 -153 364q-92 -170 -153 -364h306zM273 875h73l111 -133h-64l-83 83l-85 -83h-64zM533 979h85l-131 -151h-66z" />
    <glyph glyph-name="uni1EA5" unicode="&#x1ea5;" horiz-adv-x="558" 
d="M483.5 64.5q7.5 -26.5 26.5 -47.5q-10 -10 -23.5 -16t-25.5 -6q-20 0 -33.5 23t-17.5 63q-31 -42 -83 -66.5t-109 -24.5q-76 0 -122 39.5t-46 103.5q0 94 91.5 147t266.5 61v32q0 66 -33.5 98.5t-101.5 32.5q-44 0 -81.5 -18.5t-80.5 -61.5q-6 -6 -15 -6q-10 0 -22 8.5
t-23 24.5q45 53 102.5 81t122.5 28q93 0 146.5 -50t53.5 -137v-236q0 -46 7.5 -72.5zM325 76q48 30 83 85v124q-288 -12 -288 -151q0 -88 103 -88q54 0 102 30zM240 765h73l111 -133h-64l-83 83l-85 -83h-64zM500 869h85l-131 -151h-66z" />
    <glyph glyph-name="uni1EA6" unicode="&#x1ea6;" horiz-adv-x="620" 
d="M480 203h-340q-24 -79 -51 -203h-74q52 214 113 380.5t145 319.5h75q83 -152 144 -318.5t113 -381.5h-74q-27 124 -51 203zM463 263q-61 194 -153 364q-92 -170 -153 -364h306zM273 875h73l111 -133h-64l-83 83l-85 -83h-64zM323 1003h83l101 -151h-66z" />
    <glyph glyph-name="uni1EA7" unicode="&#x1ea7;" horiz-adv-x="558" 
d="M483.5 64.5q7.5 -26.5 26.5 -47.5q-10 -10 -23.5 -16t-25.5 -6q-20 0 -33.5 23t-17.5 63q-31 -42 -83 -66.5t-109 -24.5q-76 0 -122 39.5t-46 103.5q0 94 91.5 147t266.5 61v32q0 66 -33.5 98.5t-101.5 32.5q-44 0 -81.5 -18.5t-80.5 -61.5q-6 -6 -15 -6q-10 0 -22 8.5
t-23 24.5q45 53 102.5 81t122.5 28q93 0 146.5 -50t53.5 -137v-236q0 -46 7.5 -72.5zM325 76q48 30 83 85v124q-288 -12 -288 -151q0 -88 103 -88q54 0 102 30zM240 765h73l111 -133h-64l-83 83l-85 -83h-64zM290 893h83l101 -151h-66z" />
    <glyph glyph-name="uni1EA8" unicode="&#x1ea8;" horiz-adv-x="620" 
d="M480 203h-340q-24 -79 -51 -203h-74q52 214 113 380.5t145 319.5h75q83 -152 144 -318.5t113 -381.5h-74q-27 124 -51 203zM463 263q-61 194 -153 364q-92 -170 -153 -364h306zM273 875h73l111 -133h-64l-83 83l-85 -83h-64zM416 852q-12 8 -12 19q37 20 52.5 42t15.5 51
q0 22 -11.5 34.5t-32.5 12.5t-33.5 -13t-20.5 -35q-15 0 -25 8.5t-10 21.5q0 27 25.5 47.5t65.5 20.5q45 0 72.5 -24.5t27.5 -69.5q0 -80 -89 -123q-13 0 -25 8z" />
    <glyph glyph-name="uni1EA9" unicode="&#x1ea9;" horiz-adv-x="558" 
d="M483.5 64.5q7.5 -26.5 26.5 -47.5q-10 -10 -23.5 -16t-25.5 -6q-20 0 -33.5 23t-17.5 63q-31 -42 -83 -66.5t-109 -24.5q-76 0 -122 39.5t-46 103.5q0 94 91.5 147t266.5 61v32q0 66 -33.5 98.5t-101.5 32.5q-44 0 -81.5 -18.5t-80.5 -61.5q-6 -6 -15 -6q-10 0 -22 8.5
t-23 24.5q45 53 102.5 81t122.5 28q93 0 146.5 -50t53.5 -137v-236q0 -46 7.5 -72.5zM325 76q48 30 83 85v124q-288 -12 -288 -151q0 -88 103 -88q54 0 102 30zM240 765h73l111 -133h-64l-83 83l-85 -83h-64zM383 742q-12 8 -12 19q37 20 52.5 42t15.5 51q0 22 -11.5 34.5
t-32.5 12.5t-33.5 -13t-20.5 -35q-15 0 -25 8.5t-10 21.5q0 27 25.5 47.5t65.5 20.5q45 0 72.5 -24.5t27.5 -69.5q0 -80 -89 -123q-13 0 -25 8z" />
    <glyph glyph-name="uni1EAA" unicode="&#x1eaa;" horiz-adv-x="620" 
d="M480 203h-340q-24 -79 -51 -203h-74q52 214 113 380.5t145 319.5h75q83 -152 144 -318.5t113 -381.5h-74q-27 124 -51 203zM463 263q-61 194 -153 364q-92 -170 -153 -364h306zM273 875h73l111 -133h-64l-83 83l-85 -83h-64zM160 945q0 36 24.5 56t62.5 20
q22 0 38.5 -6.5t36.5 -18.5q15 -10 26 -14.5t24 -4.5q41 0 48 47q19 0 29.5 -8.5t10.5 -21.5q0 -29 -23 -50t-62 -21q-23 0 -40 6.5t-38 18.5q-16 10 -28 14.5t-26 4.5q-39 0 -47 -46q-36 0 -36 24z" />
    <glyph glyph-name="uni1EAB" unicode="&#x1eab;" horiz-adv-x="558" 
d="M483.5 64.5q7.5 -26.5 26.5 -47.5q-10 -10 -23.5 -16t-25.5 -6q-20 0 -33.5 23t-17.5 63q-31 -42 -83 -66.5t-109 -24.5q-76 0 -122 39.5t-46 103.5q0 94 91.5 147t266.5 61v32q0 66 -33.5 98.5t-101.5 32.5q-44 0 -81.5 -18.5t-80.5 -61.5q-6 -6 -15 -6q-10 0 -22 8.5
t-23 24.5q45 53 102.5 81t122.5 28q93 0 146.5 -50t53.5 -137v-236q0 -46 7.5 -72.5zM325 76q48 30 83 85v124q-288 -12 -288 -151q0 -88 103 -88q54 0 102 30zM240 765h73l111 -133h-64l-83 83l-85 -83h-64zM127 835q0 36 24.5 56t62.5 20q22 0 38.5 -6.5t36.5 -18.5
q15 -10 26 -14.5t24 -4.5q41 0 48 47q19 0 29.5 -8.5t10.5 -21.5q0 -29 -23 -50t-62 -21q-23 0 -40 6.5t-38 18.5q-16 10 -28 14.5t-26 4.5q-39 0 -47 -46q-36 0 -36 24z" />
    <glyph glyph-name="uni1EAC" unicode="&#x1eac;" horiz-adv-x="620" 
d="M480 203h-340q-24 -79 -51 -203h-74q52 214 113 380.5t145 319.5h75q83 -152 144 -318.5t113 -381.5h-74q-27 124 -51 203zM463 263q-61 194 -153 364q-92 -170 -153 -364h306zM261 -134v9q0 45 45 45h8q45 0 45 -45v-9q0 -45 -45 -45h-8q-45 0 -45 45zM274 875h73
l111 -133h-64l-83 83l-85 -83h-64z" />
    <glyph glyph-name="uni1EAD" unicode="&#x1ead;" horiz-adv-x="558" 
d="M483.5 64.5q7.5 -26.5 26.5 -47.5q-10 -10 -23.5 -16t-25.5 -6q-20 0 -33.5 23t-17.5 63q-31 -42 -83 -66.5t-109 -24.5q-76 0 -122 39.5t-46 103.5q0 94 91.5 147t266.5 61v32q0 66 -33.5 98.5t-101.5 32.5q-44 0 -81.5 -18.5t-80.5 -61.5q-6 -6 -15 -6q-10 0 -22 8.5
t-23 24.5q45 53 102.5 81t122.5 28q93 0 146.5 -50t53.5 -137v-236q0 -46 7.5 -72.5zM325 76q48 30 83 85v124q-288 -12 -288 -151q0 -88 103 -88q54 0 102 30zM230 -134v9q0 45 45 45h8q45 0 45 -45v-9q0 -45 -45 -45h-8q-45 0 -45 45zM241 765h73l111 -133h-64l-83 83
l-85 -83h-64z" />
    <glyph glyph-name="uni1EAE" unicode="&#x1eae;" horiz-adv-x="620" 
d="M480 203h-340q-24 -79 -51 -203h-74q52 214 113 380.5t145 319.5h75q83 -152 144 -318.5t113 -381.5h-74q-27 124 -51 203zM463 263q-61 194 -153 364q-92 -170 -153 -364h306zM227 756.5q-35 15.5 -52 40t-17 50.5q0 16 12 26.5t34 10.5q6 -43 32 -68t75 -25
q48 0 74.5 26.5t33.5 71.5q21 0 33.5 -11t12.5 -30q0 -29 -18.5 -53t-53.5 -39t-82 -15q-49 0 -84 15.5zM358 1062h85l-131 -151h-66z" />
    <glyph glyph-name="uni1EAF" unicode="&#x1eaf;" horiz-adv-x="558" 
d="M483.5 64.5q7.5 -26.5 26.5 -47.5q-10 -10 -23.5 -16t-25.5 -6q-20 0 -33.5 23t-17.5 63q-31 -42 -83 -66.5t-109 -24.5q-76 0 -122 39.5t-46 103.5q0 94 91.5 147t266.5 61v32q0 66 -33.5 98.5t-101.5 32.5q-44 0 -81.5 -18.5t-80.5 -61.5q-6 -6 -15 -6q-10 0 -22 8.5
t-23 24.5q45 53 102.5 81t122.5 28q93 0 146.5 -50t53.5 -137v-236q0 -46 7.5 -72.5zM325 76q48 30 83 85v124q-288 -12 -288 -151q0 -88 103 -88q54 0 102 30zM193 646.5q-35 15.5 -52 40t-17 50.5q0 16 12 26.5t34 10.5q6 -43 32 -68t75 -25q48 0 74.5 26.5t33.5 71.5
q21 0 33.5 -11t12.5 -30q0 -29 -18.5 -53t-53.5 -39t-82 -15q-49 0 -84 15.5zM324 952h85l-131 -151h-66z" />
    <glyph glyph-name="uni1EB0" unicode="&#x1eb0;" horiz-adv-x="620" 
d="M480 203h-340q-24 -79 -51 -203h-74q52 214 113 380.5t145 319.5h75q83 -152 144 -318.5t113 -381.5h-74q-27 124 -51 203zM463 263q-61 194 -153 364q-92 -170 -153 -364h306zM227 756.5q-35 15.5 -52 40t-17 50.5q0 16 12 26.5t34 10.5q6 -43 32 -68t75 -25
q48 0 74.5 26.5t33.5 71.5q21 0 33.5 -11t12.5 -30q0 -29 -18.5 -53t-53.5 -39t-82 -15q-49 0 -84 15.5zM193 1044h83l101 -151h-66z" />
    <glyph glyph-name="uni1EB1" unicode="&#x1eb1;" horiz-adv-x="558" 
d="M483.5 64.5q7.5 -26.5 26.5 -47.5q-10 -10 -23.5 -16t-25.5 -6q-20 0 -33.5 23t-17.5 63q-31 -42 -83 -66.5t-109 -24.5q-76 0 -122 39.5t-46 103.5q0 94 91.5 147t266.5 61v32q0 66 -33.5 98.5t-101.5 32.5q-44 0 -81.5 -18.5t-80.5 -61.5q-6 -6 -15 -6q-10 0 -22 8.5
t-23 24.5q45 53 102.5 81t122.5 28q93 0 146.5 -50t53.5 -137v-236q0 -46 7.5 -72.5zM325 76q48 30 83 85v124q-288 -12 -288 -151q0 -88 103 -88q54 0 102 30zM194 646.5q-35 15.5 -52 40t-17 50.5q0 16 12 26.5t34 10.5q6 -43 32 -68t75 -25q48 0 74.5 26.5t33.5 71.5
q21 0 33.5 -11t12.5 -30q0 -29 -18.5 -53t-53.5 -39t-82 -15q-49 0 -84 15.5zM160 934h83l101 -151h-66z" />
    </font>
</defs>
</svg>
