<?xml version="1.0" encoding="utf-8"?>
<!-- Generator: Adobe Illustrator 21.1.0, SVG Export Plug-In . SVG Version: 6.00 Build 0)  -->
<svg version="1.1"
	 id="svg2989" inkscape:version="0.48.3.1 r9886" sodipodi:docname="envelope_font_awesome.svg" xmlns:cc="http://creativecommons.org/ns#" xmlns:dc="http://purl.org/dc/elements/1.1/" xmlns:inkscape="http://www.inkscape.org/namespaces/inkscape" xmlns:rdf="http://www.w3.org/1999/02/22-rdf-syntax-ns#" xmlns:sodipodi="http://sodipodi.sourceforge.net/DTD/sodipodi-0.dtd" xmlns:svg="http://www.w3.org/2000/svg"
	 xmlns="http://www.w3.org/2000/svg" xmlns:xlink="http://www.w3.org/1999/xlink" x="0px" y="0px" viewBox="0 0 30 30"
	 style="enable-background:new 0 0 30 30;" xml:space="preserve">
<style type="text/css">
	.st0{fill:#FFFFFF;}
</style>
<sodipodi:namedview  bordercolor="#666666" borderopacity="1" gridtolerance="10" guidetolerance="10" id="namedview2995" inkscape:current-layer="svg2989" inkscape:cx="896" inkscape:cy="896" inkscape:pageopacity="0" inkscape:pageshadow="2" inkscape:window-height="480" inkscape:window-maximized="0" inkscape:window-width="640" inkscape:window-x="0" inkscape:window-y="25" inkscape:zoom="0.13169643" objecttolerance="10" pagecolor="#ffffff" showgrid="false">
	</sodipodi:namedview>
<g id="g2991" transform="matrix(1,0,0,-1,37.966102,1282.678)">
	<path id="path2993" inkscape:connector-curvature="0" class="st0" d="M-16.6,1263.8v6.5c-0.2-0.2-0.4-0.4-0.6-0.6
		c-1.5-1.2-2.7-2.1-3.6-2.9c-0.3-0.2-0.5-0.4-0.7-0.6s-0.4-0.3-0.7-0.4c-0.3-0.1-0.6-0.2-0.9-0.2h0h0c-0.3,0-0.6,0.1-0.9,0.2
		c-0.3,0.1-0.6,0.3-0.7,0.4s-0.4,0.3-0.7,0.6c-0.9,0.7-2.1,1.7-3.6,2.9c-0.2,0.2-0.4,0.4-0.6,0.6v-6.5c0-0.1,0-0.1,0.1-0.2
		s0.1-0.1,0.2-0.1h12.4c0.1,0,0.1,0,0.2,0.1S-16.6,1263.7-16.6,1263.8z M-16.6,1272.7L-16.6,1272.7v0.2c0,0,0,0,0,0.1
		c0,0.1,0,0.1,0,0.1s0,0,0,0.1c0,0.1,0,0.1-0.1,0.1c0,0-0.1,0-0.1,0h-12.4c-0.1,0-0.1,0-0.2-0.1s-0.1-0.1-0.1-0.2
		c0-0.9,0.4-1.7,1.2-2.4c1.1-0.9,2.2-1.7,3.4-2.7c0,0,0.1-0.1,0.3-0.2c0.2-0.1,0.3-0.2,0.4-0.3c0.1-0.1,0.2-0.2,0.4-0.3
		c0.2-0.1,0.3-0.2,0.4-0.2s0.3-0.1,0.4-0.1h0h0c0.1,0,0.2,0,0.4,0.1s0.3,0.1,0.4,0.2c0.2,0.1,0.3,0.2,0.4,0.3
		c0.1,0.1,0.2,0.2,0.4,0.3c0.2,0.1,0.3,0.2,0.3,0.2c1.2,0.9,2.3,1.8,3.4,2.7c0.3,0.2,0.6,0.6,0.8,1
		C-16.8,1272-16.6,1272.3-16.6,1272.7z M-15.6,1273v-9.2c0-0.4-0.1-0.7-0.4-1c-0.3-0.3-0.6-0.4-1-0.4h-12.4c-0.4,0-0.7,0.1-1,0.4
		c-0.3,0.3-0.4,0.6-0.4,1v9.2c0,0.4,0.1,0.7,0.4,1c0.3,0.3,0.6,0.4,1,0.4h12.4c0.4,0,0.7-0.1,1-0.4
		C-15.7,1273.7-15.6,1273.3-15.6,1273z"/>
</g>
</svg>
