<?xml version="1.0" encoding="utf-8"?>
<!-- Generator: Adobe Illustrator 21.1.0, SVG Export Plug-In . SVG Version: 6.00 Build 0)  -->
<svg version="1.1"
	 id="svg3013" inkscape:version="0.48.3.1 r9886" sodipodi:docname="phone_font_awesome.svg" xmlns:cc="http://creativecommons.org/ns#" xmlns:dc="http://purl.org/dc/elements/1.1/" xmlns:inkscape="http://www.inkscape.org/namespaces/inkscape" xmlns:rdf="http://www.w3.org/1999/02/22-rdf-syntax-ns#" xmlns:sodipodi="http://sodipodi.sourceforge.net/DTD/sodipodi-0.dtd" xmlns:svg="http://www.w3.org/2000/svg"
	 xmlns="http://www.w3.org/2000/svg" xmlns:xlink="http://www.w3.org/1999/xlink" x="0px" y="0px" viewBox="0 0 30 30"
	 style="enable-background:new 0 0 30 30;" xml:space="preserve">
<style type="text/css">
	.st0{fill:#FFFFFF;}
</style>
<sodipodi:namedview  bordercolor="#666666" borderopacity="1" gridtolerance="10" guidetolerance="10" id="namedview3019" inkscape:current-layer="svg3013" inkscape:cx="896" inkscape:cy="896" inkscape:pageopacity="0" inkscape:pageshadow="2" inkscape:window-height="480" inkscape:window-maximized="0" inkscape:window-width="640" inkscape:window-x="0" inkscape:window-y="25" inkscape:zoom="0.13169643" objecttolerance="10" pagecolor="#ffffff" showgrid="false">
	</sodipodi:namedview>
<g id="g3015" transform="matrix(1,0,0,-1,159.45763,1293.0169)">
	<path id="path3017" inkscape:connector-curvature="0" class="st0" d="M-137.2,1275.8c0-0.2,0-0.4-0.1-0.7c-0.1-0.3-0.1-0.5-0.2-0.6
		c-0.1-0.3-0.5-0.6-1.1-1c-0.6-0.3-1.2-0.5-1.7-0.5c-0.2,0-0.3,0-0.5,0c-0.2,0-0.3,0.1-0.5,0.1c-0.2,0.1-0.3,0.1-0.4,0.1
		c-0.1,0-0.3,0.1-0.5,0.2c-0.3,0.1-0.4,0.2-0.5,0.2c-0.6,0.2-1.2,0.5-1.6,0.8c-0.8,0.5-1.6,1.2-2.5,2c-0.9,0.9-1.5,1.7-2,2.5
		c-0.3,0.5-0.6,1-0.8,1.6c0,0.1-0.1,0.2-0.2,0.5s-0.2,0.4-0.2,0.5c0,0.1-0.1,0.2-0.1,0.4c-0.1,0.2-0.1,0.4-0.1,0.5
		c0,0.2,0,0.3,0,0.5c0,0.6,0.2,1.2,0.5,1.7c0.4,0.6,0.7,1,1,1.1c0.2,0.1,0.4,0.1,0.6,0.2c0.3,0.1,0.5,0.1,0.7,0.1c0.1,0,0.2,0,0.2,0
		c0.1,0,0.3-0.3,0.5-0.7c0.1-0.1,0.2-0.3,0.3-0.5s0.2-0.4,0.3-0.6c0.1-0.2,0.2-0.3,0.3-0.5c0,0,0.1-0.1,0.2-0.2
		c0.1-0.1,0.2-0.2,0.2-0.3c0-0.1,0.1-0.2,0.1-0.3c0-0.1-0.1-0.3-0.3-0.5c-0.2-0.2-0.4-0.4-0.6-0.5s-0.4-0.3-0.6-0.5
		c-0.2-0.2-0.3-0.3-0.3-0.4c0-0.1,0-0.1,0-0.2s0.1-0.1,0.1-0.2c0,0,0.1-0.1,0.1-0.2c0.1-0.1,0.1-0.2,0.1-0.2c0.5-0.9,1-1.6,1.6-2.2
		c0.6-0.6,1.4-1.2,2.2-1.6c0,0,0.1,0,0.2-0.1s0.2-0.1,0.2-0.1s0.1,0,0.2-0.1s0.2,0,0.2,0c0.1,0,0.3,0.1,0.4,0.3
		c0.2,0.2,0.3,0.4,0.5,0.6c0.2,0.2,0.3,0.4,0.5,0.6c0.2,0.2,0.3,0.3,0.5,0.3c0.1,0,0.2,0,0.3-0.1c0.1,0,0.2-0.1,0.3-0.2
		c0.1-0.1,0.2-0.1,0.2-0.2c0.2-0.1,0.3-0.2,0.5-0.3c0.2-0.1,0.4-0.2,0.6-0.3c0.2-0.1,0.4-0.2,0.5-0.3c0.4-0.2,0.7-0.4,0.7-0.5
		C-137.2,1275.9-137.2,1275.9-137.2,1275.8z"/>
</g>
</svg>
